<?xml version="1.0" standalone="no"?>
<!DOCTYPE svg PUBLIC "-//W3C//DTD SVG 1.1//EN" "http://www.w3.org/Graphics/SVG/1.1/DTD/svg11.dtd" >
<svg xmlns="http://www.w3.org/2000/svg">
<metadata></metadata>
<defs>
<font id="simplon_normbold_italic" horiz-adv-x="993" >
<font-face units-per-em="2048" ascent="1651" descent="-397" />
<missing-glyph horiz-adv-x="374" />
<glyph unicode=" "  horiz-adv-x="374" />
<glyph unicode="&#x09;" horiz-adv-x="374" />
<glyph unicode="&#xa0;" horiz-adv-x="374" />
<glyph unicode="!" horiz-adv-x="534" d="M552 1248l-185 -874h-235l186 874h234zM25 0l62 285h285l-62 -285h-285z" />
<glyph unicode="&#x22;" horiz-adv-x="876" d="M474 848h-236v400h236v-400zM886 848h-235v400h235v-400z" />
<glyph unicode="#" horiz-adv-x="1244" d="M617 0l78 319h-230l-79 -319h-226l78 319h-110v213h164l46 182h-165v214h219l80 320h227l-80 -320h229l80 320h226l-80 -320h113v-214h-166l-47 -182h168v-213h-221l-78 -319h-226zM565 714l-46 -182h229l46 182h-229z" />
<glyph unicode="$" horiz-adv-x="938" d="M298 -178l35 171q-87 17 -154 63t-105 118.5t-38 160.5q0 39 3 59h230q-2 -10 -2 -32q0 -59 28.5 -103t80.5 -62l71 332l-61 22q-63 23 -109.5 62t-70.5 85.5t-35 91.5t-11 90q0 30 4 61t16 70t30.5 73.5t51.5 68t75.5 58t105.5 39.5t138 15q4 0 11 -1t10 -1l36 162h76 l-37 -170q120 -28 198.5 -115t78.5 -205q0 -13 -2 -28h-229v14q0 92 -89 125l-68 -317l49 -16q56 -20 100 -58t70 -83.5t39.5 -93.5t13.5 -93q0 -33 -3.5 -65t-15 -73.5t-29 -77t-49 -70.5t-72.5 -60t-101.5 -40.5t-134.5 -15.5h-25l-34 -161h-76zM388 900q0 -98 107 -145 l64 304q-72 0 -121.5 -42t-49.5 -117zM609 353q0 101 -90 147l-68 -311q43 1 74.5 15.5t49 38t26 51.5t8.5 59z" />
<glyph unicode="%" horiz-adv-x="1574" d="M1156 1248h189l-857 -1248h-189zM396 658q77 0 94 83q64 282 64 312q0 16 -6.5 29t-24.5 22.5t-47 9.5q-77 0 -97 -84q-13 -56 -27 -123.5t-24 -122.5t-10 -66q0 -26 18 -43t60 -17zM386 513q-64 0 -116 24t-82.5 70t-30.5 106q0 17 8 66.5t18 98t19.5 94.5t9.5 49 q26 121 87 179t186 58q98 0 163.5 -54.5t65.5 -144.5q0 -23 -13 -96.5t-26.5 -136t-16.5 -76.5q-14 -59 -33 -100.5t-50.5 -73.5t-78 -47.5t-110.5 -15.5zM1165 134q78 0 95 84q64 281 64 311q0 17 -6.5 29.5t-24.5 22t-47 9.5q-77 0 -97 -84q-62 -274 -62 -312 q0 -26 18 -43t60 -17zM1156 -10q-98 0 -163.5 54.5t-65.5 144.5q0 17 8 66.5t17.5 98t19 94t9.5 49.5q26 120 87.5 178.5t186.5 58.5q64 0 116 -24t82.5 -70t30.5 -106q0 -32 -24.5 -153.5t-32.5 -154.5q-14 -59 -33 -100.5t-50 -73.5t-77.5 -47t-110.5 -15z" />
<glyph unicode="&#x26;" horiz-adv-x="1090" d="M592 1041q-117 -4 -165 -45t-48 -117q0 -38 17.5 -70t53 -54.5t84.5 -28.5h172l32 143h235l-31 -143h216l-44 -207h-216l-109 -519h-397q-79 0 -147 26.5t-113 71t-70.5 102.5t-25.5 121q0 242 208 349q-42 35 -67.5 94t-25.5 120q0 179 122.5 271.5t346.5 92.5h198 l-45 -207h-181zM399 207h198l66 312h-180q-40 0 -77 -10t-70 -29t-52.5 -53t-19.5 -78q0 -61 36 -101.5t99 -40.5z" />
<glyph unicode="'" horiz-adv-x="464" d="M474 848h-236v400h236v-400z" />
<glyph unicode="(" horiz-adv-x="530" d="M469 962q-71 -332 -149 -698q-62 -286 -62 -303q0 -26 14.5 -41t40.5 -15h65l-47 -211h-37q-43 0 -79.5 8t-63.5 23.5t-47.5 36.5t-33.5 47t-19.5 55t-6.5 61q0 37 4.5 74t22 121.5t37 173.5t64.5 296t90 422q14 66 31.5 107t49.5 72t81 44t123 13h114l-46 -213h-64 q-40 0 -57.5 -18t-24.5 -55z" />
<glyph unicode=")" horiz-adv-x="532" d="M68 -22q59 281 133 625q77 358 77 377q0 25 -14.5 40t-40.5 15h-65l47 213h38q64 0 113 -18.5t78 -51t43.5 -73.5t14.5 -90q0 -36 -4.5 -73.5t-22 -122t-37 -173t-64.5 -295.5t-90 -422q-14 -67 -31.5 -107.5t-49 -71.5t-80.5 -43.5t-123 -12.5h-114l46 211h64 q40 0 57 18.5t25 54.5z" />
<glyph unicode="*" horiz-adv-x="954" d="M274 1094l197 -67l46 221h214l-47 -221l224 67l26 -212l-228 -64l105 -199l-177 -113l-105 200l-178 -200l-159 137l179 200l-198 62z" />
<glyph unicode="+" d="M609 900v-303h304v-214h-304v-303h-213v303h-304v214h304v303h213z" />
<glyph unicode="," horiz-adv-x="534" d="M27 0l60 285h285l-61 -285l-120 -203h-168l121 203h-117z" />
<glyph unicode="-" horiz-adv-x="658" d="M98 597h517l-45 -214h-517z" />
<glyph unicode="." horiz-adv-x="534" d="M27 0l60 285h285l-61 -285h-284z" />
<glyph unicode="/" horiz-adv-x="671" d="M-36 0l505 1248h238l-504 -1248h-239z" />
<glyph unicode="0" d="M884 372q-23 -98 -57 -168.5t-87 -121t-128.5 -75t-176.5 -24.5q-163 0 -265 92t-102 233q0 88 105 567q23 99 57 169t87 121t128.5 75.5t176.5 24.5q163 0 265 -93t102 -233q0 -87 -105 -567zM410 887q-8 -37 -33.5 -153.5t-38.5 -179.5l421 347q1 11 1 26 q0 27 -8.5 50.5t-27 42t-49 29t-71.5 10.5q-77 0 -126.5 -44.5t-67.5 -127.5zM646 360q6 27 15.5 70.5t17.5 82.5t18.5 88t18.5 87l-418 -346q-2 -9 -2 -21q0 -22 5.5 -41t17.5 -36t30 -29t44.5 -19t58.5 -7q77 0 127 44.5t67 126.5z" />
<glyph unicode="1" d="M365 207l155 737l-282 -206l65 303l282 207h235l-220 -1041h294l-44 -207h-818l43 207h290z" />
<glyph unicode="2" d="M983 939q0 -133 -63 -241t-180 -203l-355 -288h458l-43 -207h-817l42 207l568 463q78 64 120 124.5t42 132.5q0 27 -9 50.5t-27 42t-49 29t-71 10.5q-48 0 -85 -17t-60.5 -46.5t-37 -64.5t-18.5 -76h-234q20 102 53.5 176t87 127.5t131 80t181.5 26.5q81 0 149.5 -25 t116 -68.5t74 -103.5t26.5 -129z" />
<glyph unicode="3" d="M420 -17q-168 0 -267.5 91.5t-99.5 233.5q0 23 4 49h228q-3 -21 -3 -36q0 -28 9 -51t27 -41.5t49 -29t71 -10.5q86 0 142 60t56 134q0 60 -41.5 98t-111.5 38h-104l45 207h103q63 0 113 25t78 71t28 105q0 27 -8.5 50.5t-27 42t-49 29t-71.5 10.5q-76 0 -126 -44 t-68 -124h-234q23 95 57.5 162t87.5 116t127 72.5t173 23.5q163 0 265 -93t102 -233q0 -119 -57.5 -209t-151.5 -130q42 -32 65 -87.5t23 -118.5q0 -192 -115.5 -301.5t-317.5 -109.5z" />
<glyph unicode="4" d="M887 285h-128l-60 -285h-236l61 285h-538l43 201l698 762h235l-162 -762h128zM325 486h240l76 346z" />
<glyph unicode="5" d="M673 360q27 125 27 137q0 49 -33.5 80.5t-105.5 31.5q-60 0 -110 -26.5t-75 -74.5h-239l157 740h755l-44 -207h-520l-57 -275q67 50 178 50q82 0 156.5 -40t121 -113.5t46.5 -162.5q0 -30 -19 -128q-27 -130 -79.5 -214t-144.5 -129.5t-226 -45.5q-162 0 -264 92 t-102 233q0 5 3 49h228q-3 -32 -3 -36q0 -28 9 -51t27 -41.5t49 -29t71 -10.5q77 0 126 44t68 127z" />
<glyph unicode="6" d="M392 753q63 51 178 51q65 0 125 -23.5t106.5 -66.5t74 -108t27.5 -143q0 -50 -9 -91q-23 -98 -57 -168t-87 -121t-128.5 -75.5t-176.5 -24.5q-107 0 -191 42.5t-129 116.5t-45 166q0 107 104 567q22 99 56.5 169t87.5 121t128 75.5t176 24.5q163 0 265.5 -93t102.5 -233 q0 -5 -4 -48h-228q4 31 4 36q0 27 -9 50.5t-27 42t-49 29t-72 10.5q-76 0 -125 -44.5t-70 -127.5q-3 -14 -28 -134zM323 425q-17 -81 -17 -104q0 -28 9 -51t27 -41.5t49 -29t72 -10.5q77 0 127 44.5t68 126.5q15 77 15 105q0 58 -38.5 95t-117.5 37q-77 0 -126.5 -44.5 t-67.5 -127.5z" />
<glyph unicode="7" d="M1008 1041l-610 -1041h-264l611 1041h-546l44 207h808z" />
<glyph unicode="8" d="M207 860q0 38 5.5 75t19.5 77.5t35 76.5t54.5 68.5t76 56t101 37.5t127.5 14q79 0 146.5 -26t114 -70t73 -104t26.5 -128q0 -47 -9.5 -93.5t-30 -94t-58 -90t-88.5 -71.5q71 -91 71 -209q0 -31 -4.5 -64t-16.5 -73t-31.5 -75.5t-52 -70t-75 -59t-103.5 -39.5t-134 -15 q-107 0 -193 42.5t-135 121t-49 179.5q0 41 8 84.5t27.5 93t58.5 95t94 74.5q-58 80 -58 187zM304 344q0 -71 43.5 -113t121.5 -42q47 0 82 17.5t54 46t28.5 60.5t9.5 66q0 71 -43 113t-121 42q-46 0 -81.5 -17.5t-55 -46t-29 -60.5t-9.5 -66zM757 916q0 65 -38.5 104 t-109.5 39q-58 0 -98.5 -29t-58 -71t-17.5 -92q0 -64 38.5 -102.5t109.5 -38.5q44 0 78 16t54.5 43.5t31 60.5t10.5 70z" />
<glyph unicode="9" d="M675 493q-28 -22 -74.5 -35.5t-103.5 -13.5q-66 0 -125.5 23.5t-106 66t-74 107.5t-27.5 143q0 47 9 91q23 98 57 168.5t87 121t128.5 75.5t176.5 25q162 0 263.5 -92.5t101.5 -233.5q0 -107 -103 -567q-23 -98 -57 -168.5t-87 -121t-128.5 -75t-176.5 -24.5 q-163 0 -265 92t-102 233q0 5 3 49h228q-3 -32 -3 -36q0 -22 5.5 -41t17.5 -36t30 -29t44.5 -19t58.5 -7q152 0 194 171q10 41 29 133zM745 821q15 77 15 106q0 27 -8.5 50.5t-27 42t-49 29t-71.5 10.5q-77 0 -126.5 -44.5t-67.5 -127.5q-16 -77 -16 -105q0 -58 38.5 -94.5 t118.5 -36.5q77 0 126.5 44t67.5 126z" />
<glyph unicode=":" horiz-adv-x="534" d="M162 634l61 286h285l-61 -286h-285zM27 0l60 285h285l-61 -285h-284z" />
<glyph unicode=";" horiz-adv-x="534" d="M162 634l61 286h285l-61 -286h-285zM27 0l60 285h285l-61 -285l-120 -203h-168l121 203h-117z" />
<glyph unicode="&#x3c;" d="M358 461l555 -237v-233l-821 351v239l821 351v-233z" />
<glyph unicode="=" d="M913 597h-821v214h821v-214zM92 383h821v-213h-821v213z" />
<glyph unicode="&#x3e;" d="M92 224l554 237l-554 238v233l821 -351v-239l-821 -351v233z" />
<glyph unicode="?" horiz-adv-x="938" d="M367 891h-233q24 95 58 162t87 116t127 72.5t173 23.5q163 0 265 -93t102 -233q0 -82 -21 -147.5t-61.5 -118t-104.5 -101.5l-111 -86q-8 -6 -25.5 -19t-22.5 -17.5t-16 -14t-15 -16t-9 -16.5t-8 -22l-1 -7h-236l10 39q16 74 48 121.5t108 106.5l111 86q40 31 59.5 48.5 t37 40t23.5 45.5t6 55q0 43 -15.5 74t-51.5 50t-90 19q-76 0 -126 -44t-68 -124zM211 0l60 285h285l-61 -285h-284z" />
<glyph unicode="@" horiz-adv-x="1666" d="M1208 920v-662q0 -30 22 -45.5t49 -15.5t50 15.5t23 45.5v291q0 239 -134.5 369.5t-384 130.5t-384 -130.5t-134.5 -369.5v-178q0 -239 134.5 -370t383.5 -131q191 0 320 80l107 -196q-173 -99 -427 -99q-124 0 -231 24.5t-201 79.5t-160.5 137t-104.5 204.5t-38 275.5 v168q0 152 38 274.5t104.5 205t160.5 137.5t201 79.5t231 24.5t231.5 -24.5t201.5 -79.5t160.5 -137.5t104.5 -205t38 -274.5v-320q0 -104 -83 -172.5t-207 -68.5q-73 0 -133 12.5t-103 35.5t-70 56q-30 -46 -92 -75t-124 -29q-72 0 -137 24.5t-117.5 72t-83.5 125.5 t-31 176v164q0 98 31 176t83.5 125.5t117.5 72.5t137 25q62 0 124 -29t92 -75v80h235zM624 536v-145q0 -88 51 -133.5t123.5 -45.5t123.5 45.5t51 133.5v145q0 88 -51 133t-123 45q-47 0 -85.5 -18t-64 -59.5t-25.5 -100.5z" />
<glyph unicode="A" horiz-adv-x="1113" d="M723 474l-58 408l-232 -408h290zM753 253h-447l-144 -253h-262l709 1248h229l179 -1248h-226z" />
<glyph unicode="B" horiz-adv-x="1115" d="M304 231h315q77 0 130 42.5t53 117.5q0 54 -34.5 89t-102.5 35h-301zM17 0l265 1248h502q58 0 107.5 -13.5t86 -37.5t64.5 -55.5t45.5 -68.5t26 -75.5t8.5 -77.5q0 -92 -46 -180.5t-132 -133.5q97 -87 97 -207q0 -195 -120 -297t-342 -102h-562zM413 746h294 q78 0 127.5 44t49.5 108q0 52 -31.5 84.5t-102.5 32.5h-279z" />
<glyph unicode="C" horiz-adv-x="1077" d="M1090 830h-235q4 22 4 30q0 85 -53 129.5t-152 44.5t-169.5 -59t-93.5 -166q-1 -4 -17 -75t-30 -136t-27 -130.5t-13 -81.5q0 -84 53 -128t153 -44q93 0 161.5 53t96.5 150h240q-19 -83 -45.5 -146.5t-69 -119t-98.5 -92t-135.5 -56.5t-180.5 -20q-97 0 -176.5 29 t-130.5 79.5t-78.5 115.5t-27.5 138q0 25 6.5 70.5t18.5 108.5t21 105t23 107t15 68q18 87 43.5 154t68 126.5t99 98t138 60.5t185.5 22q97 0 176.5 -29.5t131 -80t79 -115.5t27.5 -139q0 -28 -8 -71z" />
<glyph unicode="D" horiz-adv-x="1132" d="M520 0h-503l265 1248h436q97 0 176.5 -29.5t130.5 -80t78.5 -116t27.5 -138.5q0 -25 -6 -67.5t-16.5 -98t-19 -96t-21 -97t-14.5 -64.5q-18 -87 -43.5 -154t-68 -126.5t-99 -98t-138 -60.5t-185.5 -22zM303 231h248q99 0 169 59t94 166q1 4 15.5 69.5t27.5 123.5 t24.5 118t11.5 76q0 42 -13.5 74.5t-39.5 54t-64 32.5t-88 11h-217z" />
<glyph unicode="E" horiz-adv-x="959" d="M471 1015l-58 -269h521l-50 -231h-520l-61 -284h520l-48 -231h-758l265 1248h757l-50 -233h-518z" />
<glyph unicode="F" horiz-adv-x="942" d="M471 1015l-58 -269h521l-50 -231h-520l-109 -515h-238l265 1248h759l-52 -233h-518z" />
<glyph unicode="G" horiz-adv-x="1091" d="M780 479h-231l50 232h470q-16 -84 -57 -267q-20 -88 -45.5 -154.5t-67.5 -126.5t-98.5 -98t-138 -60t-184.5 -22q-98 0 -177.5 29t-130.5 79.5t-78.5 115.5t-27.5 138q0 25 6.5 70.5t19 108.5t21 105t22.5 107t15 68q19 87 44.5 154t67.5 126.5t98.5 98t138 60.5 t185.5 22q97 0 177 -29.5t131 -80t78.5 -115.5t27.5 -139q0 -5 -0.5 -12t-2 -17.5t-1.5 -18.5h-235v7q0 85 -52.5 129.5t-152.5 44.5q-65 0 -119 -26t-91.5 -77t-53.5 -122q0 -2 -16.5 -75t-30 -136.5t-26 -129.5t-12.5 -82q0 -84 53 -128t152 -44t169.5 58.5t94.5 165.5z " />
<glyph unicode="H" horiz-adv-x="1171" d="M880 746l106 502h236l-263 -1248h-238l109 515h-466l-109 -515h-238l265 1248h237l-106 -502h467z" />
<glyph unicode="I" horiz-adv-x="468" d="M519 1248l-264 -1248h-238l265 1248h237z" />
<glyph unicode="J" horiz-adv-x="836" d="M481 364l187 884h237l-189 -891q-17 -79 -36.5 -135t-50 -103.5t-72.5 -76t-102 -44t-140 -15.5q-90 0 -165.5 38t-121 110t-45.5 163q0 31 3 63h237q-2 -9 -2 -27q0 -36 14.5 -63.5t40.5 -41.5t61 -14q63 0 96 41t48 112z" />
<glyph unicode="K" horiz-adv-x="1148" d="M328 351l-73 -351h-238l265 1248h237l-106 -507l539 507h335l-549 -515l328 -733h-255l-252 563z" />
<glyph unicode="L" horiz-adv-x="874" d="M520 1248l-217 -1017h520l-48 -231h-758l265 1248h238z" />
<glyph unicode="M" horiz-adv-x="1323" d="M729 335h-185l-119 471l-170 -806h-238l265 1248h233l162 -646l460 646h238l-265 -1248h-237l164 765z" />
<glyph unicode="N" horiz-adv-x="1170" d="M1222 1248l-265 -1248h-239l-283 847l-180 -847h-238l265 1248h238l284 -847l179 847h239z" />
<glyph unicode="O" horiz-adv-x="1095" d="M150 804q18 87 43.5 154t68 126.5t99 98t138 60.5t185.5 22q97 0 176.5 -29.5t131 -80t79 -115.5t27.5 -139q0 -24 -6.5 -70.5t-18.5 -106.5t-21.5 -106.5t-23 -105.5t-14.5 -68q-19 -88 -44.5 -155t-67.5 -126.5t-99 -97.5t-138.5 -60t-185.5 -22q-97 0 -176.5 29 t-130.5 79.5t-78.5 115.5t-27.5 138q0 25 6.5 70.5t18.5 108.5t21 105t23 107t15 68zM391 809q-1 -4 -17 -75t-30 -136t-27 -130.5t-13 -81.5q0 -84 53 -128t153 -44q99 0 169.5 58.5t93.5 165.5q1 3 17 75.5t30 136t26.5 129.5t12.5 81q0 85 -53 129.5t-152 44.5 t-169.5 -59t-93.5 -166z" />
<glyph unicode="P" horiz-adv-x="1081" d="M386 619h259q64 0 121 25.5t94.5 77t37.5 118.5q0 43 -19.5 82t-63 66t-102.5 27h-242zM337 386l-82 -386h-238l265 1248h478q86 0 158.5 -34.5t119.5 -90t73 -125t26 -141.5q0 -225 -139.5 -348t-390.5 -123h-270z" />
<glyph unicode="Q" horiz-adv-x="1115" d="M150 804q18 87 43.5 154t68 126.5t99 98t138 60.5t185.5 22q97 0 176.5 -29.5t131 -80t79 -115.5t27.5 -139q0 -24 -6.5 -70.5t-18.5 -106.5t-21.5 -106.5t-23 -105.5t-14.5 -68q-42 -193 -123 -298l68 -89l-172 -137l-74 97q-96 -34 -234 -34q-97 0 -176.5 29 t-130.5 79.5t-78.5 115.5t-27.5 138q0 25 6.5 70.5t18.5 108.5t21 105t23 107t15 68zM391 809q-1 -4 -17 -75t-30 -136t-27 -130.5t-13 -81.5q0 -84 53 -128t153 -44q34 0 51 4l-83 112l170 137l92 -120q25 49 33 91q1 3 17 75.5t30 136t26.5 129.5t12.5 81q0 85 -53 129.5 t-152 44.5t-169.5 -59t-93.5 -166z" />
<glyph unicode="R" horiz-adv-x="1100" d="M1131 920q0 -45 -7.5 -88t-31 -95t-60.5 -93t-102 -75t-150 -47l196 -522h-243l-195 515h-174l-109 -515h-238l265 1248h511q57 0 107 -13.5t86.5 -37.5t64.5 -55.5t45.5 -68.5t26 -75.5t8.5 -77.5zM413 746h303q78 0 127.5 44t49.5 108q0 52 -31.5 84.5t-102.5 32.5 h-288z" />
<glyph unicode="S" horiz-adv-x="963" d="M456 -17q-193 0 -312 109t-119 287v15h239v-13q0 -73 62.5 -120t156.5 -47q36 0 67.5 10t55.5 27.5t38 45.5t14 61q0 115 -120 150l-153 44q-57 17 -102 47t-76 71t-47.5 93.5t-16.5 111.5q0 390 440 390q92 0 168.5 -30.5t124.5 -81t74 -112.5t26 -128v-19h-240 q-27 140 -180 140q-85 0 -130 -36.5t-45 -97.5q0 -50 30 -85.5t74 -48.5l153 -45q118 -34 188 -120t70 -203q0 -204 -110.5 -309.5t-329.5 -105.5z" />
<glyph unicode="T" horiz-adv-x="936" d="M1056 1015h-347l-216 -1015h-245l215 1015h-347l48 233h943z" />
<glyph unicode="U" horiz-adv-x="1137" d="M325 386q0 -84 53 -128t153 -44q99 0 170 59t95 165q14 58 56.5 260.5t78.5 375.5l36 174h237q-142 -674 -169 -804q-18 -88 -43.5 -155t-67.5 -126.5t-99 -97.5t-139 -60t-186 -22q-97 0 -177 29t-131 79t-79 115.5t-28 138.5q0 19 3.5 48t13 79.5t18.5 96.5t27 132.5 t31.5 150.5t40 187t45.5 209h236q-17 -82 -41 -195t-38.5 -179.5t-32 -149.5t-27.5 -132t-19 -97t-13 -73.5t-4 -35.5z" />
<glyph unicode="V" horiz-adv-x="1118" d="M520 349l501 899h267l-710 -1248h-233l-180 1248h234z" />
<glyph unicode="W" horiz-adv-x="1338" d="M731 0l-2 713l-317 -713h-259l36 1248h229l-37 -856l303 677h232l-2 -661l322 840h250l-495 -1248h-260z" />
<glyph unicode="X" horiz-adv-x="1107" d="M731 0l-179 424l-347 -424h-297l544 652l-255 596h250l168 -400l329 400h297l-528 -628l267 -620h-249z" />
<glyph unicode="Y" horiz-adv-x="1077" d="M658 454l-97 -454h-238l95 454l-272 794h246l180 -542l409 542h287z" />
<glyph unicode="Z" horiz-adv-x="1037" d="M896 0h-947l48 231l785 784h-609l48 233h930l-48 -233l-785 -784h626z" />
<glyph unicode="[" horiz-adv-x="528" d="M481 1035l-237 -1130h132l-46 -211h-347l327 1554h349l-46 -213h-132z" />
<glyph unicode="\" horiz-adv-x="865" d="M335 1248l505 -1248h-240l-503 1248h238z" />
<glyph unicode="]" horiz-adv-x="530" d="M53 -95l238 1130h-133l47 213h349l-330 -1554h-347l46 211h130z" />
<glyph unicode="^" horiz-adv-x="1115" d="M714 1248l357 -714h-246l-223 446l-223 -446h-245l356 714h224z" />
<glyph unicode="_" horiz-adv-x="765" d="M-137 -61h817l-44 -213h-818z" />
<glyph unicode="`" horiz-adv-x="571" d="M243 1248h297l59 -231h-194z" />
<glyph unicode="a" horiz-adv-x="1000" d="M563 0l20 95q-9 -17 -26 -34.5t-42.5 -36t-63 -30t-79.5 -11.5q-51 0 -96 14t-78.5 39t-59.5 58.5t-42.5 72t-24.5 79.5t-8 82q0 52 37 244q40 191 135 281.5t257 90.5q87 0 149.5 -35.5t92.5 -95.5l23 107h236l-194 -920h-236zM639 365q43 199 43 216q0 152 -157 152 q-51 0 -90.5 -20.5t-65.5 -58.5t-38 -93q-42 -199 -42 -216q0 -151 156 -151q52 0 91.5 20t65.5 58.5t37 92.5z" />
<glyph unicode="b" horiz-adv-x="1004" d="M508 1248l-88 -416q7 13 18.5 26.5t31 29.5t42 28t54 20t65.5 8q51 0 96 -14.5t78.5 -39.5t59.5 -58t42.5 -72t24.5 -79.5t8 -81.5q0 -52 -37 -244q-27 -128 -77.5 -210t-128 -122t-185.5 -40q-88 0 -150 35.5t-93 95.5l-25 -114h-235l263 1248h236zM364 561 q-43 -199 -43 -216q0 -151 157 -151q77 0 126.5 44.5t67.5 126.5q42 199 42 216q0 152 -156 152q-77 0 -127 -44.5t-67 -127.5z" />
<glyph unicode="c" horiz-adv-x="959" d="M916 599v-7h-228v7q0 60 -38.5 99.5t-118.5 39.5q-77 0 -127 -44.5t-67 -127.5q-46 -215 -46 -226q0 -151 156 -151q70 0 117.5 38t69.5 108h235q-24 -89 -59 -152.5t-87 -109.5t-124.5 -68t-168.5 -22q-166 0 -266.5 95.5t-100.5 251.5q0 62 37 224q23 99 57 169t87 121 t128.5 75.5t176.5 24.5q165 0 266 -95.5t101 -249.5z" />
<glyph unicode="d" horiz-adv-x="1003" d="M563 0l20 95q-9 -17 -26 -34.5t-42.5 -36t-63 -30t-79.5 -11.5q-51 0 -96 14t-78.5 39t-59.5 58.5t-42.5 72t-24.5 79.5t-8 82q0 52 37 244q40 191 135 281.5t257 90.5q87 0 149.5 -35.5t92.5 -95.5l92 435h236l-263 -1248h-236zM639 365q43 199 43 216q0 152 -157 152 q-51 0 -90.5 -20.5t-65.5 -58.5t-38 -93q-42 -199 -42 -216q0 -151 156 -151q52 0 91.5 20t65.5 58.5t37 92.5z" />
<glyph unicode="e" horiz-adv-x="972" d="M880 381h-584q-5 -30 -5 -41q0 -151 156 -151q120 0 173 107h237q-50 -160 -149.5 -236.5t-277.5 -76.5q-166 0 -266.5 95.5t-100.5 251.5q0 62 37 224q23 99 57 169t87 121t128.5 75.5t176.5 24.5q165 0 266 -96t101 -251q0 -65 -36 -216zM688 570v16q0 152 -157 152 q-75 0 -125 -44.5t-69 -123.5h351z" />
<glyph unicode="f" horiz-adv-x="612" d="M740 1041h-159q-72 0 -88 -79l-8 -42h228l-45 -207h-226l-151 -713h-236l152 713h-130l44 207h129l19 92q23 106 102 171t190 65h221z" />
<glyph unicode="g" horiz-adv-x="998" d="M218 -5v-7q0 -52 39.5 -89.5t116.5 -37.5t126.5 44.5t67.5 126.5l27 128q-22 -39 -79 -75.5t-137 -36.5q-61 0 -113 20.5t-87.5 54.5t-60.5 79t-36.5 93.5t-11.5 98.5q0 34 30 178q41 191 135.5 281.5t256.5 90.5q87 0 149.5 -35.5t92.5 -95.5l21 107h236l-185 -876 q-28 -132 -80 -216t-143.5 -128.5t-225.5 -44.5q-164 0 -265.5 94t-101.5 239v7h228zM654 432q28 139 28 149q0 152 -157 152q-51 0 -90.5 -20.5t-65.5 -58.5t-38 -93q-28 -129 -28 -149q0 -152 156 -152q78 0 128.5 45t66.5 127z" />
<glyph unicode="h" horiz-adv-x="1020" d="M905 355l-77 -355h-235l79 365q8 40 17 81t13 59.5t8 36.5t5 26t1 13q0 152 -157 152q-77 0 -126.5 -44.5t-67.5 -127.5l-121 -561h-235l265 1248h236l-90 -416q9 16 26 34t43 36.5t63.5 30t79.5 11.5q56 0 103 -14t80 -39.5t58 -58.5t40 -72t22 -79.5t7 -81.5 q0 -74 -37 -244z" />
<glyph unicode="i" horiz-adv-x="448" d="M510 1248l-45 -209h-235l44 209h236zM440 920l-196 -920h-235l196 920h235z" />
<glyph unicode="j" horiz-adv-x="447" d="M508 1248l-43 -209h-235l42 209h236zM0 -43l203 963h235l-214 -1012q-23 -106 -102 -171t-190 -65h-105l43 207h43q71 0 87 78z" />
<glyph unicode="k" horiz-adv-x="957" d="M510 1248l-132 -617l326 289h313l-410 -362l262 -558h-247l-190 403l-128 -114l-60 -289h-235l265 1248h236z" />
<glyph unicode="l" horiz-adv-x="448" d="M244 0h-235l265 1248h236z" />
<glyph unicode="m" horiz-adv-x="1583" d="M365 570l-121 -570h-235l196 920h235l-20 -88q24 39 81.5 75.5t134.5 36.5q79 0 134.5 -33t84.5 -85q18 20 42 38.5t59 37.5t83.5 30.5t101.5 11.5q81 0 146 -21t105 -54.5t66.5 -78.5t37 -90t10.5 -93q0 -61 -34 -235l-81 -372h-235l79 365q44 193 44 216 q0 70 -36.5 111t-116.5 41q-45 0 -83 -19t-66 -56t-38 -88l-121 -570h-235l78 365q45 193 45 216q0 70 -36.5 111t-117.5 41q-44 0 -82.5 -19t-66 -56t-38.5 -88z" />
<glyph unicode="n" horiz-adv-x="1020" d="M905 355l-77 -355h-235l79 365q8 40 17 81t13 59.5t8 36.5t5 26t1 13q0 152 -157 152q-77 0 -126.5 -44.5t-67.5 -127.5l-121 -561h-235l196 920h235l-20 -88q9 16 26 34t43 36.5t63.5 30t79.5 11.5q56 0 103 -14t80 -39.5t58 -58.5t40 -72t22 -79.5t7 -81.5 q0 -74 -37 -244z" />
<glyph unicode="o" horiz-adv-x="977" d="M879 372q-23 -98 -57.5 -168.5t-87 -121t-128 -75t-176.5 -24.5q-166 0 -266.5 95.5t-100.5 251.5q0 62 37 224q23 99 57 169t87 121t128.5 75.5t176.5 24.5q165 0 266 -96t101 -251q0 -63 -37 -225zM337 566q-46 -210 -46 -236q0 -63 38 -102t118 -39q77 0 126.5 44.5 t67.5 126.5q47 214 47 237q0 24 -5.5 44.5t-17.5 38.5t-30 30.5t-44.5 20t-59.5 7.5q-77 0 -126 -44.5t-68 -127.5z" />
<glyph unicode="p" horiz-adv-x="1006" d="M440 920l-18 -88q7 13 18.5 26.5t30.5 29.5t42 28t54 20t65 8q52 0 97 -14.5t78.5 -39.5t59.5 -58t42.5 -72t24.5 -79.5t8 -81.5q0 -52 -37 -244q-40 -191 -135 -281.5t-257 -90.5q-87 0 -149.5 35.5t-92.5 95.5l-94 -442h-236l264 1248h235zM365 561q-42 -199 -42 -216 q0 -151 156 -151q77 0 127 44.5t67 126.5q43 199 43 216q0 152 -157 152q-77 0 -126.5 -44.5t-67.5 -127.5z" />
<glyph unicode="q" horiz-adv-x="1000" d="M493 -328l90 423q-9 -17 -26 -34.5t-42.5 -36t-63 -30t-79.5 -11.5q-51 0 -96 14t-78.5 39t-59.5 58.5t-42.5 72t-24.5 79.5t-8 82q0 52 37 244q40 191 135 281.5t257 90.5q87 0 149.5 -35.5t92.5 -95.5l23 107h236l-264 -1248h-236zM639 365q43 199 43 216 q0 152 -157 152q-51 0 -90.5 -20.5t-65.5 -58.5t-38 -93q-42 -199 -42 -216q0 -151 156 -151q52 0 91.5 20t65.5 58.5t37 92.5z" />
<glyph unicode="r" horiz-adv-x="648" d="M682 714h-128q-77 0 -126.5 -44t-67.5 -126l-116 -544h-235l196 920h235l-23 -97q9 17 26 34.5t43 36t63.5 30t79.5 11.5h100z" />
<glyph unicode="s" horiz-adv-x="849" d="M371 -17q-101 0 -185 37.5t-133.5 106.5t-49.5 155v16h228v-7q0 -48 48.5 -77t118.5 -29q32 0 61 7.5t51 26t22 45.5q0 30 -21 47t-60 27l-128 34q-36 10 -68.5 25t-61.5 38.5t-50 52t-33.5 66.5t-12.5 80q0 78 28.5 138t79.5 97t117.5 56t146.5 19q61 0 121 -20.5 t108 -56.5t78 -90t30 -116v-15h-228v6q-2 39 -42 64t-94 25q-52 0 -84.5 -20.5t-32.5 -55.5q0 -53 69 -72l142 -37q67 -18 117.5 -51.5t81 -86.5t30.5 -119q0 -162 -100 -239t-294 -77z" />
<glyph unicode="t" horiz-adv-x="653" d="M203 713h-130l43 207h130l45 208h234l-44 -208h226l-42 -207h-227q-94 -442 -94 -462t13.5 -32t40.5 -12h158l-43 -207h-173q-59 0 -103.5 16.5t-71.5 46t-40 68t-13 85.5q0 84 91 497z" />
<glyph unicode="u" horiz-adv-x="1011" d="M461 194q72 0 120.5 45t66.5 126l120 555h235l-196 -920h-235l21 95q-7 -15 -24.5 -32.5t-44 -36t-64.5 -31t-79 -12.5q-75 0 -134 29t-94.5 78t-54 107.5t-18.5 121.5q0 81 34 235l78 366h236l-77 -359q-43 -185 -43 -216q0 -69 36 -110t117 -41z" />
<glyph unicode="v" horiz-adv-x="872" d="M394 330l333 590h260l-526 -920h-242l-137 920h236z" />
<glyph unicode="w" horiz-adv-x="1253" d="M695 0l-23 639l-291 -639h-238l-48 920h231l21 -578l262 578h217l21 -563l256 563h253l-436 -920h-225z" />
<glyph unicode="x" horiz-adv-x="901" d="M471 661l224 259h292l-408 -466l205 -454h-246l-113 260l-226 -260h-291l410 472l-204 448h244z" />
<glyph unicode="y" horiz-adv-x="874" d="M218 7l-136 913h236l76 -580l324 580h269l-575 -1007q-10 -16 -25.5 -44.5t-24 -42.5t-22.5 -37t-24 -34.5t-26 -27.5t-31 -24t-34.5 -16.5t-42.5 -11.5t-50 -3h-173l41 207h98q50 0 72 41z" />
<glyph unicode="z" horiz-adv-x="787" d="M787 713l-488 -506h394l-42 -207h-702l44 207l488 506h-371l43 207h679z" />
<glyph unicode="{" horiz-adv-x="592" d="M107 -75q0 51 17 140t34 164t17 90q0 22 -12.5 32.5t-43.5 10.5h-64l45 217h64q40 0 58.5 19t25.5 54q32 146 77 360q13 66 30.5 107t49 72t81 44t123.5 13h114l-46 -213h-64q-40 0 -57.5 -18.5t-24.5 -54.5q-14 -69 -40 -189.5t-37 -175.5q-11 -60 -31.5 -90.5 t-60.5 -50.5q37 -30 37 -89q0 -28 -39 -207.5t-39 -198.5q0 -17 6 -29.5t18.5 -19.5t30.5 -7h64l-46 -211h-37q-65 0 -113.5 18t-78 50.5t-44 73.5t-14.5 89z" />
<glyph unicode="|" horiz-adv-x="448" d="M333 1248v-1426h-217v1426h217z" />
<glyph unicode="}" horiz-adv-x="592" d="M492 1015q0 -51 -17 -140t-34 -163t-17 -90q0 -21 12.5 -32t42.5 -11h65l-45 -217h-64q-40 0 -58.5 -18.5t-25.5 -54.5q-30 -135 -77 -360q-14 -67 -31 -107.5t-49 -71.5t-81 -43.5t-123 -12.5h-114l46 211h64q40 0 57 18.5t25 54.5q14 69 40 190t36 176q6 31 13.5 52.5 t19 38t25.5 28t35 22.5q-38 30 -38 88q0 28 39.5 208t39.5 199q0 25 -14.5 40t-40.5 15h-65l47 213h38q64 0 113 -18.5t78 -51t43.5 -73.5t14.5 -90z" />
<glyph unicode="~" horiz-adv-x="979" d="M223 342l-138 151q131 145 282 145q26 0 51.5 -6t44.5 -15.5t39.5 -20t37.5 -19.5t36.5 -15t36.5 -6q38 0 73 18.5t82 63.5l137 -152q-131 -144 -281 -144q-37 0 -74 12.5t-62 28t-55 28.5t-55 13q-39 0 -73.5 -18.5t-81.5 -63.5z" />
<glyph unicode="&#xa1;" horiz-adv-x="480" d="M-44 -328l185 873h235l-185 -873h-235zM483 920l-63 -286h-284l61 286h286z" />
<glyph unicode="&#xa2;" horiz-adv-x="979" d="M325 -178l272 1283h76l-272 -1283h-76zM928 599v-7h-228v7q0 28 -8.5 52.5t-26.5 44t-49 31t-72 11.5q-77 0 -127 -44.5t-68 -127.5q-46 -215 -46 -226q0 -151 156 -151q29 0 53.5 6t45.5 18.5t37.5 30t29.5 40.5t21 51h236q-24 -89 -59 -152.5t-87.5 -109.5t-125 -68 t-168.5 -22q-165 0 -266 95.5t-101 251.5q0 62 37 224q23 99 57.5 169t87 121t128 75.5t176.5 24.5q109 0 192.5 -43.5t129 -122t45.5 -179.5z" />
<glyph unicode="&#xa3;" horiz-adv-x="1093" d="M1100 857h-229q9 62 9 70q0 58 -39 95t-118 37q-51 0 -91 -20.5t-65.5 -58.5t-37.5 -93l-41 -190h350l-31 -143h-349l-62 -292q-9 -46 -29 -55h602l-44 -207h-932l44 207h52q60 0 76 78l58 269h-114l30 143h114l39 178q21 98 55.5 169t87.5 121.5t129 75t177 24.5 q163 0 265 -93t102 -233q0 -23 -8 -82z" />
<glyph unicode="&#xa4;" horiz-adv-x="1253" d="M1092 66l-152 152q-125 -94 -284 -94t-287 95l-153 -153l-100 99l153 154q-94 124 -94 287q0 161 94 285l-153 155l100 100l153 -155q126 96 287 96q157 0 284 -94l152 153l100 -100l-151 -153q96 -127 96 -287q0 -162 -96 -288l151 -153zM386 605.5 q0 -110.5 79.5 -189.5t190.5 -79t190 79t79 190t-79 190t-190 79t-190.5 -79.5t-79.5 -190z" />
<glyph unicode="&#xa5;" horiz-adv-x="1154" d="M935 228h-290l-48 -228h-235l48 228h-293l31 143h292l18 83h-293l31 143h212l-224 651h238l185 -555l423 555h276l-502 -651h210l-31 -143h-290l-18 -83h291z" />
<glyph unicode="&#xa6;" horiz-adv-x="448" d="M116 -178v603h217v-603h-217zM116 643v605h217v-605h-217z" />
<glyph unicode="&#xa7;" horiz-adv-x="936" d="M5 -30h223q0 -46 39 -77.5t88 -31.5q57 0 93.5 30t36.5 86q0 78 -84 112l-150 59q-55 22 -96 59.5t-66 96.5t-25 133q0 235 210 322q-46 74 -46 161q0 163 90.5 254t273.5 91q49 0 96 -12.5t87.5 -37.5t71.5 -60t50.5 -84t22.5 -105h-223q-3 41 -40.5 67t-86.5 26 q-57 0 -93.5 -30.5t-36.5 -86.5q0 -78 84 -112l149 -58q85 -34 136 -107.5t51 -181.5q0 -237 -212 -325q49 -71 49 -158q0 -163 -91 -254t-273 -91q-63 0 -120.5 20.5t-103.5 59t-74 99.5t-30 136zM552 593l-55 22q-91 0 -155 -49.5t-64 -113.5q0 -31 9.5 -54.5t30.5 -41 t54 -30.5l53 -22q91 0 156 49.5t65 113.5q0 24 -5 43t-16.5 34.5t-29.5 27.5t-43 21z" />
<glyph unicode="&#xa8;" horiz-adv-x="769" d="M492 1236l-45 -208h-235l45 208h235zM841 1236l-45 -208h-235l45 208h235z" />
<glyph unicode="&#xa9;" horiz-adv-x="1389" d="M87 624q0 105 32.5 202.5t91.5 176.5t138 138t177 91.5t203 32.5q131 0 249.5 -50.5t204.5 -136.5t136.5 -204.5t50.5 -249.5t-50.5 -250t-136.5 -204.5t-204.5 -136t-249.5 -50.5t-250 50.5t-204.5 136t-136.5 204.5t-51 250zM280 624q0 -91 35.5 -173.5t95.5 -142.5 t143.5 -95.5t174.5 -35.5t174 35.5t142 95.5t94 142.5t35 173.5q0 121 -59 224t-161.5 163t-224.5 60q-91 0 -174.5 -35.5t-143.5 -95.5t-95.5 -142.5t-35.5 -173.5zM729 299q-126 0 -193 67t-67 178v153q0 72 28.5 126t87.5 85t144 31q125 0 192 -64t70 -173h-168 q-3 21 -15.5 37.5t-33 26t-45.5 9.5q-40 0 -67.5 -22t-27.5 -56v-153q0 -36 27.5 -58.5t67.5 -22.5q39 0 64.5 20t29.5 53h168q-2 -72 -31 -124.5t-88 -82.5t-143 -30z" />
<glyph unicode="&#xaa;" horiz-adv-x="598" d="M315 704q-77 0 -128 46t-51 112q0 59 30 102.5t78 62.5q30 10 58.5 16.5t64.5 10.5t61 6t77 4q-10 55 -83 55q-48 0 -75 -41h-167q30 92 87.5 138t165.5 46q72 0 124.5 -29.5t79 -80t26.5 -117.5q0 -20 -15 -96l-48 -225h-165l12 54q-50 -64 -132 -64zM349 843 q49 0 87 27t47 69q-47 0 -97 -5t-63 -11q-31 -12 -31 -43q0 -14 12.5 -25.5t44.5 -11.5z" />
<glyph unicode="&#xab;" horiz-adv-x="876" d="M313 109l-256 276l45 203l374 276l-68 -313l-123 -92l84 -90zM700 109l-256 276l44 203l374 276l-68 -313l-122 -92l83 -90z" />
<glyph unicode="&#xac;" d="M92 597h821v-517h-214v303h-607v214z" />
<glyph unicode="&#xad;" horiz-adv-x="658" d="M98 597h517l-45 -214h-517z" />
<glyph unicode="&#xae;" horiz-adv-x="1389" d="M87 624q0 105 32.5 202.5t91.5 176.5t138 138t177 91.5t203 32.5q131 0 249.5 -50.5t204.5 -136.5t136.5 -204.5t50.5 -249.5t-50.5 -250t-136.5 -204.5t-204.5 -136t-249.5 -50.5t-250 50.5t-204.5 136t-136.5 204.5t-51 250zM280 624q0 -91 35.5 -173.5t95.5 -142.5 t143.5 -95.5t174.5 -35.5t174 35.5t142 95.5t94 142.5t35 173.5q0 121 -59 224t-161.5 163t-224.5 60q-91 0 -174.5 -35.5t-143.5 -95.5t-95.5 -142.5t-35.5 -173.5zM1010 308h-190l-136 232h-38v-232h-165v622h296q105 0 159.5 -50.5t54.5 -143.5q0 -71 -32 -118t-93 -66z M646 766v-64h134q24 0 34.5 8t10.5 24.5t-10.5 24t-34.5 7.5h-134z" />
<glyph unicode="&#xaf;" horiz-adv-x="782" d="M250 1226h607l-41 -185h-607z" />
<glyph unicode="&#xb0;" horiz-adv-x="682" d="M162 978q0 115 81.5 196.5t196.5 81.5t196.5 -81.5t81.5 -196.5t-81.5 -196.5t-196.5 -81.5t-196.5 81.5t-81.5 196.5zM335 977.5q0 -44.5 30.5 -75.5t74.5 -31t74.5 31t30.5 76q0 29 -13.5 53.5t-38 39t-53.5 14.5q-44 0 -74.5 -31.5t-30.5 -76z" />
<glyph unicode="&#xb1;" d="M396 499h-304v214h304v207h213v-207h304v-214h-304v-207h-213v207zM92 214h821v-214h-821v214z" />
<glyph unicode="&#xb2;" horiz-adv-x="571" d="M82 714l30 143l335 262q27 22 44.5 40.5t27.5 40t10 44.5q0 26 -18 43t-60 17q-87 0 -100 -98h-164q12 59 31 101.5t50.5 75.5t79 49.5t111.5 16.5q99 0 165 -55t66 -145q0 -148 -139 -255l-182 -137h246l-29 -143h-504z" />
<glyph unicode="&#xb3;" horiz-adv-x="578" d="M364 704q-105 0 -167.5 53.5t-62.5 145.5v18h162q0 -1 -1 -6.5t-1 -6.5q0 -26 18 -43t60 -17q43 0 70 28t27 61q0 29 -22 46.5t-59 17.5h-63l32 145h63q50 0 80.5 25t30.5 73q0 26 -18 43t-61 17q-72 0 -92 -68h-164q15 53 34.5 90.5t50.5 66t75.5 42.5t104.5 14 q99 0 165 -55t66 -145q0 -43 -14.5 -81t-40.5 -65.5t-61 -41.5q44 -40 44 -119q0 -116 -69 -177t-187 -61z" />
<glyph unicode="&#xb4;" horiz-adv-x="571" d="M340 1248h306l-209 -231h-204z" />
<glyph unicode="&#xb6;" horiz-adv-x="1157" d="M428 534h-18q-83 0 -149.5 43.5t-102 115t-35.5 155.5q0 175 122 287.5t316 112.5h649l-297 -1403h-218l251 1185h-196l-251 -1185h-217z" />
<glyph unicode="&#xb7;" horiz-adv-x="551" d="M114 365l61 286h284l-60 -286h-285z" />
<glyph unicode="&#xb8;" horiz-adv-x="480" d="M-80 -282l102 282h197l-68 -282h-231z" />
<glyph unicode="&#xb9;" horiz-adv-x="401" d="M219 714l109 514l-164 -121l45 209l163 122h166l-153 -724h-166z" />
<glyph unicode="&#xba;" horiz-adv-x="588" d="M391 848q72 0 88 80q24 92 24 114q0 34 -17.5 55.5t-65.5 21.5q-68 0 -89 -82q-6 -25 -14.5 -65t-8.5 -47q0 -35 17 -56t66 -21zM379 704q-107 0 -168 63t-61 163q0 50 14 97q13 58 32 98.5t49.5 72.5t77 48t109.5 16q71 0 123.5 -29.5t79 -80t26.5 -117.5q0 -43 -15 -96 q-14 -58 -32.5 -98.5t-49 -73t-76.5 -48t-109 -15.5z" />
<glyph unicode="&#xbb;" horiz-adv-x="876" d="M185 864l257 -276l-44 -203l-375 -276l67 313l124 91l-84 91zM572 864l256 -276l-44 -203l-374 -276l68 313l122 91l-83 91z" />
<glyph unicode="&#xbc;" horiz-adv-x="1300" d="M214 524l109 513l-165 -121l45 210l164 122h165l-153 -724h-165zM971 1248h189l-857 -1248h-189zM918 0l32 150h-304l31 141l394 432h165l-92 -432h73l-27 -141h-75l-32 -150h-165zM886 291h92l32 139z" />
<glyph unicode="&#xbd;" horiz-adv-x="1385" d="M214 524l109 513l-165 -121l45 210l164 122h165l-153 -724h-165zM971 1248h189l-857 -1248h-189zM700 0l31 143l335 262q41 33 61.5 61.5t20.5 62.5q0 26 -18.5 43.5t-60.5 17.5q-87 0 -100 -98h-163q12 58 31 101t50.5 75.5t79 49t111.5 16.5t116 -24t83 -70t31 -106 q0 -147 -140 -254l-181 -137h246l-29 -143h-504z" />
<glyph unicode="&#xbe;" horiz-adv-x="1476" d="M360 513q-69 0 -121 24t-80.5 69.5t-28.5 106.5v18h162q0 -1 -0.5 -6.5t-0.5 -6.5q0 -26 18 -43t60 -17q43 0 69.5 27.5t26.5 60.5q0 20 -9.5 34.5t-28 22.5t-42.5 8h-64l32 144h64q50 0 80 25t30 73q0 26 -18 43.5t-60 17.5q-73 0 -92 -68h-165q15 53 35 90t50.5 65.5 t75 42.5t105.5 14q98 0 164 -54.5t66 -144.5q0 -65 -32 -116.5t-84 -73.5q45 -40 45 -117q0 -116 -69.5 -177.5t-187.5 -61.5zM1148 1248h188l-857 -1248h-188zM1092 0l32 150h-303l31 141l394 432h165l-92 -432h72l-26 -141h-75l-32 -150h-166zM1061 291h92l32 139z" />
<glyph unicode="&#xbf;" horiz-adv-x="908" d="M558 29h233q-24 -95 -58.5 -162.5t-87 -116t-127 -72t-173.5 -23.5q-162 0 -264.5 92t-102.5 233q0 121 45 207t142 160l111 86q10 8 26 20t22.5 17t16.5 14t14.5 15.5t9 16.5t7.5 22l2 7h235l-9 -39q-16 -74 -48.5 -122t-107.5 -106l-111 -86q-40 -31 -59.5 -48 t-37 -39.5t-23.5 -45.5t-6 -56q0 -65 38 -103.5t119 -38.5q76 0 126 43.5t68 124.5zM714 920l-60 -286h-285l61 286h284z" />
<glyph unicode="&#xc0;" horiz-adv-x="1113" d="M723 474l-58 408l-232 -408h290zM753 253h-447l-144 -253h-262l709 1248h229l179 -1248h-226zM463 1522h302l92 -194h-206z" />
<glyph unicode="&#xc1;" horiz-adv-x="1113" d="M723 474l-58 408l-232 -408h290zM753 253h-447l-144 -253h-262l709 1248h229l179 -1248h-226zM726 1522h309l-228 -194h-215z" />
<glyph unicode="&#xc2;" horiz-adv-x="1113" d="M723 474l-58 408l-232 -408h290zM753 253h-447l-144 -253h-262l709 1248h229l179 -1248h-226zM836 1328l-66 61l-91 -61h-271l274 194h197l192 -194h-235z" />
<glyph unicode="&#xc3;" horiz-adv-x="1113" d="M723 474l-58 408l-232 -408h290zM753 253h-447l-144 -253h-262l709 1248h229l179 -1248h-226zM900 1539h185q-19 -102 -72.5 -166.5t-139.5 -64.5q-59 0 -108 25l-49 23q-16 7 -32 7q-38 0 -57 -52h-185q19 102 73 167t139 65q60 0 109 -25l48 -23q16 -7 32 -7 q38 0 57 51z" />
<glyph unicode="&#xc4;" horiz-adv-x="1113" d="M723 474l-58 408l-232 -408h290zM753 253h-447l-144 -253h-262l709 1248h229l179 -1248h-226zM729 1529l-45 -208h-239l45 208h239zM1078 1529l-44 -208h-240l46 208h238z" />
<glyph unicode="&#xc5;" horiz-adv-x="1113" d="M723 474l-58 408l-232 -408h290zM753 253h-447l-144 -253h-262l709 1248h229l179 -1248h-226zM629 1423q0 55 38.5 94.5t92.5 39.5q55 0 94.5 -39.5t39.5 -94.5q0 -54 -39.5 -92.5t-94.5 -38.5q-54 0 -92.5 38.5t-38.5 92.5zM729 1423q0 -13 9 -22.5t22 -9.5t23 9.5 t10 22.5t-10 23t-23 10q-8 0 -15.5 -4.5t-11.5 -12t-4 -16.5z" />
<glyph unicode="&#xc6;" horiz-adv-x="1564" d="M727 1248h916l-50 -233h-519l-57 -269h520l-49 -231h-521l-60 -284h520l-48 -231h-757l60 284h-335l-190 -284h-267zM499 506h230l107 502z" />
<glyph unicode="&#xc7;" horiz-adv-x="1077" d="M272 -282l92 277q-141 30 -219.5 126.5t-78.5 223.5q0 25 6.5 70.5t18.5 108.5t21 105t23 107t15 68q18 87 43.5 154t68 126.5t99 98t138 60.5t185.5 22q97 0 176.5 -29.5t131 -80t79 -115.5t27.5 -139q0 -28 -8 -71h-235q4 22 4 30q0 85 -53 129.5t-152 44.5t-169.5 -59 t-93.5 -166q-1 -4 -17 -75t-30 -136t-27 -130.5t-13 -81.5q0 -84 53 -128t153 -44q93 0 161.5 53t96.5 150h240q-21 -94 -53 -164t-82.5 -128t-126 -92.5t-174.5 -44.5l-64 -270h-236z" />
<glyph unicode="&#xc8;" horiz-adv-x="959" d="M471 1015l-58 -269h521l-50 -231h-520l-61 -284h520l-48 -231h-758l265 1248h757l-50 -233h-518zM401 1522h301l92 -194h-206z" />
<glyph unicode="&#xc9;" horiz-adv-x="959" d="M471 1015l-58 -269h521l-50 -231h-520l-61 -284h520l-48 -231h-758l265 1248h757l-50 -233h-518zM663 1522h310l-228 -194h-216z" />
<glyph unicode="&#xca;" horiz-adv-x="959" d="M471 1015l-58 -269h521l-50 -231h-520l-61 -284h520l-48 -231h-758l265 1248h757l-50 -233h-518zM772 1328l-66 61l-91 -61h-271l275 194h195l193 -194h-235z" />
<glyph unicode="&#xcb;" horiz-adv-x="959" d="M471 1015l-58 -269h521l-50 -231h-520l-61 -284h520l-48 -231h-758l265 1248h757l-50 -233h-518zM666 1529l-44 -208h-239l45 208h238zM1015 1529l-44 -208h-238l44 208h238z" />
<glyph unicode="&#xcc;" horiz-adv-x="468" d="M519 1248l-264 -1248h-238l265 1248h237zM141 1522h301l92 -194h-206z" />
<glyph unicode="&#xcd;" horiz-adv-x="468" d="M519 1248l-264 -1248h-238l265 1248h237zM403 1522h310l-228 -194h-216z" />
<glyph unicode="&#xce;" horiz-adv-x="468" d="M519 1248l-264 -1248h-238l265 1248h237zM513 1328l-66 61l-90 -61h-272l275 194h196l192 -194h-235z" />
<glyph unicode="&#xcf;" horiz-adv-x="468" d="M519 1248l-264 -1248h-238l265 1248h237zM406 1529l-44 -208h-239l45 208h238zM755 1529l-44 -208h-239l45 208h238z" />
<glyph unicode="&#xd0;" horiz-adv-x="1152" d="M540 0h-503l114 540h-124l34 160h124l116 548h437q97 0 176.5 -29.5t130.5 -80t78.5 -116t27.5 -138.5q0 -25 -6 -67.5t-16.5 -98t-19 -96t-21 -97t-14.5 -64.5q-18 -87 -43.5 -154t-68 -126.5t-99 -98t-138 -60.5t-185.5 -22zM323 231h247q99 0 169.5 59t93.5 166 q2 6 16.5 70t27.5 123t24.5 118.5t11.5 75.5q0 84 -53 128t-153 44h-217l-68 -315h232l-34 -160h-232z" />
<glyph unicode="&#xd1;" horiz-adv-x="1170" d="M1222 1248l-265 -1248h-239l-283 847l-180 -847h-238l265 1248h238l284 -847l179 847h239zM927 1539h185q-19 -101 -73 -166t-139 -65q-60 0 -109 25l-48 23q-16 7 -32 7q-38 0 -57 -52h-185q19 102 72.5 167t138.5 65q60 0 109 -25l49 -23q16 -7 31 -7q39 0 58 51z" />
<glyph unicode="&#xd2;" horiz-adv-x="1095" d="M150 804q18 87 43.5 154t68 126.5t99 98t138 60.5t185.5 22q97 0 176.5 -29.5t131 -80t79 -115.5t27.5 -139q0 -24 -6.5 -70.5t-18.5 -106.5t-21.5 -106.5t-23 -105.5t-14.5 -68q-19 -88 -44.5 -155t-67.5 -126.5t-99 -97.5t-138.5 -60t-185.5 -22q-97 0 -176.5 29 t-130.5 79.5t-78.5 115.5t-27.5 138q0 25 6.5 70.5t18.5 108.5t21 105t23 107t15 68zM391 809q-1 -4 -17 -75t-30 -136t-27 -130.5t-13 -81.5q0 -84 53 -128t153 -44q99 0 169.5 58.5t93.5 165.5q1 3 17 75.5t30 136t26.5 129.5t12.5 81q0 85 -53 129.5t-152 44.5 t-169.5 -59t-93.5 -166zM454 1522h301l93 -194h-207z" />
<glyph unicode="&#xd3;" horiz-adv-x="1095" d="M150 804q18 87 43.5 154t68 126.5t99 98t138 60.5t185.5 22q97 0 176.5 -29.5t131 -80t79 -115.5t27.5 -139q0 -24 -6.5 -70.5t-18.5 -106.5t-21.5 -106.5t-23 -105.5t-14.5 -68q-19 -88 -44.5 -155t-67.5 -126.5t-99 -97.5t-138.5 -60t-185.5 -22q-97 0 -176.5 29 t-130.5 79.5t-78.5 115.5t-27.5 138q0 25 6.5 70.5t18.5 108.5t21 105t23 107t15 68zM391 809q-1 -4 -17 -75t-30 -136t-27 -130.5t-13 -81.5q0 -84 53 -128t153 -44q99 0 169.5 58.5t93.5 165.5q1 3 17 75.5t30 136t26.5 129.5t12.5 81q0 85 -53 129.5t-152 44.5 t-169.5 -59t-93.5 -166zM716 1522h311l-228 -194h-216z" />
<glyph unicode="&#xd4;" horiz-adv-x="1095" d="M150 804q18 87 43.5 154t68 126.5t99 98t138 60.5t185.5 22q97 0 176.5 -29.5t131 -80t79 -115.5t27.5 -139q0 -24 -6.5 -70.5t-18.5 -106.5t-21.5 -106.5t-23 -105.5t-14.5 -68q-19 -88 -44.5 -155t-67.5 -126.5t-99 -97.5t-138.5 -60t-185.5 -22q-97 0 -176.5 29 t-130.5 79.5t-78.5 115.5t-27.5 138q0 25 6.5 70.5t18.5 108.5t21 105t23 107t15 68zM391 809q-1 -4 -17 -75t-30 -136t-27 -130.5t-13 -81.5q0 -84 53 -128t153 -44q99 0 169.5 58.5t93.5 165.5q1 3 17 75.5t30 136t26.5 129.5t12.5 81q0 85 -53 129.5t-152 44.5 t-169.5 -59t-93.5 -166zM826 1328l-66 61l-90 -61h-271l274 194h196l193 -194h-236z" />
<glyph unicode="&#xd5;" horiz-adv-x="1095" d="M150 804q18 87 43.5 154t68 126.5t99 98t138 60.5t185.5 22q97 0 176.5 -29.5t131 -80t79 -115.5t27.5 -139q0 -24 -6.5 -70.5t-18.5 -106.5t-21.5 -106.5t-23 -105.5t-14.5 -68q-19 -88 -44.5 -155t-67.5 -126.5t-99 -97.5t-138.5 -60t-185.5 -22q-97 0 -176.5 29 t-130.5 79.5t-78.5 115.5t-27.5 138q0 25 6.5 70.5t18.5 108.5t21 105t23 107t15 68zM391 809q-1 -4 -17 -75t-30 -136t-27 -130.5t-13 -81.5q0 -84 53 -128t153 -44q99 0 169.5 58.5t93.5 165.5q1 3 17 75.5t30 136t26.5 129.5t12.5 81q0 85 -53 129.5t-152 44.5 t-169.5 -59t-93.5 -166zM891 1539h185q-19 -101 -73 -166t-139 -65q-59 0 -109 25l-48 23q-16 7 -32 7q-38 0 -56 -52h-186q19 102 72.5 167t139.5 65q59 0 108 -25l49 -23q16 -7 31 -7q39 0 58 51z" />
<glyph unicode="&#xd6;" horiz-adv-x="1095" d="M150 804q18 87 43.5 154t68 126.5t99 98t138 60.5t185.5 22q97 0 176.5 -29.5t131 -80t79 -115.5t27.5 -139q0 -24 -6.5 -70.5t-18.5 -106.5t-21.5 -106.5t-23 -105.5t-14.5 -68q-19 -88 -44.5 -155t-67.5 -126.5t-99 -97.5t-138.5 -60t-185.5 -22q-97 0 -176.5 29 t-130.5 79.5t-78.5 115.5t-27.5 138q0 25 6.5 70.5t18.5 108.5t21 105t23 107t15 68zM391 809q-1 -4 -17 -75t-30 -136t-27 -130.5t-13 -81.5q0 -84 53 -128t153 -44q99 0 169.5 58.5t93.5 165.5q1 3 17 75.5t30 136t26.5 129.5t12.5 81q0 85 -53 129.5t-152 44.5 t-169.5 -59t-93.5 -166zM719 1529l-44 -208h-238l44 208h238zM1069 1529l-44 -208h-239l44 208h239z" />
<glyph unicode="&#xd7;" d="M908 746l-256 -256l256 -255l-151 -151l-257 254l-254 -254l-151 151l254 255l-254 256l151 152l254 -257l257 257z" />
<glyph unicode="&#xd8;" horiz-adv-x="1105" d="M155 804q19 87 44.5 154t67.5 126.5t99 98t138.5 60.5t185.5 22q155 0 265 -75l111 134l129 -88l-134 -163q42 -77 42 -172q0 -24 -6.5 -70.5t-18.5 -106.5t-21.5 -106.5t-22.5 -105.5t-15 -68q-19 -88 -44.5 -155t-67.5 -126.5t-98.5 -97.5t-138.5 -60t-185 -22 q-156 0 -266 74l-109 -132l-130 85l134 163q-43 76 -43 172q0 25 6.5 70.5t19 108.5t21 105t22.5 107t15 68zM396 809q-69 -295 -85 -397l485 588q-53 34 -137 34q-99 0 -169 -59t-94 -166zM779 438q1 9 19.5 91.5t37 171.5t24.5 131l-482 -584q49 -34 137 -34 q99 0 169.5 58.5t94.5 165.5z" />
<glyph unicode="&#xd9;" horiz-adv-x="1137" d="M325 386q0 -84 53 -128t153 -44q99 0 170 59t95 165q14 58 56.5 260.5t78.5 375.5l36 174h237q-142 -674 -169 -804q-18 -88 -43.5 -155t-67.5 -126.5t-99 -97.5t-139 -60t-186 -22q-97 0 -177 29t-131 79t-79 115.5t-28 138.5q0 19 3.5 48t13 79.5t18.5 96.5t27 132.5 t31.5 150.5t40 187t45.5 209h236q-17 -82 -41 -195t-38.5 -179.5t-32 -149.5t-27.5 -132t-19 -97t-13 -73.5t-4 -35.5zM472 1522h301l93 -194h-207z" />
<glyph unicode="&#xda;" horiz-adv-x="1137" d="M325 386q0 -84 53 -128t153 -44q99 0 170 59t95 165q14 58 56.5 260.5t78.5 375.5l36 174h237q-142 -674 -169 -804q-18 -88 -43.5 -155t-67.5 -126.5t-99 -97.5t-139 -60t-186 -22q-97 0 -177 29t-131 79t-79 115.5t-28 138.5q0 19 3.5 48t13 79.5t18.5 96.5t27 132.5 t31.5 150.5t40 187t45.5 209h236q-17 -82 -41 -195t-38.5 -179.5t-32 -149.5t-27.5 -132t-19 -97t-13 -73.5t-4 -35.5zM736 1522h310l-228 -194h-216z" />
<glyph unicode="&#xdb;" horiz-adv-x="1137" d="M325 386q0 -84 53 -128t153 -44q99 0 170 59t95 165q14 58 56.5 260.5t78.5 375.5l36 174h237q-142 -674 -169 -804q-18 -88 -43.5 -155t-67.5 -126.5t-99 -97.5t-139 -60t-186 -22q-97 0 -177 29t-131 79t-79 115.5t-28 138.5q0 19 3.5 48t13 79.5t18.5 96.5t27 132.5 t31.5 150.5t40 187t45.5 209h236q-17 -82 -41 -195t-38.5 -179.5t-32 -149.5t-27.5 -132t-19 -97t-13 -73.5t-4 -35.5zM847 1328l-67 61l-90 -61h-272l275 194h196l192 -194h-234z" />
<glyph unicode="&#xdc;" horiz-adv-x="1137" d="M325 386q0 -84 53 -128t153 -44q99 0 170 59t95 165q14 58 56.5 260.5t78.5 375.5l36 174h237q-142 -674 -169 -804q-18 -88 -43.5 -155t-67.5 -126.5t-99 -97.5t-139 -60t-186 -22q-97 0 -177 29t-131 79t-79 115.5t-28 138.5q0 19 3.5 48t13 79.5t18.5 96.5t27 132.5 t31.5 150.5t40 187t45.5 209h236q-17 -82 -41 -195t-38.5 -179.5t-32 -149.5t-27.5 -132t-19 -97t-13 -73.5t-4 -35.5zM740 1529l-45 -208h-239l44 208h240zM1088 1529l-44 -208h-238l44 208h238z" />
<glyph unicode="&#xdd;" horiz-adv-x="1077" d="M658 454l-97 -454h-238l95 454l-272 794h246l180 -542l409 542h287zM709 1522h310l-228 -194h-215z" />
<glyph unicode="&#xde;" horiz-adv-x="1063" d="M345 428h259q64 0 121 25.5t94.5 76.5t37.5 118q0 44 -19.5 83t-63 66.5t-102.5 27.5h-242zM296 196l-41 -196h-238l265 1248h237l-41 -192h241q86 0 158.5 -34t119.5 -89.5t73 -124.5t26 -142q0 -149 -63 -255t-181.5 -160.5t-285.5 -54.5h-270z" />
<glyph unicode="&#xdf;" horiz-adv-x="984" d="M515 573h-66l41 190h44q69 0 121 56t52 121q0 24 -8.5 46t-23.5 38t-37.5 25.5t-47.5 9.5q-61 0 -100 -38t-52 -100l-195 -921h-234l196 923q19 89 48.5 151t78 106t118.5 64.5t167 20.5q60 0 113 -20t89.5 -53t63.5 -74.5t39.5 -84.5t12.5 -83q0 -180 -133 -278 q30 -25 53 -56t36 -64t19 -66t6 -66q0 -213 -125 -325t-347 -112q-67 0 -118 8l48 223q28 -25 97 -25q91 0 154 59.5t63 150.5q0 37 -13 69.5t-36 55.5t-55 36t-69 13z" />
<glyph unicode="&#xe0;" horiz-adv-x="1000" d="M563 0l20 95q-9 -17 -26 -34.5t-42.5 -36t-63 -30t-79.5 -11.5q-51 0 -96 14t-78.5 39t-59.5 58.5t-42.5 72t-24.5 79.5t-8 82q0 52 37 244q40 191 135 281.5t257 90.5q87 0 149.5 -35.5t92.5 -95.5l23 107h236l-194 -920h-236zM639 365q43 199 43 216q0 152 -157 152 q-51 0 -90.5 -20.5t-65.5 -58.5t-38 -93q-42 -199 -42 -216q0 -151 156 -151q52 0 91.5 20t65.5 58.5t37 92.5zM355 1248h297l59 -231h-194z" />
<glyph unicode="&#xe1;" horiz-adv-x="1000" d="M563 0l20 95q-9 -17 -26 -34.5t-42.5 -36t-63 -30t-79.5 -11.5q-51 0 -96 14t-78.5 39t-59.5 58.5t-42.5 72t-24.5 79.5t-8 82q0 52 37 244q40 191 135 281.5t257 90.5q87 0 149.5 -35.5t92.5 -95.5l23 107h236l-194 -920h-236zM639 365q43 199 43 216q0 152 -157 152 q-51 0 -90.5 -20.5t-65.5 -58.5t-38 -93q-42 -199 -42 -216q0 -151 156 -151q52 0 91.5 20t65.5 58.5t37 92.5zM573 1248h307l-210 -231h-203z" />
<glyph unicode="&#xe2;" horiz-adv-x="1000" d="M563 0l20 95q-9 -17 -26 -34.5t-42.5 -36t-63 -30t-79.5 -11.5q-51 0 -96 14t-78.5 39t-59.5 58.5t-42.5 72t-24.5 79.5t-8 82q0 52 37 244q40 191 135 281.5t257 90.5q87 0 149.5 -35.5t92.5 -95.5l23 107h236l-194 -920h-236zM639 365q43 199 43 216q0 152 -157 152 q-51 0 -90.5 -20.5t-65.5 -58.5t-38 -93q-42 -199 -42 -216q0 -151 156 -151q52 0 91.5 20t65.5 58.5t37 92.5zM759 1248l176 -231h-228l-69 81l-104 -81h-262l273 231h214z" />
<glyph unicode="&#xe3;" horiz-adv-x="1000" d="M563 0l20 95q-9 -17 -26 -34.5t-42.5 -36t-63 -30t-79.5 -11.5q-51 0 -96 14t-78.5 39t-59.5 58.5t-42.5 72t-24.5 79.5t-8 82q0 52 37 244q40 191 135 281.5t257 90.5q87 0 149.5 -35.5t92.5 -95.5l23 107h236l-194 -920h-236zM639 365q43 199 43 216q0 152 -157 152 q-51 0 -90.5 -20.5t-65.5 -58.5t-38 -93q-42 -199 -42 -216q0 -151 156 -151q52 0 91.5 20t65.5 58.5t37 92.5zM479 1019h-173q19 101 73 166.5t140 65.5q56 0 108 -27l48 -23q20 -9 43 -9q15 0 32 14t25 42h175q-9 -49 -26.5 -89.5t-43 -73.5t-62 -51.5t-80.5 -18.5 q-56 0 -109 27l-48 24q-20 8 -43 8q-16 0 -32.5 -13.5t-26.5 -41.5z" />
<glyph unicode="&#xe4;" horiz-adv-x="1000" d="M563 0l20 95q-9 -17 -26 -34.5t-42.5 -36t-63 -30t-79.5 -11.5q-51 0 -96 14t-78.5 39t-59.5 58.5t-42.5 72t-24.5 79.5t-8 82q0 52 37 244q40 191 135 281.5t257 90.5q87 0 149.5 -35.5t92.5 -95.5l23 107h236l-194 -920h-236zM639 365q43 199 43 216q0 152 -157 152 q-51 0 -90.5 -20.5t-65.5 -58.5t-38 -93q-42 -199 -42 -216q0 -151 156 -151q52 0 91.5 20t65.5 58.5t37 92.5zM593 1236l-44 -208h-236l45 208h235zM942 1236l-44 -208h-235l44 208h235z" />
<glyph unicode="&#xe5;" horiz-adv-x="1000" d="M563 0l20 95q-9 -17 -26 -34.5t-42.5 -36t-63 -30t-79.5 -11.5q-51 0 -96 14t-78.5 39t-59.5 58.5t-42.5 72t-24.5 79.5t-8 82q0 52 37 244q40 191 135 281.5t257 90.5q87 0 149.5 -35.5t92.5 -95.5l23 107h236l-194 -920h-236zM639 365q43 199 43 216q0 152 -157 152 q-51 0 -90.5 -20.5t-65.5 -58.5t-38 -93q-42 -199 -42 -216q0 -151 156 -151q52 0 91.5 20t65.5 58.5t37 92.5zM495 1131q0 55 39 94.5t93 39.5q36 0 67 -18t48.5 -49t17.5 -67q0 -55 -39 -93t-94 -38t-93.5 38t-38.5 93zM592 1131q0 -15 10 -25t25 -10t25.5 10t10.5 25 t-10.5 25.5t-25.5 10.5t-25 -10.5t-10 -25.5z" />
<glyph unicode="&#xe6;" horiz-adv-x="1552" d="M688 592v7q0 59 -38.5 99t-120.5 40q-58 0 -102 -28.5t-70 -78.5h-238q50 159 150 236t278 77q84 0 155.5 -32t117.5 -86q107 118 309 118q166 0 266.5 -96t100.5 -251q0 -65 -35 -216h-584q-6 -35 -6 -41q0 -151 157 -151q119 0 173 107h237q-50 -160 -150 -236.5 t-278 -76.5q-111 0 -193 43t-129 122q-112 -165 -346 -165q-134 0 -219.5 77t-85.5 186q0 107 53 179.5t150 105.5q63 21 141 33.5t137.5 17t169.5 10.5zM331 362q-35 -15 -51 -36.5t-16 -54.5q0 -17 6.5 -31.5t20.5 -27.5t40 -20.5t61 -7.5q92 0 161 51.5t88 136.5l5 26 q-88 -5 -135 -8t-101.5 -10.5t-78.5 -17.5zM1268 570v16q0 152 -156 152q-50 0 -89.5 -20.5t-65.5 -58t-39 -89.5h350z" />
<glyph unicode="&#xe7;" horiz-adv-x="959" d="M209 -282l99 280q-114 31 -179.5 119t-65.5 213q0 62 37 224q23 99 57 169t87 121t128.5 75.5t176.5 24.5q165 0 266 -95.5t101 -249.5v-7h-228v7q0 60 -38.5 99.5t-118.5 39.5q-77 0 -127 -44.5t-67 -127.5q-46 -215 -46 -226q0 -151 156 -151q70 0 117.5 38t69.5 108 h235q-18 -64 -40 -114t-53 -92t-70 -70.5t-89.5 -47t-111.5 -25.5l-65 -268h-231z" />
<glyph unicode="&#xe8;" horiz-adv-x="972" d="M880 381h-584q-5 -30 -5 -41q0 -151 156 -151q120 0 173 107h237q-50 -160 -149.5 -236.5t-277.5 -76.5q-166 0 -266.5 95.5t-100.5 251.5q0 62 37 224q23 99 57 169t87 121t128.5 75.5t176.5 24.5q165 0 266 -96t101 -251q0 -65 -36 -216zM688 570v16q0 152 -157 152 q-75 0 -125 -44.5t-69 -123.5h351zM376 1248h297l60 -231h-195z" />
<glyph unicode="&#xe9;" horiz-adv-x="972" d="M880 381h-584q-5 -30 -5 -41q0 -151 156 -151q120 0 173 107h237q-50 -160 -149.5 -236.5t-277.5 -76.5q-166 0 -266.5 95.5t-100.5 251.5q0 62 37 224q23 99 57 169t87 121t128.5 75.5t176.5 24.5q165 0 266 -96t101 -251q0 -65 -36 -216zM688 570v16q0 152 -157 152 q-75 0 -125 -44.5t-69 -123.5h351zM579 1248h307l-211 -231h-203z" />
<glyph unicode="&#xea;" horiz-adv-x="972" d="M880 381h-584q-5 -30 -5 -41q0 -151 156 -151q120 0 173 107h237q-50 -160 -149.5 -236.5t-277.5 -76.5q-166 0 -266.5 95.5t-100.5 251.5q0 62 37 224q23 99 57 169t87 121t128.5 75.5t176.5 24.5q165 0 266 -96t101 -251q0 -65 -36 -216zM688 570v16q0 152 -157 152 q-75 0 -125 -44.5t-69 -123.5h351zM763 1248l176 -231h-228l-70 81l-103 -81h-262l273 231h214z" />
<glyph unicode="&#xeb;" horiz-adv-x="972" d="M880 381h-584q-5 -30 -5 -41q0 -151 156 -151q120 0 173 107h237q-50 -160 -149.5 -236.5t-277.5 -76.5q-166 0 -266.5 95.5t-100.5 251.5q0 62 37 224q23 99 57 169t87 121t128.5 75.5t176.5 24.5q165 0 266 -96t101 -251q0 -65 -36 -216zM688 570v16q0 152 -157 152 q-75 0 -125 -44.5t-69 -123.5h351zM595 1236l-44 -208h-236l45 208h235zM944 1236l-44 -208h-235l44 208h235z" />
<glyph unicode="&#xec;" horiz-adv-x="448" d="M440 920l-196 -920h-235l196 920h235zM110 1248h298l59 -231h-195z" />
<glyph unicode="&#xed;" horiz-adv-x="448" d="M440 920l-196 -920h-235l196 920h235zM311 1248h308l-211 -231h-203z" />
<glyph unicode="&#xee;" horiz-adv-x="555" d="M493 920l-195 -920h-235l195 920h235zM551 1248l176 -231h-228l-69 81l-104 -81h-262l273 231h214z" />
<glyph unicode="&#xef;" horiz-adv-x="520" d="M476 920l-196 -920h-236l196 920h236zM369 1236l-44 -208h-236l45 208h235zM718 1236l-45 -208h-235l45 208h235z" />
<glyph unicode="&#xf0;" horiz-adv-x="977" d="M879 372q-23 -98 -57.5 -168.5t-87 -121t-128 -75t-176.5 -24.5q-166 0 -266.5 95.5t-100.5 251.5q0 62 37 224q22 96 54.5 164.5t82.5 119t121.5 77t166.5 29.5l-32 63h-253l31 142h147l-49 99h258l50 -99h190l-29 -142h-88l105 -203q2 -4 12.5 -24.5t13.5 -26.5 t11 -24.5t10.5 -29t6.5 -28.5t5.5 -36t1.5 -38q0 -63 -37 -225zM337 566q-46 -210 -46 -236q0 -63 38 -102t118 -39q77 0 126.5 44.5t67.5 126.5q47 214 47 237q0 24 -5.5 44.5t-17.5 38.5t-30 30.5t-44.5 20t-59.5 7.5q-77 0 -126 -44.5t-68 -127.5z" />
<glyph unicode="&#xf1;" horiz-adv-x="1020" d="M905 355l-77 -355h-235l79 365q8 40 17 81t13 59.5t8 36.5t5 26t1 13q0 152 -157 152q-77 0 -126.5 -44.5t-67.5 -127.5l-121 -561h-235l196 920h235l-20 -88q9 16 26 34t43 36.5t63.5 30t79.5 11.5q56 0 103 -14t80 -39.5t58 -58.5t40 -72t22 -79.5t7 -81.5 q0 -74 -37 -244zM513 1019h-173q19 101 73 166.5t139 65.5q56 0 109 -27l48 -23q20 -9 43 -9q15 0 32 14t25 42h174q-19 -102 -72.5 -167.5t-138.5 -65.5q-56 0 -109 27l-48 24q-20 8 -43 8q-16 0 -32.5 -13.5t-26.5 -41.5z" />
<glyph unicode="&#xf2;" horiz-adv-x="977" d="M879 372q-23 -98 -57.5 -168.5t-87 -121t-128 -75t-176.5 -24.5q-166 0 -266.5 95.5t-100.5 251.5q0 62 37 224q23 99 57 169t87 121t128.5 75.5t176.5 24.5q165 0 266 -96t101 -251q0 -63 -37 -225zM337 566q-46 -210 -46 -236q0 -63 38 -102t118 -39q77 0 126.5 44.5 t67.5 126.5q47 214 47 237q0 24 -5.5 44.5t-17.5 38.5t-30 30.5t-44.5 20t-59.5 7.5q-77 0 -126 -44.5t-68 -127.5zM374 1248h298l59 -231h-195z" />
<glyph unicode="&#xf3;" horiz-adv-x="977" d="M879 372q-23 -98 -57.5 -168.5t-87 -121t-128 -75t-176.5 -24.5q-166 0 -266.5 95.5t-100.5 251.5q0 62 37 224q23 99 57 169t87 121t128.5 75.5t176.5 24.5q165 0 266 -96t101 -251q0 -63 -37 -225zM337 566q-46 -210 -46 -236q0 -63 38 -102t118 -39q77 0 126.5 44.5 t67.5 126.5q47 214 47 237q0 24 -5.5 44.5t-17.5 38.5t-30 30.5t-44.5 20t-59.5 7.5q-77 0 -126 -44.5t-68 -127.5zM578 1248h306l-211 -231h-202z" />
<glyph unicode="&#xf4;" horiz-adv-x="977" d="M879 372q-23 -98 -57.5 -168.5t-87 -121t-128 -75t-176.5 -24.5q-166 0 -266.5 95.5t-100.5 251.5q0 62 37 224q23 99 57 169t87 121t128.5 75.5t176.5 24.5q165 0 266 -96t101 -251q0 -63 -37 -225zM337 566q-46 -210 -46 -236q0 -63 38 -102t118 -39q77 0 126.5 44.5 t67.5 126.5q47 214 47 237q0 24 -5.5 44.5t-17.5 38.5t-30 30.5t-44.5 20t-59.5 7.5q-77 0 -126 -44.5t-68 -127.5zM763 1248l176 -231h-228l-70 81l-103 -81h-262l273 231h214z" />
<glyph unicode="&#xf5;" horiz-adv-x="977" d="M879 372q-23 -98 -57.5 -168.5t-87 -121t-128 -75t-176.5 -24.5q-166 0 -266.5 95.5t-100.5 251.5q0 62 37 224q23 99 57 169t87 121t128.5 75.5t176.5 24.5q165 0 266 -96t101 -251q0 -63 -37 -225zM337 566q-46 -210 -46 -236q0 -63 38 -102t118 -39q77 0 126.5 44.5 t67.5 126.5q47 214 47 237q0 24 -5.5 44.5t-17.5 38.5t-30 30.5t-44.5 20t-59.5 7.5q-77 0 -126 -44.5t-68 -127.5zM485 1019h-174q20 101 73.5 166.5t139.5 65.5q56 0 108 -27l48 -23q21 -9 43 -9q16 0 32.5 14t24.5 42h175q-12 -66 -38 -116.5t-71 -83.5t-103 -33 q-56 0 -109 27l-48 24q-20 8 -42 8q-16 0 -33 -13.5t-26 -41.5z" />
<glyph unicode="&#xf6;" horiz-adv-x="977" d="M879 372q-23 -98 -57.5 -168.5t-87 -121t-128 -75t-176.5 -24.5q-166 0 -266.5 95.5t-100.5 251.5q0 62 37 224q23 99 57 169t87 121t128.5 75.5t176.5 24.5q165 0 266 -96t101 -251q0 -63 -37 -225zM337 566q-46 -210 -46 -236q0 -63 38 -102t118 -39q77 0 126.5 44.5 t67.5 126.5q47 214 47 237q0 24 -5.5 44.5t-17.5 38.5t-30 30.5t-44.5 20t-59.5 7.5q-77 0 -126 -44.5t-68 -127.5zM597 1236l-45 -208h-234l44 208h235zM946 1236l-45 -208h-235l45 208h235z" />
<glyph unicode="&#xf7;" d="M372 800q0 54 38.5 91t92.5 37q53 0 90.5 -37t37.5 -91q0 -53 -37.5 -91.5t-90.5 -38.5q-54 0 -92.5 38.5t-38.5 91.5zM372 182q0 53 38.5 90.5t92.5 37.5q53 0 90.5 -37.5t37.5 -90.5q0 -35 -17 -65t-46.5 -48t-64.5 -18q-54 0 -92.5 38.5t-38.5 92.5zM92 597h821v-214 h-821v214z" />
<glyph unicode="&#xf8;" horiz-adv-x="988" d="M884 372q-23 -98 -57 -168.5t-87 -121t-128.5 -75t-176.5 -24.5q-136 0 -230 65l-113 -123l-108 82l128 141q-44 79 -44 182q0 62 37 224q23 99 57.5 169t87 121t128 75.5t176.5 24.5q134 0 230 -67l114 124l109 -81l-132 -143q46 -78 46 -180q0 -63 -37 -225zM342 566 q-41 -185 -46 -219l338 367q-42 24 -98 24q-77 0 -126 -44.5t-68 -127.5zM646 360q5 22 15.5 68.5t19 86t11.5 61.5l-337 -365q39 -22 97 -22q77 0 127 44.5t67 126.5z" />
<glyph unicode="&#xf9;" horiz-adv-x="1011" d="M461 194q72 0 120.5 45t66.5 126l120 555h235l-196 -920h-235l21 95q-7 -15 -24.5 -32.5t-44 -36t-64.5 -31t-79 -12.5q-75 0 -134 29t-94.5 78t-54 107.5t-18.5 121.5q0 81 34 235l78 366h236l-77 -359q-43 -185 -43 -216q0 -69 36 -110t117 -41zM388 1248h298l59 -231 h-194z" />
<glyph unicode="&#xfa;" horiz-adv-x="1011" d="M461 194q72 0 120.5 45t66.5 126l120 555h235l-196 -920h-235l21 95q-7 -15 -24.5 -32.5t-44 -36t-64.5 -31t-79 -12.5q-75 0 -134 29t-94.5 78t-54 107.5t-18.5 121.5q0 81 34 235l78 366h236l-77 -359q-43 -185 -43 -216q0 -69 36 -110t117 -41zM590 1248h306 l-210 -231h-203z" />
<glyph unicode="&#xfb;" horiz-adv-x="1011" d="M461 194q72 0 120.5 45t66.5 126l120 555h235l-196 -920h-235l21 95q-7 -15 -24.5 -32.5t-44 -36t-64.5 -31t-79 -12.5q-75 0 -134 29t-94.5 78t-54 107.5t-18.5 121.5q0 81 34 235l78 366h236l-77 -359q-43 -185 -43 -216q0 -69 36 -110t117 -41zM775 1248l177 -231 h-229l-69 81l-103 -81h-262l272 231h214z" />
<glyph unicode="&#xfc;" horiz-adv-x="1011" d="M461 194q72 0 120.5 45t66.5 126l120 555h235l-196 -920h-235l21 95q-7 -15 -24.5 -32.5t-44 -36t-64.5 -31t-79 -12.5q-75 0 -134 29t-94.5 78t-54 107.5t-18.5 121.5q0 81 34 235l78 366h236l-77 -359q-43 -185 -43 -216q0 -69 36 -110t117 -41zM607 1236l-44 -208 h-235l44 208h235zM957 1236l-44 -208h-236l44 208h236z" />
<glyph unicode="&#xfd;" horiz-adv-x="874" d="M218 7l-136 913h236l76 -580l324 580h269l-575 -1007q-10 -16 -25.5 -44.5t-24 -42.5t-22.5 -37t-24 -34.5t-26 -27.5t-31 -24t-34.5 -16.5t-42.5 -11.5t-50 -3h-173l41 207h98q50 0 72 41zM525 1248h307l-210 -231h-204z" />
<glyph unicode="&#xfe;" horiz-adv-x="1004" d="M510 1248l-90 -416q7 13 18.5 26.5t31 29.5t42 28t54 20t65.5 8q51 0 96 -14.5t78.5 -39.5t59.5 -58t42.5 -72t24.5 -79.5t8 -81.5q0 -52 -37 -244q-27 -128 -77.5 -210t-128 -122t-185.5 -40q-88 0 -150 35.5t-93 95.5l-94 -442h-236l335 1576h236zM364 561 q-43 -199 -43 -216q0 -151 157 -151q77 0 126.5 44.5t67.5 126.5q42 199 42 216q0 152 -156 152q-77 0 -127 -44.5t-67 -127.5z" />
<glyph unicode="&#xff;" horiz-adv-x="874" d="M218 7l-136 913h236l76 -580l324 580h269l-575 -1007q-10 -16 -25.5 -44.5t-24 -42.5t-22.5 -37t-24 -34.5t-26 -27.5t-31 -24t-34.5 -16.5t-42.5 -11.5t-50 -3h-173l41 207h98q50 0 72 41zM545 1236l-45 -208h-235l45 208h235zM894 1236l-44 -208h-235l44 208h235z" />
<glyph unicode="&#x100;" horiz-adv-x="1113" d="M723 474l-58 408l-232 -408h290zM753 253h-447l-144 -253h-262l709 1248h229l179 -1248h-226zM479 1520h608l-41 -189h-608z" />
<glyph unicode="&#x101;" horiz-adv-x="1000" d="M563 0l20 95q-9 -17 -26 -34.5t-42.5 -36t-63 -30t-79.5 -11.5q-51 0 -96 14t-78.5 39t-59.5 58.5t-42.5 72t-24.5 79.5t-8 82q0 52 37 244q40 191 135 281.5t257 90.5q87 0 149.5 -35.5t92.5 -95.5l23 107h236l-194 -920h-236zM639 365q43 199 43 216q0 152 -157 152 q-51 0 -90.5 -20.5t-65.5 -58.5t-38 -93q-42 -199 -42 -216q0 -151 156 -151q52 0 91.5 20t65.5 58.5t37 92.5zM374 1226h607l-41 -185h-607z" />
<glyph unicode="&#x102;" horiz-adv-x="1113" d="M723 474l-58 408l-232 -408h290zM753 253h-447l-144 -253h-262l709 1248h229l179 -1248h-226zM862 1479q18 0 33 12.5t19 30.5h180q-18 -82 -86.5 -138t-150.5 -56h-235q-82 0 -127 56t-28 138h159q-3 -12 0.5 -22t12.5 -15.5t20 -5.5h203z" />
<glyph unicode="&#x103;" horiz-adv-x="1000" d="M563 0l20 95q-9 -17 -26 -34.5t-42.5 -36t-63 -30t-79.5 -11.5q-51 0 -96 14t-78.5 39t-59.5 58.5t-42.5 72t-24.5 79.5t-8 82q0 52 37 244q40 191 135 281.5t257 90.5q87 0 149.5 -35.5t92.5 -95.5l23 107h236l-194 -920h-236zM639 365q43 199 43 216q0 152 -157 152 q-51 0 -90.5 -20.5t-65.5 -58.5t-38 -93q-42 -199 -42 -216q0 -151 156 -151q52 0 91.5 20t65.5 58.5t37 92.5zM547 1017q-82 0 -134.5 52.5t-52.5 131.5q0 23 5 47h155q-1 -7 -1 -19q0 -19 14.5 -32.5t38.5 -13.5h168q26 0 48.5 19t27.5 46h177q-14 -62 -56 -115.5 t-101.5 -84.5t-121.5 -31h-167z" />
<glyph unicode="&#x104;" horiz-adv-x="1113" d="M791 0l-38 253h-447l-144 -253h-262l709 1248h229l179 -1248l-36 -21q-38 -23 -56 -34.5t-40.5 -28t-31 -30t-8.5 -27.5q0 -27 41 -27t101 27l-35 -163q-63 -33 -152 -33q-51 0 -97 16.5t-78 53.5t-32 87q0 61 54 108t144 72zM723 474l-58 408l-232 -408h290z" />
<glyph unicode="&#x105;" horiz-adv-x="1000" d="M563 0l20 95q-9 -17 -26 -34.5t-42.5 -36t-63 -30t-79.5 -11.5q-51 0 -96 14t-78.5 39t-59.5 58.5t-42.5 72t-24.5 79.5t-8 82q0 52 37 244q40 191 135 281.5t257 90.5q87 0 149.5 -35.5t92.5 -95.5l23 107h236l-194 -920q-16 -9 -40.5 -23.5t-38 -22.5t-32 -20 t-28.5 -20t-20 -17.5t-14 -19t-4 -18.5q0 -30 44 -30q34 0 102 30l-35 -163q-63 -33 -152 -33q-51 0 -97 16.5t-78 53.5t-32 87q0 61 50 106.5t139 73.5zM639 365q43 199 43 216q0 152 -157 152q-51 0 -90.5 -20.5t-65.5 -58.5t-38 -93q-42 -199 -42 -216q0 -151 156 -151 q52 0 91.5 20t65.5 58.5t37 92.5z" />
<glyph unicode="&#x106;" horiz-adv-x="1077" d="M1090 830h-235q4 22 4 30q0 85 -53 129.5t-152 44.5t-169.5 -59t-93.5 -166q-1 -4 -17 -75t-30 -136t-27 -130.5t-13 -81.5q0 -84 53 -128t153 -44q93 0 161.5 53t96.5 150h240q-19 -83 -45.5 -146.5t-69 -119t-98.5 -92t-135.5 -56.5t-180.5 -20q-97 0 -176.5 29 t-130.5 79.5t-78.5 115.5t-27.5 138q0 25 6.5 70.5t18.5 108.5t21 105t23 107t15 68q18 87 43.5 154t68 126.5t99 98t138 60.5t185.5 22q97 0 176.5 -29.5t131 -80t79 -115.5t27.5 -139q0 -28 -8 -71zM716 1522h311l-228 -194h-216z" />
<glyph unicode="&#x107;" horiz-adv-x="959" d="M916 599v-7h-228v7q0 60 -38.5 99.5t-118.5 39.5q-77 0 -127 -44.5t-67 -127.5q-46 -215 -46 -226q0 -151 156 -151q70 0 117.5 38t69.5 108h235q-24 -89 -59 -152.5t-87 -109.5t-124.5 -68t-168.5 -22q-166 0 -266.5 95.5t-100.5 251.5q0 62 37 224q23 99 57 169t87 121 t128.5 75.5t176.5 24.5q165 0 266 -95.5t101 -249.5zM578 1248h306l-211 -231h-202z" />
<glyph unicode="&#x108;" horiz-adv-x="1077" d="M1090 830h-235q4 22 4 30q0 85 -53 129.5t-152 44.5t-169.5 -59t-93.5 -166q-1 -4 -17 -75t-30 -136t-27 -130.5t-13 -81.5q0 -84 53 -128t153 -44q93 0 161.5 53t96.5 150h240q-19 -83 -45.5 -146.5t-69 -119t-98.5 -92t-135.5 -56.5t-180.5 -20q-97 0 -176.5 29 t-130.5 79.5t-78.5 115.5t-27.5 138q0 25 6.5 70.5t18.5 108.5t21 105t23 107t15 68q18 87 43.5 154t68 126.5t99 98t138 60.5t185.5 22q97 0 176.5 -29.5t131 -80t79 -115.5t27.5 -139q0 -28 -8 -71zM825 1328l-66 61l-91 -61h-270l274 194h195l194 -194h-236z" />
<glyph unicode="&#x109;" horiz-adv-x="959" d="M916 599v-7h-228v7q0 60 -38.5 99.5t-118.5 39.5q-77 0 -127 -44.5t-67 -127.5q-46 -215 -46 -226q0 -151 156 -151q70 0 117.5 38t69.5 108h235q-24 -89 -59 -152.5t-87 -109.5t-124.5 -68t-168.5 -22q-166 0 -266.5 95.5t-100.5 251.5q0 62 37 224q23 99 57 169t87 121 t128.5 75.5t176.5 24.5q165 0 266 -95.5t101 -249.5zM763 1248l176 -231h-228l-70 81l-103 -81h-262l273 231h214z" />
<glyph unicode="&#x10a;" horiz-adv-x="1077" d="M1090 830h-235q4 22 4 30q0 85 -53 129.5t-152 44.5t-169.5 -59t-93.5 -166q-1 -4 -17 -75t-30 -136t-27 -130.5t-13 -81.5q0 -84 53 -128t153 -44q93 0 161.5 53t96.5 150h240q-19 -83 -45.5 -146.5t-69 -119t-98.5 -92t-135.5 -56.5t-180.5 -20q-97 0 -176.5 29 t-130.5 79.5t-78.5 115.5t-27.5 138q0 25 6.5 70.5t18.5 108.5t21 105t23 107t15 68q18 87 43.5 154t68 126.5t99 98t138 60.5t185.5 22q97 0 176.5 -29.5t131 -80t79 -115.5t27.5 -139q0 -28 -8 -71zM894 1529l-44 -208h-239l45 208h238z" />
<glyph unicode="&#x10b;" horiz-adv-x="959" d="M916 599v-7h-228v7q0 60 -38.5 99.5t-118.5 39.5q-77 0 -127 -44.5t-67 -127.5q-46 -215 -46 -226q0 -151 156 -151q70 0 117.5 38t69.5 108h235q-24 -89 -59 -152.5t-87 -109.5t-124.5 -68t-168.5 -22q-166 0 -266.5 95.5t-100.5 251.5q0 62 37 224q23 99 57 169t87 121 t128.5 75.5t176.5 24.5q165 0 266 -95.5t101 -249.5zM770 1236l-44 -208h-236l44 208h236z" />
<glyph unicode="&#x10c;" horiz-adv-x="1077" d="M1090 830h-235q4 22 4 30q0 85 -53 129.5t-152 44.5t-169.5 -59t-93.5 -166q-1 -4 -17 -75t-30 -136t-27 -130.5t-13 -81.5q0 -84 53 -128t153 -44q93 0 161.5 53t96.5 150h240q-19 -83 -45.5 -146.5t-69 -119t-98.5 -92t-135.5 -56.5t-180.5 -20q-97 0 -176.5 29 t-130.5 79.5t-78.5 115.5t-27.5 138q0 25 6.5 70.5t18.5 108.5t21 105t23 107t15 68q18 87 43.5 154t68 126.5t99 98t138 60.5t185.5 22q97 0 176.5 -29.5t131 -80t79 -115.5t27.5 -139q0 -28 -8 -71zM675 1522l66 -63l91 63h271l-275 -194h-196l-192 194h235z" />
<glyph unicode="&#x10d;" horiz-adv-x="959" d="M916 599v-7h-228v7q0 60 -38.5 99.5t-118.5 39.5q-77 0 -127 -44.5t-67 -127.5q-46 -215 -46 -226q0 -151 156 -151q70 0 117.5 38t69.5 108h235q-24 -89 -59 -152.5t-87 -109.5t-124.5 -68t-168.5 -22q-166 0 -266.5 95.5t-100.5 251.5q0 62 37 224q23 99 57 169t87 121 t128.5 75.5t176.5 24.5q165 0 266 -95.5t101 -249.5zM500 1017l-175 231h227l70 -81l104 81h261l-273 -231h-214z" />
<glyph unicode="&#x10e;" horiz-adv-x="1132" d="M520 0h-503l265 1248h436q97 0 176.5 -29.5t130.5 -80t78.5 -116t27.5 -138.5q0 -25 -6 -67.5t-16.5 -98t-19 -96t-21 -97t-14.5 -64.5q-18 -87 -43.5 -154t-68 -126.5t-99 -98t-138 -60.5t-185.5 -22zM303 231h248q99 0 169 59t94 166q1 4 15.5 69.5t27.5 123.5 t24.5 118t11.5 76q0 42 -13.5 74.5t-39.5 54t-64 32.5t-88 11h-217zM651 1522l65 -63l91 63h271l-274 -194h-197l-192 194h236z" />
<glyph unicode="&#x10f;" horiz-adv-x="1003" d="M1462 1248l-211 -282h-195l109 282h297zM563 0l20 95q-9 -17 -26 -34.5t-42.5 -36t-63 -30t-79.5 -11.5q-51 0 -96 14t-78.5 39t-59.5 58.5t-42.5 72t-24.5 79.5t-8 82q0 52 37 244q40 191 135 281.5t257 90.5q87 0 149.5 -35.5t92.5 -95.5l92 435h236l-263 -1248h-236z M639 365q43 199 43 216q0 152 -157 152q-51 0 -90.5 -20.5t-65.5 -58.5t-38 -93q-42 -199 -42 -216q0 -151 156 -151q52 0 91.5 20t65.5 58.5t37 92.5z" />
<glyph unicode="&#x110;" horiz-adv-x="1152" d="M540 0h-503l114 540h-124l34 160h124l116 548h437q97 0 176.5 -29.5t130.5 -80t78.5 -116t27.5 -138.5q0 -25 -6 -67.5t-16.5 -98t-19 -96t-21 -97t-14.5 -64.5q-18 -87 -43.5 -154t-68 -126.5t-99 -98t-138 -60.5t-185.5 -22zM323 231h247q99 0 169.5 59t93.5 166 q2 6 16.5 70t27.5 123t24.5 118.5t11.5 75.5q0 84 -53 128t-153 44h-217l-68 -315h232l-34 -160h-232z" />
<glyph unicode="&#x111;" horiz-adv-x="1003" d="M563 0l20 95q-9 -17 -26 -34.5t-42.5 -36t-63 -30t-79.5 -11.5q-51 0 -96 14t-78.5 39t-59.5 58.5t-42.5 72t-24.5 79.5t-8 82q0 52 37 244q40 191 135 281.5t257 90.5q87 0 149.5 -35.5t92.5 -95.5l41 194h-237l30 142h238l20 99h236l-21 -99h124l-30 -142h-125 l-211 -1007h-236zM639 365q43 199 43 216q0 152 -157 152q-51 0 -90.5 -20.5t-65.5 -58.5t-38 -93q-42 -199 -42 -216q0 -151 156 -151q52 0 91.5 20t65.5 58.5t37 92.5z" />
<glyph unicode="&#x112;" horiz-adv-x="959" d="M471 1015l-58 -269h521l-50 -231h-520l-61 -284h520l-48 -231h-758l265 1248h757l-50 -233h-518zM417 1520h608l-42 -189h-607z" />
<glyph unicode="&#x113;" horiz-adv-x="972" d="M880 381h-584q-5 -30 -5 -41q0 -151 156 -151q120 0 173 107h237q-50 -160 -149.5 -236.5t-277.5 -76.5q-166 0 -266.5 95.5t-100.5 251.5q0 62 37 224q23 99 57 169t87 121t128.5 75.5t176.5 24.5q165 0 266 -96t101 -251q0 -65 -36 -216zM688 570v16q0 152 -157 152 q-75 0 -125 -44.5t-69 -123.5h351zM351 1226h608l-41 -185h-608z" />
<glyph unicode="&#x114;" horiz-adv-x="959" d="M471 1015l-58 -269h521l-50 -231h-520l-61 -284h520l-48 -231h-758l265 1248h757l-50 -233h-518zM800 1479q9 0 17.5 3.5t15.5 9t12 13.5t7 17h180q-18 -82 -87 -138t-151 -56h-235q-53 0 -93 25.5t-56.5 70t-4.5 98.5h158q-2 -9 0 -17t6.5 -13.5t11.5 -9t16 -3.5h203z " />
<glyph unicode="&#x115;" horiz-adv-x="972" d="M880 381h-584q-5 -30 -5 -41q0 -151 156 -151q120 0 173 107h237q-50 -160 -149.5 -236.5t-277.5 -76.5q-166 0 -266.5 95.5t-100.5 251.5q0 62 37 224q23 99 57 169t87 121t128.5 75.5t176.5 24.5q165 0 266 -96t101 -251q0 -65 -36 -216zM688 570v16q0 152 -157 152 q-75 0 -125 -44.5t-69 -123.5h351zM524 1017q-82 0 -134.5 52.5t-52.5 131.5q0 23 5 47h155q-2 -7 -2 -19q0 -19 15 -32.5t39 -13.5h167q27 0 49 19t28 46h176q-13 -63 -55 -116t-101 -84t-121 -31h-168z" />
<glyph unicode="&#x116;" horiz-adv-x="959" d="M471 1015l-58 -269h521l-50 -231h-520l-61 -284h520l-48 -231h-758l265 1248h757l-50 -233h-518zM841 1529l-45 -208h-238l44 208h239z" />
<glyph unicode="&#x117;" horiz-adv-x="972" d="M880 381h-584q-5 -30 -5 -41q0 -151 156 -151q120 0 173 107h237q-50 -160 -149.5 -236.5t-277.5 -76.5q-166 0 -266.5 95.5t-100.5 251.5q0 62 37 224q23 99 57 169t87 121t128.5 75.5t176.5 24.5q165 0 266 -96t101 -251q0 -65 -36 -216zM688 570v16q0 152 -157 152 q-75 0 -125 -44.5t-69 -123.5h351zM770 1236l-44 -208h-236l44 208h236z" />
<glyph unicode="&#x118;" horiz-adv-x="959" d="M544 0h-527l265 1248h757l-50 -233h-518l-58 -269h521l-50 -231h-520l-61 -284h520l-48 -231q-12 -8 -31.5 -19t-30.5 -17.5t-26.5 -16t-24.5 -16t-20 -14.5t-17 -14.5t-12 -14t-8.5 -15t-2.5 -14.5q0 -27 41 -27t102 27l-36 -163q-63 -33 -151 -33q-52 0 -98 16.5 t-77.5 53.5t-31.5 87q0 60 51.5 106t141.5 74z" />
<glyph unicode="&#x119;" horiz-adv-x="972" d="M880 381h-584q-5 -30 -5 -41q0 -151 156 -151q120 0 173 107h237q-56 -181 -171 -252q-23 -13 -63 -35t-69 -38t-59 -36t-46 -39t-16 -37q0 -30 45 -30q33 0 101 30l-35 -163q-63 -33 -152 -33q-51 0 -97 16.5t-78 53.5t-32 87q0 56 41 99t116 71q-129 24 -204 115 t-75 225q0 62 37 224q23 99 57 169t87 121t128.5 75.5t176.5 24.5q165 0 266 -96t101 -251q0 -65 -36 -216zM688 570v16q0 152 -157 152q-75 0 -125 -44.5t-69 -123.5h351z" />
<glyph unicode="&#x11a;" horiz-adv-x="959" d="M471 1015l-58 -269h521l-50 -231h-520l-61 -284h520l-48 -231h-758l265 1248h757l-50 -233h-518zM578 1345l-177 230h228l70 -80l103 80h262l-273 -230h-213z" />
<glyph unicode="&#x11b;" horiz-adv-x="972" d="M880 381h-584q-5 -30 -5 -41q0 -151 156 -151q120 0 173 107h237q-50 -160 -149.5 -236.5t-277.5 -76.5q-166 0 -266.5 95.5t-100.5 251.5q0 62 37 224q23 99 57 169t87 121t128.5 75.5t176.5 24.5q165 0 266 -96t101 -251q0 -65 -36 -216zM688 570v16q0 152 -157 152 q-75 0 -125 -44.5t-69 -123.5h351zM500 1017l-175 231h227l70 -81l104 81h261l-273 -231h-214z" />
<glyph unicode="&#x11c;" horiz-adv-x="1091" d="M780 479h-231l50 232h470q-16 -84 -57 -267q-20 -88 -45.5 -154.5t-67.5 -126.5t-98.5 -98t-138 -60t-184.5 -22q-98 0 -177.5 29t-130.5 79.5t-78.5 115.5t-27.5 138q0 25 6.5 70.5t19 108.5t21 105t22.5 107t15 68q19 87 44.5 154t67.5 126.5t98.5 98t138 60.5 t185.5 22q97 0 177 -29.5t131 -80t78.5 -115.5t27.5 -139q0 -5 -0.5 -12t-2 -17.5t-1.5 -18.5h-235v7q0 85 -52.5 129.5t-152.5 44.5q-65 0 -119 -26t-91.5 -77t-53.5 -122q0 -2 -16.5 -75t-30 -136.5t-26 -129.5t-12.5 -82q0 -84 53 -128t152 -44t169.5 58.5t94.5 165.5z M825 1328l-66 61l-91 -61h-270l274 194h195l194 -194h-236z" />
<glyph unicode="&#x11d;" horiz-adv-x="998" d="M218 -5v-7q0 -52 39.5 -89.5t116.5 -37.5t126.5 44.5t67.5 126.5l27 128q-22 -39 -79 -75.5t-137 -36.5q-61 0 -113 20.5t-87.5 54.5t-60.5 79t-36.5 93.5t-11.5 98.5q0 34 30 178q41 191 135.5 281.5t256.5 90.5q87 0 149.5 -35.5t92.5 -95.5l21 107h236l-185 -876 q-28 -132 -80 -216t-143.5 -128.5t-225.5 -44.5q-164 0 -265.5 94t-101.5 239v7h228zM654 432q28 139 28 149q0 152 -157 152q-51 0 -90.5 -20.5t-65.5 -58.5t-38 -93q-28 -129 -28 -149q0 -152 156 -152q78 0 128.5 45t66.5 127zM757 1248l177 -231h-228l-70 81l-104 -81 h-261l273 231h213z" />
<glyph unicode="&#x11e;" horiz-adv-x="1091" d="M780 479h-231l50 232h470q-16 -84 -57 -267q-20 -88 -45.5 -154.5t-67.5 -126.5t-98.5 -98t-138 -60t-184.5 -22q-98 0 -177.5 29t-130.5 79.5t-78.5 115.5t-27.5 138q0 25 6.5 70.5t19 108.5t21 105t22.5 107t15 68q19 87 44.5 154t67.5 126.5t98.5 98t138 60.5 t185.5 22q97 0 177 -29.5t131 -80t78.5 -115.5t27.5 -139q0 -5 -0.5 -12t-2 -17.5t-1.5 -18.5h-235v7q0 85 -52.5 129.5t-152.5 44.5q-65 0 -119 -26t-91.5 -77t-53.5 -122q0 -2 -16.5 -75t-30 -136.5t-26 -129.5t-12.5 -82q0 -84 53 -128t152 -44t169.5 58.5t94.5 165.5z M852 1479q11 0 22 5.5t18.5 15.5t10.5 22h180q-17 -82 -86 -138t-150 -56h-236q-54 0 -93.5 25.5t-56.5 70t-5 98.5h159q-4 -18 6 -30.5t27 -12.5h204z" />
<glyph unicode="&#x11f;" horiz-adv-x="998" d="M218 -5v-7q0 -52 39.5 -89.5t116.5 -37.5t126.5 44.5t67.5 126.5l27 128q-22 -39 -79 -75.5t-137 -36.5q-61 0 -113 20.5t-87.5 54.5t-60.5 79t-36.5 93.5t-11.5 98.5q0 34 30 178q41 191 135.5 281.5t256.5 90.5q87 0 149.5 -35.5t92.5 -95.5l21 107h236l-185 -876 q-28 -132 -80 -216t-143.5 -128.5t-225.5 -44.5q-164 0 -265.5 94t-101.5 239v7h228zM654 432q28 139 28 149q0 152 -157 152q-51 0 -90.5 -20.5t-65.5 -58.5t-38 -93q-28 -129 -28 -149q0 -152 156 -152q78 0 128.5 45t66.5 127zM520 1017q-82 0 -134.5 52.5t-52.5 131.5 q0 23 5 47h155q-1 -7 -1 -19q0 -19 15 -32.5t38 -13.5h168q26 0 48.5 19t27.5 46h177q-21 -95 -102 -163t-176 -68h-168z" />
<glyph unicode="&#x120;" horiz-adv-x="1091" d="M780 479h-231l50 232h470q-16 -84 -57 -267q-20 -88 -45.5 -154.5t-67.5 -126.5t-98.5 -98t-138 -60t-184.5 -22q-98 0 -177.5 29t-130.5 79.5t-78.5 115.5t-27.5 138q0 25 6.5 70.5t19 108.5t21 105t22.5 107t15 68q19 87 44.5 154t67.5 126.5t98.5 98t138 60.5 t185.5 22q97 0 177 -29.5t131 -80t78.5 -115.5t27.5 -139q0 -5 -0.5 -12t-2 -17.5t-1.5 -18.5h-235v7q0 85 -52.5 129.5t-152.5 44.5q-65 0 -119 -26t-91.5 -77t-53.5 -122q0 -2 -16.5 -75t-30 -136.5t-26 -129.5t-12.5 -82q0 -84 53 -128t152 -44t169.5 58.5t94.5 165.5z M893 1529l-45 -208h-239l45 208h239z" />
<glyph unicode="&#x121;" horiz-adv-x="998" d="M218 -5v-7q0 -52 39.5 -89.5t116.5 -37.5t126.5 44.5t67.5 126.5l27 128q-22 -39 -79 -75.5t-137 -36.5q-61 0 -113 20.5t-87.5 54.5t-60.5 79t-36.5 93.5t-11.5 98.5q0 34 30 178q41 191 135.5 281.5t256.5 90.5q87 0 149.5 -35.5t92.5 -95.5l21 107h236l-185 -876 q-28 -132 -80 -216t-143.5 -128.5t-225.5 -44.5q-164 0 -265.5 94t-101.5 239v7h228zM654 432q28 139 28 149q0 152 -157 152q-51 0 -90.5 -20.5t-65.5 -58.5t-38 -93q-28 -129 -28 -149q0 -152 156 -152q78 0 128.5 45t66.5 127zM766 1236l-45 -208h-235l45 208h235z" />
<glyph unicode="&#x122;" horiz-adv-x="1091" d="M780 479h-231l50 232h470q-16 -84 -57 -267q-20 -88 -45.5 -154.5t-67.5 -126.5t-98.5 -98t-138 -60t-184.5 -22q-98 0 -177.5 29t-130.5 79.5t-78.5 115.5t-27.5 138q0 25 6.5 70.5t19 108.5t21 105t22.5 107t15 68q19 87 44.5 154t67.5 126.5t98.5 98t138 60.5 t185.5 22q97 0 177 -29.5t131 -80t78.5 -115.5t27.5 -139q0 -5 -0.5 -12t-2 -17.5t-1.5 -18.5h-235v7q0 85 -52.5 129.5t-152.5 44.5q-65 0 -119 -26t-91.5 -77t-53.5 -122q0 -2 -16.5 -75t-30 -136.5t-26 -129.5t-12.5 -82q0 -84 53 -128t152 -44t169.5 58.5t94.5 165.5z M240 -357l56 268h267l-55 -268l-98 -185h-167l97 185h-100z" />
<glyph unicode="&#x123;" horiz-adv-x="998" d="M218 -5v-7q0 -52 39.5 -89.5t116.5 -37.5t126.5 44.5t67.5 126.5l27 128q-22 -39 -79 -75.5t-137 -36.5q-61 0 -113 20.5t-87.5 54.5t-60.5 79t-36.5 93.5t-11.5 98.5q0 34 30 178q41 191 135.5 281.5t256.5 90.5q87 0 149.5 -35.5t92.5 -95.5l21 107h236l-185 -876 q-28 -132 -80 -216t-143.5 -128.5t-225.5 -44.5q-164 0 -265.5 94t-101.5 239v7h228zM654 432q28 139 28 149q0 152 -157 152q-51 0 -90.5 -20.5t-65.5 -58.5t-38 -93q-28 -129 -28 -149q0 -152 156 -152q78 0 128.5 45t66.5 127zM791 1285l-55 -268h-267l55 268l98 185h167 l-97 -185h99z" />
<glyph unicode="&#x124;" horiz-adv-x="1171" d="M880 746l106 502h236l-263 -1248h-238l109 515h-466l-109 -515h-238l265 1248h237l-106 -502h467zM864 1328l-65 61l-92 -61h-270l274 194h196l193 -194h-236z" />
<glyph unicode="&#x125;" horiz-adv-x="1020" d="M905 355l-77 -355h-235l79 365q8 40 17 81t13 59.5t8 36.5t5 26t1 13q0 152 -157 152q-77 0 -126.5 -44.5t-67.5 -127.5l-121 -561h-235l265 1248h236l-90 -416q9 16 26 34t43 36.5t63.5 30t79.5 11.5q56 0 103 -14t80 -39.5t58 -58.5t40 -72t22 -79.5t7 -81.5 q0 -74 -37 -244zM857 1557l177 -229h-228l-70 80l-104 -80h-261l272 229h214z" />
<glyph unicode="&#x126;" horiz-adv-x="1171" d="M519 1248l-36 -170h467l36 170h236l-263 -1248h-238l109 515h-466l-109 -515h-238l265 1248h237zM880 746l36 172h-467l-36 -172h467z" />
<glyph unicode="&#x127;" horiz-adv-x="1020" d="M905 355l-77 -355h-235l79 365q8 40 17 81t13 59.5t8 36.5t5 26t1 13q0 152 -157 152q-77 0 -126.5 -44.5t-67.5 -127.5l-121 -561h-235l215 1015h-122l30 143h123l19 90h236l-20 -90h216l-31 -143h-216l-39 -183q9 16 26 34t43 36.5t63.5 30t79.5 11.5q56 0 103 -14 t80 -39.5t58 -58.5t40 -72t22 -79.5t7 -81.5q0 -74 -37 -244z" />
<glyph unicode="&#x128;" horiz-adv-x="468" d="M519 1248l-264 -1248h-238l265 1248h237zM578 1539h185q-12 -65 -38 -115.5t-71 -83t-103 -32.5q-60 0 -109 25l-48 23q-16 7 -32 7q-39 0 -58 -52h-185q19 102 73 167t139 65q60 0 109 -25l48 -23q16 -7 32 -7q39 0 58 51z" />
<glyph unicode="&#x129;" horiz-adv-x="520" d="M476 920l-196 -920h-236l196 920h236zM255 1019h-173q12 65 38 115.5t71 83.5t103 33q56 0 109 -27l48 -23q20 -9 42 -9q16 0 32.5 14t25.5 42h175q-13 -66 -38.5 -116.5t-71 -83.5t-103.5 -33q-56 0 -108 27l-48 24q-21 8 -44 8q-15 0 -32 -13.5t-26 -41.5z" />
<glyph unicode="&#x12a;" horiz-adv-x="468" d="M519 1248l-264 -1248h-238l265 1248h237zM164 1554h608l-41 -185h-608z" />
<glyph unicode="&#x12b;" horiz-adv-x="520" d="M476 920l-196 -920h-236l196 920h236zM123 1226h608l-41 -185h-608z" />
<glyph unicode="&#x12c;" horiz-adv-x="468" d="M519 1248l-264 -1248h-238l265 1248h237zM540 1479q18 0 33 12.5t19 30.5h180q-18 -82 -87 -138t-151 -56h-235q-53 0 -93 25.5t-56.5 70t-5.5 98.5h159q-4 -18 6 -30.5t28 -12.5h203z" />
<glyph unicode="&#x12d;" horiz-adv-x="520" d="M476 920l-196 -920h-236l196 920h236zM296 1017q-82 0 -134.5 52.5t-52.5 131.5q0 23 5 47h155q-2 -7 -2 -19q0 -19 15 -32.5t39 -13.5h167q27 0 49 19t28 46h176q-20 -95 -102 -163t-176 -68h-167z" />
<glyph unicode="&#x12e;" horiz-adv-x="468" d="M17 0l265 1248h237l-264 -1248q-13 -8 -32 -19t-30 -17.5t-26.5 -16t-24.5 -16t-20 -14.5t-17.5 -14.5t-12 -14t-8 -15t-2.5 -14.5q0 -27 41 -27t101 27l-35 -163q-63 -33 -152 -33q-51 0 -97 16.5t-78 53.5t-32 87q0 61 49.5 106.5t137.5 73.5z" />
<glyph unicode="&#x12f;" horiz-adv-x="448" d="M9 0l196 920h235l-196 -920q-15 -9 -40 -23.5t-38 -22.5t-31.5 -20t-28.5 -20t-20 -17.5t-14 -19t-4 -18.5q0 -30 44 -30q34 0 102 30l-36 -163q-62 -33 -151 -33q-52 0 -97.5 16.5t-77.5 53.5t-32 87q0 60 50.5 106t138.5 74zM510 1248l-45 -209h-235l44 209h236z" />
<glyph unicode="&#x130;" horiz-adv-x="468" d="M519 1248l-264 -1248h-238l265 1248h237zM581 1529l-45 -208h-238l44 208h239z" />
<glyph unicode="&#x131;" horiz-adv-x="448" d="M440 920l-196 -920h-235l196 920h235z" />
<glyph unicode="&#x134;" horiz-adv-x="836" d="M481 364l187 884h237l-189 -891q-17 -79 -36.5 -135t-50 -103.5t-72.5 -76t-102 -44t-140 -15.5q-90 0 -165.5 38t-121 110t-45.5 163q0 31 3 63h237q-2 -9 -2 -27q0 -36 14.5 -63.5t40.5 -41.5t61 -14q63 0 96 41t48 112zM898 1328l-66 61l-91 -61h-270l274 194h195 l194 -194h-236z" />
<glyph unicode="&#x135;" horiz-adv-x="555" d="M493 920l-213 -1012q-51 -236 -285 -236h-112l42 207h45q40 0 58 18.5t25 54.5l205 968h235zM552 1248l177 -231h-229l-68 81l-104 -81h-262l272 231h214z" />
<glyph unicode="&#x136;" horiz-adv-x="1148" d="M328 351l-73 -351h-238l265 1248h237l-106 -507l539 507h335l-549 -515l328 -733h-255l-252 563zM292 -357l55 268h268l-56 -268l-98 -185h-167l98 185h-100z" />
<glyph unicode="&#x137;" horiz-adv-x="957" d="M510 1248l-132 -617l326 289h313l-410 -362l262 -558h-247l-190 403l-128 -114l-60 -289h-235l265 1248h236zM194 -357l56 268h267l-56 -268l-97 -185h-168l98 185h-100z" />
<glyph unicode="&#x139;" horiz-adv-x="874" d="M520 1248l-217 -1017h520l-48 -231h-758l265 1248h238zM403 1522h310l-228 -194h-216z" />
<glyph unicode="&#x13a;" horiz-adv-x="448" d="M244 0h-235l265 1248h236zM378 1557h306l-210 -229h-203z" />
<glyph unicode="&#x13b;" horiz-adv-x="874" d="M520 1248l-217 -1017h520l-48 -231h-758l265 1248h238zM191 -357l55 268h267l-55 -268l-98 -185h-168l99 185h-100z" />
<glyph unicode="&#x13c;" horiz-adv-x="448" d="M244 0h-235l265 1248h236zM-82 -357l55 268h267l-55 -268l-98 -185h-167l97 185h-99z" />
<glyph unicode="&#x13d;" horiz-adv-x="874" d="M1015 1248l-202 -282h-207l108 282h301zM520 1248l-217 -1017h520l-48 -231h-758l265 1248h238z" />
<glyph unicode="&#x13e;" horiz-adv-x="448" d="M907 1248l-212 -282h-195l109 282h298zM244 0h-235l265 1248h236z" />
<glyph unicode="&#x13f;" horiz-adv-x="874" d="M520 1248l-217 -1017h520l-48 -231h-758l265 1248h238zM871 847l-45 -209h-238l44 209h239z" />
<glyph unicode="&#x140;" horiz-adv-x="648" d="M244 0h-235l265 1248h236zM721 731l-44 -209h-235l44 209h235z" />
<glyph unicode="&#x141;" horiz-adv-x="894" d="M540 1248l-102 -471l259 130l-43 -200l-258 -129l-73 -347h520l-49 -231h-757l95 444l-141 -70l43 199l139 70l128 605h239z" />
<glyph unicode="&#x142;" horiz-adv-x="476" d="M258 0h-235l111 522l-129 -64l39 174l127 65l118 551h235l-89 -420l126 65l-39 -175l-124 -62z" />
<glyph unicode="&#x143;" horiz-adv-x="1170" d="M1222 1248l-265 -1248h-239l-283 847l-180 -847h-238l265 1248h238l284 -847l179 847h239zM753 1522h311l-228 -194h-216z" />
<glyph unicode="&#x144;" horiz-adv-x="1020" d="M905 355l-77 -355h-235l79 365q8 40 17 81t13 59.5t8 36.5t5 26t1 13q0 152 -157 152q-77 0 -126.5 -44.5t-67.5 -127.5l-121 -561h-235l196 920h235l-20 -88q9 16 26 34t43 36.5t63.5 30t79.5 11.5q56 0 103 -14t80 -39.5t58 -58.5t40 -72t22 -79.5t7 -81.5 q0 -74 -37 -244zM604 1248h307l-211 -231h-203z" />
<glyph unicode="&#x145;" horiz-adv-x="1170" d="M1222 1248l-265 -1248h-239l-283 847l-180 -847h-238l265 1248h238l284 -847l179 847h239zM280 -357l55 268h267l-55 -268l-98 -185h-167l97 185h-99z" />
<glyph unicode="&#x146;" horiz-adv-x="1020" d="M905 355l-77 -355h-235l79 365q8 40 17 81t13 59.5t8 36.5t5 26t1 13q0 152 -157 152q-77 0 -126.5 -44.5t-67.5 -127.5l-121 -561h-235l196 920h235l-20 -88q9 16 26 34t43 36.5t63.5 30t79.5 11.5q56 0 103 -14t80 -39.5t58 -58.5t40 -72t22 -79.5t7 -81.5 q0 -74 -37 -244zM212 -357l55 268h267l-55 -268l-98 -185h-167l97 185h-99z" />
<glyph unicode="&#x147;" horiz-adv-x="1170" d="M1222 1248l-265 -1248h-239l-283 847l-180 -847h-238l265 1248h238l284 -847l179 847h239zM713 1522l66 -63l90 63h272l-275 -194h-196l-192 194h235z" />
<glyph unicode="&#x148;" horiz-adv-x="1020" d="M905 355l-77 -355h-235l79 365q8 40 17 81t13 59.5t8 36.5t5 26t1 13q0 152 -157 152q-77 0 -126.5 -44.5t-67.5 -127.5l-121 -561h-235l196 920h235l-20 -88q9 16 26 34t43 36.5t63.5 30t79.5 11.5q56 0 103 -14t80 -39.5t58 -58.5t40 -72t22 -79.5t7 -81.5 q0 -74 -37 -244zM529 1017l-176 231h228l70 -81l102 81h262l-272 -231h-214z" />
<glyph unicode="&#x14a;" horiz-adv-x="1170" d="M1222 1248l-265 -1248q-35 -165 -131 -246.5t-260 -81.5h-146l49 231h112q92 0 137 97l-283 847l-180 -847h-238l265 1248h238l284 -847l179 847h239z" />
<glyph unicode="&#x14b;" horiz-adv-x="1020" d="M905 355l-96 -447q-51 -236 -285 -236h-112l42 207h45q40 0 58.5 18.5t25.5 54.5l89 413q8 40 17 81t13 59.5t8 36.5t5 26t1 13q0 152 -157 152q-77 0 -126.5 -44.5t-67.5 -127.5l-121 -561h-235l196 920h235l-20 -88q9 16 26 34t43 36.5t63.5 30t79.5 11.5q56 0 103 -14 t80 -39.5t58 -58.5t40 -72t22 -79.5t7 -81.5q0 -74 -37 -244z" />
<glyph unicode="&#x14c;" horiz-adv-x="1095" d="M150 804q18 87 43.5 154t68 126.5t99 98t138 60.5t185.5 22q97 0 176.5 -29.5t131 -80t79 -115.5t27.5 -139q0 -24 -6.5 -70.5t-18.5 -106.5t-21.5 -106.5t-23 -105.5t-14.5 -68q-19 -88 -44.5 -155t-67.5 -126.5t-99 -97.5t-138.5 -60t-185.5 -22q-97 0 -176.5 29 t-130.5 79.5t-78.5 115.5t-27.5 138q0 25 6.5 70.5t18.5 108.5t21 105t23 107t15 68zM391 809q-1 -4 -17 -75t-30 -136t-27 -130.5t-13 -81.5q0 -84 53 -128t153 -44q99 0 169.5 58.5t93.5 165.5q1 3 17 75.5t30 136t26.5 129.5t12.5 81q0 85 -53 129.5t-152 44.5 t-169.5 -59t-93.5 -166zM471 1520h607l-41 -189h-607z" />
<glyph unicode="&#x14d;" horiz-adv-x="977" d="M879 372q-23 -98 -57.5 -168.5t-87 -121t-128 -75t-176.5 -24.5q-166 0 -266.5 95.5t-100.5 251.5q0 62 37 224q23 99 57 169t87 121t128.5 75.5t176.5 24.5q165 0 266 -96t101 -251q0 -63 -37 -225zM337 566q-46 -210 -46 -236q0 -63 38 -102t118 -39q77 0 126.5 44.5 t67.5 126.5q47 214 47 237q0 24 -5.5 44.5t-17.5 38.5t-30 30.5t-44.5 20t-59.5 7.5q-77 0 -126 -44.5t-68 -127.5zM349 1226h608l-41 -185h-608z" />
<glyph unicode="&#x14e;" horiz-adv-x="1095" d="M150 804q18 87 43.5 154t68 126.5t99 98t138 60.5t185.5 22q97 0 176.5 -29.5t131 -80t79 -115.5t27.5 -139q0 -24 -6.5 -70.5t-18.5 -106.5t-21.5 -106.5t-23 -105.5t-14.5 -68q-19 -88 -44.5 -155t-67.5 -126.5t-99 -97.5t-138.5 -60t-185.5 -22q-97 0 -176.5 29 t-130.5 79.5t-78.5 115.5t-27.5 138q0 25 6.5 70.5t18.5 108.5t21 105t23 107t15 68zM391 809q-1 -4 -17 -75t-30 -136t-27 -130.5t-13 -81.5q0 -84 53 -128t153 -44q99 0 169.5 58.5t93.5 165.5q1 3 17 75.5t30 136t26.5 129.5t12.5 81q0 85 -53 129.5t-152 44.5 t-169.5 -59t-93.5 -166zM853 1479q18 0 33 12.5t19 30.5h180q-12 -54 -47.5 -98.5t-85.5 -70t-104 -25.5h-235q-82 0 -127.5 56t-27.5 138h159q-4 -18 6 -30.5t28 -12.5h202z" />
<glyph unicode="&#x14f;" horiz-adv-x="977" d="M879 372q-23 -98 -57.5 -168.5t-87 -121t-128 -75t-176.5 -24.5q-166 0 -266.5 95.5t-100.5 251.5q0 62 37 224q23 99 57 169t87 121t128.5 75.5t176.5 24.5q165 0 266 -96t101 -251q0 -63 -37 -225zM337 566q-46 -210 -46 -236q0 -63 38 -102t118 -39q77 0 126.5 44.5 t67.5 126.5q47 214 47 237q0 24 -5.5 44.5t-17.5 38.5t-30 30.5t-44.5 20t-59.5 7.5q-77 0 -126 -44.5t-68 -127.5zM524 1017q-82 0 -134.5 52.5t-52.5 131.5q0 23 5 47h155q-2 -7 -2 -19q0 -19 15 -32.5t39 -13.5h167q27 0 49 19t28 46h176q-13 -63 -55 -116t-101 -84 t-121 -31h-168z" />
<glyph unicode="&#x150;" horiz-adv-x="1095" d="M150 804q18 87 43.5 154t68 126.5t99 98t138 60.5t185.5 22q97 0 176.5 -29.5t131 -80t79 -115.5t27.5 -139q0 -24 -6.5 -70.5t-18.5 -106.5t-21.5 -106.5t-23 -105.5t-14.5 -68q-19 -88 -44.5 -155t-67.5 -126.5t-99 -97.5t-138.5 -60t-185.5 -22q-97 0 -176.5 29 t-130.5 79.5t-78.5 115.5t-27.5 138q0 25 6.5 70.5t18.5 108.5t21 105t23 107t15 68zM391 809q-1 -4 -17 -75t-30 -136t-27 -130.5t-13 -81.5q0 -84 53 -128t153 -44q99 0 169.5 58.5t93.5 165.5q1 3 17 75.5t30 136t26.5 129.5t12.5 81q0 85 -53 129.5t-152 44.5 t-169.5 -59t-93.5 -166zM558 1522h301l-211 -194h-206zM900 1522h301l-210 -194h-207z" />
<glyph unicode="&#x151;" horiz-adv-x="977" d="M879 372q-23 -98 -57.5 -168.5t-87 -121t-128 -75t-176.5 -24.5q-166 0 -266.5 95.5t-100.5 251.5q0 62 37 224q23 99 57 169t87 121t128.5 75.5t176.5 24.5q165 0 266 -96t101 -251q0 -63 -37 -225zM337 566q-46 -210 -46 -236q0 -63 38 -102t118 -39q77 0 126.5 44.5 t67.5 126.5q47 214 47 237q0 24 -5.5 44.5t-17.5 38.5t-30 30.5t-44.5 20t-59.5 7.5q-77 0 -126 -44.5t-68 -127.5zM379 1248h298l-192 -231h-194zM721 1248h298l-193 -231h-194z" />
<glyph unicode="&#x152;" horiz-adv-x="1624" d="M1135 1015l-57 -269h520l-49 -231h-521l-61 -284h521l-48 -231h-758l10 41q-38 -28 -95.5 -43t-117.5 -15q-97 0 -176.5 29t-130.5 79.5t-78.5 115.5t-27.5 138q0 25 6.5 70.5t18.5 108.5t21 105t23 107t15 68q18 86 44.5 154t68.5 127t97 97.5t132.5 60.5t173.5 22 q101 0 168 -29.5t96 -64.5l16 77h757l-49 -233h-519zM391 809q-1 -4 -17 -75t-30 -136t-27 -130.5t-13 -81.5q0 -84 53 -128t153 -44q99 0 169.5 58.5t93.5 165.5q1 3 17 75.5t30 136t26.5 129.5t12.5 81q0 85 -53 129.5t-152 44.5t-169.5 -59t-93.5 -166z" />
<glyph unicode="&#x153;" horiz-adv-x="1554" d="M1012 -17q-84 0 -155.5 31.5t-116.5 85.5q-108 -117 -310 -117q-166 0 -266.5 95.5t-100.5 251.5q0 62 37 224q23 99 57 169t87 121t128.5 75.5t176.5 24.5q83 0 155 -32t117 -86q108 118 310 118q165 0 266 -96t101 -251q0 -65 -36 -216h-583q-6 -30 -6 -41 q0 -151 157 -151q119 0 172 107h238q-50 -160 -150 -236.5t-278 -76.5zM337 566q-46 -210 -46 -236q0 -63 38 -102t118 -39q77 0 126.5 44.5t67.5 126.5q47 214 47 237q0 24 -5.5 44.5t-17.5 38.5t-30 30.5t-44.5 20t-59.5 7.5q-77 0 -126 -44.5t-68 -127.5zM1270 570v16 q0 152 -156 152q-75 0 -125 -44.5t-69 -123.5h350z" />
<glyph unicode="&#x154;" horiz-adv-x="1100" d="M1131 920q0 -45 -7.5 -88t-31 -95t-60.5 -93t-102 -75t-150 -47l196 -522h-243l-195 515h-174l-109 -515h-238l265 1248h511q57 0 107 -13.5t86.5 -37.5t64.5 -55.5t45.5 -68.5t26 -75.5t8.5 -77.5zM413 746h303q78 0 127.5 44t49.5 108q0 52 -31.5 84.5t-102.5 32.5 h-288zM693 1522h310l-228 -194h-216z" />
<glyph unicode="&#x155;" horiz-adv-x="648" d="M682 714h-128q-77 0 -126.5 -44t-67.5 -126l-116 -544h-235l196 920h235l-23 -97q9 17 26 34.5t43 36t63.5 30t79.5 11.5h100zM454 1248h306l-209 -231h-204z" />
<glyph unicode="&#x156;" horiz-adv-x="1100" d="M1131 920q0 -45 -7.5 -88t-31 -95t-60.5 -93t-102 -75t-150 -47l196 -522h-243l-195 515h-174l-109 -515h-238l265 1248h511q57 0 107 -13.5t86.5 -37.5t64.5 -55.5t45.5 -68.5t26 -75.5t8.5 -77.5zM413 746h303q78 0 127.5 44t49.5 108q0 52 -31.5 84.5t-102.5 32.5 h-288zM255 -357l55 268h268l-56 -268l-98 -185h-167l98 185h-100z" />
<glyph unicode="&#x157;" horiz-adv-x="648" d="M682 714h-128q-77 0 -126.5 -44t-67.5 -126l-116 -544h-235l196 920h235l-23 -97q9 17 26 34.5t43 36t63.5 30t79.5 11.5h100zM-82 -357l55 268h267l-55 -268l-98 -185h-167l97 185h-99z" />
<glyph unicode="&#x158;" horiz-adv-x="1100" d="M1131 920q0 -45 -7.5 -88t-31 -95t-60.5 -93t-102 -75t-150 -47l196 -522h-243l-195 515h-174l-109 -515h-238l265 1248h511q57 0 107 -13.5t86.5 -37.5t64.5 -55.5t45.5 -68.5t26 -75.5t8.5 -77.5zM413 746h303q78 0 127.5 44t49.5 108q0 52 -31.5 84.5t-102.5 32.5 h-288zM651 1522l65 -63l91 63h271l-274 -194h-197l-192 194h236z" />
<glyph unicode="&#x159;" horiz-adv-x="648" d="M682 714h-128q-77 0 -126.5 -44t-67.5 -126l-116 -544h-235l196 920h235l-23 -97q9 17 26 34.5t43 36t63.5 30t79.5 11.5h100zM379 1017l-176 231h229l68 -81l104 81h262l-273 -231h-214z" />
<glyph unicode="&#x15a;" horiz-adv-x="963" d="M456 -17q-193 0 -312 109t-119 287v15h239v-13q0 -73 62.5 -120t156.5 -47q36 0 67.5 10t55.5 27.5t38 45.5t14 61q0 115 -120 150l-153 44q-57 17 -102 47t-76 71t-47.5 93.5t-16.5 111.5q0 390 440 390q92 0 168.5 -30.5t124.5 -81t74 -112.5t26 -128v-19h-240 q-27 140 -180 140q-85 0 -130 -36.5t-45 -97.5q0 -50 30 -85.5t74 -48.5l153 -45q118 -34 188 -120t70 -203q0 -204 -110.5 -309.5t-329.5 -105.5zM645 1522h310l-228 -194h-215z" />
<glyph unicode="&#x15b;" horiz-adv-x="849" d="M371 -17q-101 0 -185 37.5t-133.5 106.5t-49.5 155v16h228v-7q0 -48 48.5 -77t118.5 -29q32 0 61 7.5t51 26t22 45.5q0 30 -21 47t-60 27l-128 34q-36 10 -68.5 25t-61.5 38.5t-50 52t-33.5 66.5t-12.5 80q0 78 28.5 138t79.5 97t117.5 56t146.5 19q61 0 121 -20.5 t108 -56.5t78 -90t30 -116v-15h-228v6q-2 39 -42 64t-94 25q-52 0 -84.5 -20.5t-32.5 -55.5q0 -53 69 -72l142 -37q67 -18 117.5 -51.5t81 -86.5t30.5 -119q0 -162 -100 -239t-294 -77zM505 1248h306l-211 -231h-202z" />
<glyph unicode="&#x15c;" horiz-adv-x="963" d="M456 -17q-193 0 -312 109t-119 287v15h239v-13q0 -73 62.5 -120t156.5 -47q36 0 67.5 10t55.5 27.5t38 45.5t14 61q0 115 -120 150l-153 44q-57 17 -102 47t-76 71t-47.5 93.5t-16.5 111.5q0 390 440 390q92 0 168.5 -30.5t124.5 -81t74 -112.5t26 -128v-19h-240 q-27 140 -180 140q-85 0 -130 -36.5t-45 -97.5q0 -50 30 -85.5t74 -48.5l153 -45q118 -34 188 -120t70 -203q0 -204 -110.5 -309.5t-329.5 -105.5zM755 1328l-65 61l-91 -61h-271l274 194h197l192 -194h-236z" />
<glyph unicode="&#x15d;" horiz-adv-x="849" d="M371 -17q-101 0 -185 37.5t-133.5 106.5t-49.5 155v16h228v-7q0 -48 48.5 -77t118.5 -29q32 0 61 7.5t51 26t22 45.5q0 30 -21 47t-60 27l-128 34q-36 10 -68.5 25t-61.5 38.5t-50 52t-33.5 66.5t-12.5 80q0 78 28.5 138t79.5 97t117.5 56t146.5 19q61 0 121 -20.5 t108 -56.5t78 -90t30 -116v-15h-228v6q-2 39 -42 64t-94 25q-52 0 -84.5 -20.5t-32.5 -55.5q0 -53 69 -72l142 -37q67 -18 117.5 -51.5t81 -86.5t30.5 -119q0 -162 -100 -239t-294 -77zM690 1248l176 -231h-228l-70 81l-103 -81h-262l273 231h214z" />
<glyph unicode="&#x15e;" horiz-adv-x="963" d="M246 -282l91 277q-144 31 -228 133.5t-84 250.5v15h239v-13q0 -73 62.5 -120t156.5 -47q36 0 67.5 10t55.5 27.5t38 45.5t14 61q0 115 -120 150l-153 44q-57 17 -102 47t-76 71t-47.5 93.5t-16.5 111.5q0 390 440 390q92 0 168.5 -30.5t124.5 -81t74 -112.5t26 -128v-19 h-240q-27 140 -180 140q-85 0 -130 -36.5t-45 -97.5q0 -50 30 -85.5t74 -48.5l153 -45q118 -34 188 -120t70 -203q0 -182 -88.5 -286t-262.5 -124l-64 -270h-235z" />
<glyph unicode="&#x15f;" horiz-adv-x="849" d="M162 -282l100 277q-115 27 -187 104.5t-72 182.5v16h228v-7q0 -48 48.5 -77t118.5 -29q32 0 61 7.5t51 26t22 45.5q0 30 -21 47t-60 27l-128 34q-36 10 -68.5 25t-61.5 38.5t-50 52t-33.5 66.5t-12.5 80q0 78 28.5 138t79.5 97t117.5 56t146.5 19q61 0 121 -20.5 t108 -56.5t78 -90t30 -116v-15h-228v6q-2 39 -42 64t-94 25q-52 0 -84.5 -20.5t-32.5 -55.5q0 -53 69 -72l142 -37q67 -18 117.5 -51.5t81 -86.5t30.5 -119q0 -280 -307 -311l-64 -270h-232z" />
<glyph unicode="&#x160;" horiz-adv-x="963" d="M456 -17q-193 0 -312 109t-119 287v15h239v-13q0 -73 62.5 -120t156.5 -47q36 0 67.5 10t55.5 27.5t38 45.5t14 61q0 115 -120 150l-153 44q-57 17 -102 47t-76 71t-47.5 93.5t-16.5 111.5q0 390 440 390q92 0 168.5 -30.5t124.5 -81t74 -112.5t26 -128v-19h-240 q-27 140 -180 140q-85 0 -130 -36.5t-45 -97.5q0 -50 30 -85.5t74 -48.5l153 -45q118 -34 188 -120t70 -203q0 -204 -110.5 -309.5t-329.5 -105.5zM604 1522l66 -63l90 63h272l-275 -194h-196l-192 194h235z" />
<glyph unicode="&#x161;" horiz-adv-x="849" d="M371 -17q-101 0 -185 37.5t-133.5 106.5t-49.5 155v16h228v-7q0 -48 48.5 -77t118.5 -29q32 0 61 7.5t51 26t22 45.5q0 30 -21 47t-60 27l-128 34q-36 10 -68.5 25t-61.5 38.5t-50 52t-33.5 66.5t-12.5 80q0 78 28.5 138t79.5 97t117.5 56t146.5 19q61 0 121 -20.5 t108 -56.5t78 -90t30 -116v-15h-228v6q-2 39 -42 64t-94 25q-52 0 -84.5 -20.5t-32.5 -55.5q0 -53 69 -72l142 -37q67 -18 117.5 -51.5t81 -86.5t30.5 -119q0 -162 -100 -239t-294 -77zM428 1017l-177 231h228l70 -81l103 81h262l-273 -231h-213z" />
<glyph unicode="&#x162;" horiz-adv-x="936" d="M1056 1015h-347l-216 -1015h-245l215 1015h-347l48 233h943zM164 -357l55 268h267l-54 -268l-99 -185h-168l99 185h-100z" />
<glyph unicode="&#x163;" horiz-adv-x="653" d="M203 713h-130l43 207h130l45 208h234l-44 -208h226l-42 -207h-227q-94 -442 -94 -462t13.5 -32t40.5 -12h158l-43 -207h-173q-59 0 -103.5 16.5t-71.5 46t-40 68t-13 85.5q0 84 91 497zM73 -357l55 268h268l-56 -268l-97 -185h-168l98 185h-100z" />
<glyph unicode="&#x164;" horiz-adv-x="936" d="M1056 1015h-347l-216 -1015h-245l215 1015h-347l48 233h943zM597 1522l66 -63l90 63h272l-275 -194h-196l-192 194h235z" />
<glyph unicode="&#x165;" horiz-adv-x="653" d="M973 1248l-184 -231h-194l80 231h298zM203 713h-130l43 207h130l45 208h234l-44 -208h226l-42 -207h-227q-94 -442 -94 -462t13.5 -32t40.5 -12h158l-43 -207h-173q-59 0 -103.5 16.5t-71.5 46t-40 68t-13 85.5q0 84 91 497z" />
<glyph unicode="&#x166;" horiz-adv-x="935" d="M1053 1015h-347l-68 -315h222l-34 -160h-222l-114 -540h-246l114 540h-222l34 160h222l67 315h-347l48 233h943z" />
<glyph unicode="&#x167;" horiz-adv-x="655" d="M205 713h-130l42 207h131l44 208h235l-44 -208h226l-43 -207h-226l-32 -148h226l-30 -143h-226q-33 -148 -33 -171q0 -13 6 -23t18.5 -15.5t29.5 -5.5h159l-43 -207h-173q-116 0 -172 59t-56 157q0 60 29 206h-131l31 143h130z" />
<glyph unicode="&#x168;" horiz-adv-x="1137" d="M325 386q0 -84 53 -128t153 -44q99 0 170 59t95 165q14 58 56.5 260.5t78.5 375.5l36 174h237q-142 -674 -169 -804q-18 -88 -43.5 -155t-67.5 -126.5t-99 -97.5t-139 -60t-186 -22q-97 0 -177 29t-131 79t-79 115.5t-28 138.5q0 19 3.5 48t13 79.5t18.5 96.5t27 132.5 t31.5 150.5t40 187t45.5 209h236q-17 -82 -41 -195t-38.5 -179.5t-32 -149.5t-27.5 -132t-19 -97t-13 -73.5t-4 -35.5zM911 1539h185q-19 -101 -73 -166t-139 -65q-59 0 -109 25l-48 23q-16 7 -32 7q-39 0 -57 -52h-186q20 102 73.5 167t139.5 65q59 0 108 -25l48 -23 q17 -7 32 -7q39 0 58 51z" />
<glyph unicode="&#x169;" horiz-adv-x="1011" d="M461 194q72 0 120.5 45t66.5 126l120 555h235l-196 -920h-235l21 95q-7 -15 -24.5 -32.5t-44 -36t-64.5 -31t-79 -12.5q-75 0 -134 29t-94.5 78t-54 107.5t-18.5 121.5q0 81 34 235l78 366h236l-77 -359q-43 -185 -43 -216q0 -69 36 -110t117 -41zM495 1019h-172 q19 102 72.5 167t138.5 65q56 0 109 -27l49 -23q20 -9 42 -9q10 0 20 5t20.5 18t16.5 33h175q-19 -102 -73 -167.5t-140 -65.5q-56 0 -108 27l-48 24q-20 8 -43 8q-15 0 -32 -13.5t-27 -41.5z" />
<glyph unicode="&#x16a;" horiz-adv-x="1137" d="M325 386q0 -84 53 -128t153 -44q99 0 170 59t95 165q14 58 56.5 260.5t78.5 375.5l36 174h237q-142 -674 -169 -804q-18 -88 -43.5 -155t-67.5 -126.5t-99 -97.5t-139 -60t-186 -22q-97 0 -177 29t-131 79t-79 115.5t-28 138.5q0 19 3.5 48t13 79.5t18.5 96.5t27 132.5 t31.5 150.5t40 187t45.5 209h236q-17 -82 -41 -195t-38.5 -179.5t-32 -149.5t-27.5 -132t-19 -97t-13 -73.5t-4 -35.5zM490 1520h608l-42 -189h-607z" />
<glyph unicode="&#x16b;" horiz-adv-x="1011" d="M461 194q72 0 120.5 45t66.5 126l120 555h235l-196 -920h-235l21 95q-7 -15 -24.5 -32.5t-44 -36t-64.5 -31t-79 -12.5q-75 0 -134 29t-94.5 78t-54 107.5t-18.5 121.5q0 81 34 235l78 366h236l-77 -359q-43 -185 -43 -216q0 -69 36 -110t117 -41zM362 1226h607l-41 -185 h-607z" />
<glyph unicode="&#x16c;" horiz-adv-x="1137" d="M325 386q0 -84 53 -128t153 -44q99 0 170 59t95 165q14 58 56.5 260.5t78.5 375.5l36 174h237q-142 -674 -169 -804q-18 -88 -43.5 -155t-67.5 -126.5t-99 -97.5t-139 -60t-186 -22q-97 0 -177 29t-131 79t-79 115.5t-28 138.5q0 19 3.5 48t13 79.5t18.5 96.5t27 132.5 t31.5 150.5t40 187t45.5 209h236q-17 -82 -41 -195t-38.5 -179.5t-32 -149.5t-27.5 -132t-19 -97t-13 -73.5t-4 -35.5zM873 1479q12 0 23 5.5t18.5 15.5t10.5 22h180q-18 -82 -87 -138t-151 -56h-235q-53 0 -93 25.5t-56.5 70t-4.5 98.5h158q-4 -18 6 -30.5t28 -12.5h203z " />
<glyph unicode="&#x16d;" horiz-adv-x="1011" d="M461 194q72 0 120.5 45t66.5 126l120 555h235l-196 -920h-235l21 95q-7 -15 -24.5 -32.5t-44 -36t-64.5 -31t-79 -12.5q-75 0 -134 29t-94.5 78t-54 107.5t-18.5 121.5q0 81 34 235l78 366h236l-77 -359q-43 -185 -43 -216q0 -69 36 -110t117 -41zM534 1017 q-82 0 -134.5 52.5t-52.5 131.5q0 19 6 47h155q-2 -7 -2 -19t6.5 -22.5t19 -17t27.5 -6.5h168q27 0 49.5 19t27.5 46h176q-21 -95 -102.5 -163t-175.5 -68h-168z" />
<glyph unicode="&#x16e;" horiz-adv-x="1137" d="M325 386q0 -84 53 -128t153 -44q99 0 170 59t95 165q14 58 56.5 260.5t78.5 375.5l36 174h237q-142 -674 -169 -804q-18 -88 -43.5 -155t-67.5 -126.5t-99 -97.5t-139 -60t-186 -22q-97 0 -177 29t-131 79t-79 115.5t-28 138.5q0 19 3.5 48t13 79.5t18.5 96.5t27 132.5 t31.5 150.5t40 187t45.5 209h236q-17 -82 -41 -195t-38.5 -179.5t-32 -149.5t-27.5 -132t-19 -97t-13 -73.5t-4 -35.5zM624 1423q0 55 38.5 94.5t92.5 39.5q55 0 94.5 -39.5t39.5 -94.5q0 -36 -18 -66t-49 -47.5t-67 -17.5q-55 0 -93 38.5t-38 92.5zM723 1423 q0 -13 9.5 -22.5t22.5 -9.5t22.5 9.5t9.5 22.5t-9.5 23t-22.5 10t-22.5 -10t-9.5 -23z" />
<glyph unicode="&#x16f;" horiz-adv-x="1011" d="M461 194q72 0 120.5 45t66.5 126l120 555h235l-196 -920h-235l21 95q-7 -15 -24.5 -32.5t-44 -36t-64.5 -31t-79 -12.5q-75 0 -134 29t-94.5 78t-54 107.5t-18.5 121.5q0 81 34 235l78 366h236l-77 -359q-43 -185 -43 -216q0 -69 36 -110t117 -41zM492 1131 q0 55 38.5 94.5t93.5 39.5q36 0 66.5 -18t48.5 -49t18 -67q0 -55 -39 -93t-94 -38t-93.5 38t-38.5 93zM588 1131q0 -15 10.5 -25t25.5 -10t25 10t10 25t-10 25.5t-25 10.5t-25.5 -10.5t-10.5 -25.5z" />
<glyph unicode="&#x170;" horiz-adv-x="1137" d="M325 386q0 -84 53 -128t153 -44q99 0 170 59t95 165q14 58 56.5 260.5t78.5 375.5l36 174h237q-142 -674 -169 -804q-18 -88 -43.5 -155t-67.5 -126.5t-99 -97.5t-139 -60t-186 -22q-97 0 -177 29t-131 79t-79 115.5t-28 138.5q0 19 3.5 48t13 79.5t18.5 96.5t27 132.5 t31.5 150.5t40 187t45.5 209h236q-17 -82 -41 -195t-38.5 -179.5t-32 -149.5t-27.5 -132t-19 -97t-13 -73.5t-4 -35.5zM558 1522h301l-211 -194h-206zM900 1522h301l-210 -194h-207z" />
<glyph unicode="&#x171;" horiz-adv-x="1011" d="M461 194q72 0 120.5 45t66.5 126l120 555h235l-196 -920h-235l21 95q-7 -15 -24.5 -32.5t-44 -36t-64.5 -31t-79 -12.5q-75 0 -134 29t-94.5 78t-54 107.5t-18.5 121.5q0 81 34 235l78 366h236l-77 -359q-43 -185 -43 -216q0 -69 36 -110t117 -41zM383 1248h297 l-192 -231h-194zM726 1248h297l-193 -231h-194z" />
<glyph unicode="&#x172;" horiz-adv-x="1137" d="M325 386q0 -84 53 -128t153 -44q99 0 170 59t95 165q14 58 56.5 260.5t78.5 375.5l36 174h237q-142 -674 -169 -804q-28 -140 -82 -237.5t-146 -153.5q-21 -13 -62.5 -36t-72 -40.5t-62 -38.5t-48.5 -41t-17 -38q0 -27 41 -27t102 27l-36 -163q-62 -33 -152 -33 q-51 0 -97 16.5t-77.5 53.5t-31.5 87q0 104 150 166q-113 11 -195.5 63t-123 128.5t-40.5 167.5q0 19 3.5 48t13 79.5t18.5 96.5t27 132.5t31.5 150.5t40 187t45.5 209h236q-17 -82 -41 -195t-38.5 -179.5t-32 -149.5t-27.5 -132t-19 -97t-13 -73.5t-4 -35.5z" />
<glyph unicode="&#x173;" horiz-adv-x="1011" d="M572 0l21 95q-7 -15 -24.5 -32.5t-44 -36t-64.5 -31t-79 -12.5q-75 0 -134 29t-94.5 78t-54 107.5t-18.5 121.5q0 81 34 235l78 366h236l-77 -359q-43 -185 -43 -216q0 -69 36 -110t117 -41q72 0 120.5 45t66.5 126l120 555h235l-196 -920q-15 -9 -40 -23.5t-38 -22.5 t-31.5 -20t-28.5 -20t-20 -17.5t-14 -19t-4 -18.5q0 -30 44 -30q33 0 102 30l-36 -163q-63 -33 -151 -33q-52 0 -97.5 16.5t-77.5 53.5t-32 87q0 61 50 106.5t139 73.5z" />
<glyph unicode="&#x174;" horiz-adv-x="1338" d="M731 0l-2 713l-317 -713h-259l36 1248h229l-37 -856l303 677h232l-2 -661l322 840h250l-495 -1248h-260zM950 1328l-66 61l-91 -61h-271l274 194h197l192 -194h-235z" />
<glyph unicode="&#x175;" horiz-adv-x="1253" d="M695 0l-23 639l-291 -639h-238l-48 920h231l21 -578l262 578h217l21 -563l256 563h253l-436 -920h-225zM900 1248l176 -231h-228l-69 81l-104 -81h-262l273 231h214z" />
<glyph unicode="&#x176;" horiz-adv-x="1077" d="M658 454l-97 -454h-238l95 454l-272 794h246l180 -542l409 542h287zM820 1328l-67 61l-90 -61h-271l274 194h196l192 -194h-234z" />
<glyph unicode="&#x177;" horiz-adv-x="874" d="M218 7l-136 913h236l76 -580l324 580h269l-575 -1007q-10 -16 -25.5 -44.5t-24 -42.5t-22.5 -37t-24 -34.5t-26 -27.5t-31 -24t-34.5 -16.5t-42.5 -11.5t-50 -3h-173l41 207h98q50 0 72 41zM711 1248l176 -231h-228l-69 81l-104 -81h-262l273 231h214z" />
<glyph unicode="&#x178;" horiz-adv-x="1077" d="M658 454l-97 -454h-238l95 454l-272 794h246l180 -542l409 542h287zM713 1529l-45 -208h-238l44 208h239zM1062 1529l-45 -208h-238l44 208h239z" />
<glyph unicode="&#x179;" horiz-adv-x="1037" d="M896 0h-947l48 231l785 784h-609l48 233h930l-48 -233l-785 -784h626zM688 1522h310l-228 -194h-216z" />
<glyph unicode="&#x17a;" horiz-adv-x="787" d="M787 713l-488 -506h394l-42 -207h-702l44 207l488 506h-371l43 207h679zM481 1248h306l-209 -231h-204z" />
<glyph unicode="&#x17b;" horiz-adv-x="1037" d="M896 0h-947l48 231l785 784h-609l48 233h930l-48 -233l-785 -784h626zM864 1529l-44 -208h-239l45 208h238z" />
<glyph unicode="&#x17c;" horiz-adv-x="787" d="M787 713l-488 -506h394l-42 -207h-702l44 207l488 506h-371l43 207h679zM677 1236l-45 -208h-234l44 208h235z" />
<glyph unicode="&#x17d;" horiz-adv-x="1037" d="M896 0h-947l48 231l785 784h-609l48 233h930l-48 -233l-785 -784h626zM646 1522l67 -63l91 63h270l-274 -194h-196l-192 194h234z" />
<glyph unicode="&#x17e;" horiz-adv-x="787" d="M787 713l-488 -506h394l-42 -207h-702l44 207l488 506h-371l43 207h679zM406 1017l-176 231h228l69 -81l104 81h262l-273 -231h-214z" />
<glyph unicode="&#x218;" horiz-adv-x="963" d="M456 -17q-193 0 -312 109t-119 287v15h239v-13q0 -73 62.5 -120t156.5 -47q36 0 67.5 10t55.5 27.5t38 45.5t14 61q0 115 -120 150l-153 44q-57 17 -102 47t-76 71t-47.5 93.5t-16.5 111.5q0 390 440 390q92 0 168.5 -30.5t124.5 -81t74 -112.5t26 -128v-19h-240 q-27 140 -180 140q-85 0 -130 -36.5t-45 -97.5q0 -50 30 -85.5t74 -48.5l153 -45q118 -34 188 -120t70 -203q0 -204 -110.5 -309.5t-329.5 -105.5zM207 -357l55 268h267l-55 -268l-98 -185h-167l97 185h-99z" />
<glyph unicode="&#x219;" horiz-adv-x="849" d="M371 -17q-101 0 -185 37.5t-133.5 106.5t-49.5 155v16h228v-7q0 -48 48.5 -77t118.5 -29q32 0 61 7.5t51 26t22 45.5q0 30 -21 47t-60 27l-128 34q-36 10 -68.5 25t-61.5 38.5t-50 52t-33.5 66.5t-12.5 80q0 78 28.5 138t79.5 97t117.5 56t146.5 19q61 0 121 -20.5 t108 -56.5t78 -90t30 -116v-15h-228v6q-2 39 -42 64t-94 25q-52 0 -84.5 -20.5t-32.5 -55.5q0 -53 69 -72l142 -37q67 -18 117.5 -51.5t81 -86.5t30.5 -119q0 -162 -100 -239t-294 -77zM144 -357l55 268h268l-55 -268l-99 -185h-167l98 185h-100z" />
<glyph unicode="&#x21a;" horiz-adv-x="936" d="M1056 1015h-347l-216 -1015h-245l215 1015h-347l48 233h943zM164 -357l55 268h267l-54 -268l-99 -185h-168l99 185h-100z" />
<glyph unicode="&#x21b;" horiz-adv-x="653" d="M203 713h-130l43 207h130l45 208h234l-44 -208h226l-42 -207h-227q-94 -442 -94 -462t13.5 -32t40.5 -12h158l-43 -207h-173q-59 0 -103.5 16.5t-71.5 46t-40 68t-13 85.5q0 84 91 497zM73 -357l55 268h268l-56 -268l-97 -185h-168l98 185h-100z" />
<glyph unicode="&#x232;" horiz-adv-x="1077" d="M658 454l-97 -454h-238l95 454l-272 794h246l180 -542l409 542h287zM463 1520h608l-41 -189h-608z" />
<glyph unicode="&#x233;" horiz-adv-x="874" d="M218 7l-136 913h236l76 -580l324 580h269l-575 -1007q-10 -16 -25.5 -44.5t-24 -42.5t-22.5 -37t-24 -34.5t-26 -27.5t-31 -24t-34.5 -16.5t-42.5 -11.5t-50 -3h-173l41 207h98q50 0 72 41zM298 1226h607l-41 -185h-607z" />
<glyph unicode="&#x237;" horiz-adv-x="447" d="M0 -43l203 963h235l-214 -1012q-23 -106 -102 -171t-190 -65h-105l43 207h43q71 0 87 78z" />
<glyph unicode="&#x2c6;" horiz-adv-x="815" d="M680 1248l177 -231h-228l-70 81l-103 -81h-262l273 231h213z" />
<glyph unicode="&#x2c7;" horiz-adv-x="815" d="M418 1017l-175 231h228l69 -81l103 81h262l-273 -231h-214z" />
<glyph unicode="&#x2d8;" horiz-adv-x="748" d="M408 1017q-82 0 -134.5 52.5t-52.5 131.5q0 23 5 47h155q-2 -7 -2 -19q0 -19 15.5 -32.5t38.5 -13.5h167q27 0 49.5 19t27.5 46h176q-13 -63 -55 -116t-101 -84t-121 -31h-168z" />
<glyph unicode="&#x2d9;" horiz-adv-x="374" d="M469 1236l-45 -208h-235l44 208h236z" />
<glyph unicode="&#x2da;" horiz-adv-x="382" d="M201 1131q0 55 39 94.5t93.5 39.5t94 -39.5t39.5 -94.5q0 -36 -18 -66t-49 -47.5t-67 -17.5q-55 0 -93.5 38t-38.5 93zM298 1131q0 -10 4.5 -18t12.5 -12.5t18 -4.5q15 0 25.5 10t10.5 25t-10.5 25.5t-25.5 10.5t-25 -10.5t-10 -25.5z" />
<glyph unicode="&#x2db;" horiz-adv-x="478" d="M84 0h235q-13 -8 -31.5 -19t-30.5 -18t-27 -16t-25 -15.5t-21 -14.5t-17.5 -15t-12.5 -14t-8.5 -14.5t-2.5 -14.5q0 -30 44 -30q33 0 102 30l-36 -163q-63 -33 -151 -33q-52 0 -98 16.5t-77.5 53.5t-31.5 87q0 61 50 106.5t139 73.5z" />
<glyph unicode="&#x2dc;" horiz-adv-x="806" d="M398 1019h-174q20 101 73.5 166.5t139.5 65.5q56 0 108 -27l48 -23q21 -9 43 -9q16 0 32.5 14t24.5 42h174q-19 -102 -72.5 -167.5t-138.5 -65.5q-56 0 -109 27l-48 24q-21 8 -43 8q-15 0 -32 -13.5t-26 -41.5z" />
<glyph unicode="&#x2dd;" horiz-adv-x="888" d="M325 1248h297l-192 -231h-195zM666 1248h298l-192 -231h-194z" />
<glyph unicode="&#x32c;" horiz-adv-x="815" d="M143 -230l-177 230h228l70 -80l103 80h262l-272 -230h-214z" />
<glyph unicode="&#x394;" horiz-adv-x="1118" d="M1067 0h-1122l446 1248h231zM506 867l-226 -630h451z" />
<glyph unicode="&#x3a9;" horiz-adv-x="1083" d="M527 0l82 391q46 12 83.5 40.5t64.5 72.5t39 100q2 9 11.5 50t18 77t15.5 75t7 54q0 84 -53 129t-152 45q-65 0 -119 -26t-91.5 -77t-53.5 -122q0 -2 -15.5 -68t-25.5 -117t-10 -72q0 -120 105 -158l-84 -394h-371l51 231h195q-65 51 -100 124t-35 157q0 24 3 54 t9.5 63.5t12 60t14 62.5t11.5 52q19 87 44.5 154t67.5 126.5t98.5 98t138.5 60.5t185 22q98 0 177.5 -29.5t130.5 -80t78.5 -115.5t27.5 -139q0 -30 -6 -73.5t-11.5 -71t-18 -83t-14.5 -64.5q-29 -134 -78 -227.5t-133 -150.5h124l-50 -231h-373z" />
<glyph unicode="&#x3bc;" horiz-adv-x="1023" d="M422 -17q-65 0 -106.5 32t-50.5 82l-90 -425h-234l264 1248h235l-76 -359q-43 -185 -43 -216q0 -151 151 -151q50 0 88.5 20.5t63.5 59t37 91.5l119 555h235l-195 -920h-235l19 87q-20 -43 -67 -73.5t-115 -30.5z" />
<glyph unicode="&#x3c0;" horiz-adv-x="1125" d="M207 713h-130l44 207h1080l-45 -207h-129l-150 -713h-236l150 713h-349l-150 -713h-235z" />
<glyph unicode="&#x1e80;" horiz-adv-x="1338" d="M731 0l-2 713l-317 -713h-259l36 1248h229l-37 -856l303 677h232l-2 -661l322 840h250l-495 -1248h-260zM578 1522h301l92 -194h-206z" />
<glyph unicode="&#x1e81;" horiz-adv-x="1253" d="M695 0l-23 639l-291 -639h-238l-48 920h231l21 -578l262 578h217l21 -563l256 563h253l-436 -920h-225zM495 1248h298l59 -231h-194z" />
<glyph unicode="&#x1e82;" horiz-adv-x="1338" d="M727 0l-1 713l-318 -713h-258l35 1248h230l-37 -856l302 677h233l-2 -661l322 840h249l-495 -1248h-260zM836 1522h310l-228 -194h-216z" />
<glyph unicode="&#x1e83;" horiz-adv-x="1253" d="M695 0l-23 639l-291 -639h-238l-48 920h231l21 -578l262 578h217l21 -563l256 563h253l-436 -920h-225zM714 1248h307l-210 -231h-204z" />
<glyph unicode="&#x1e84;" horiz-adv-x="1338" d="M731 0l-2 713l-317 -713h-259l36 1248h229l-37 -856l303 677h232l-2 -661l322 840h250l-495 -1248h-260zM843 1529l-44 -208h-240l45 208h239zM1192 1529l-44 -208h-240l46 208h238z" />
<glyph unicode="&#x1e85;" horiz-adv-x="1253" d="M695 0l-23 639l-291 -639h-238l-48 920h231l21 -578l262 578h217l21 -563l256 563h253l-436 -920h-225zM736 1236l-44 -208h-236l44 208h236zM1085 1236l-44 -208h-235l44 208h235z" />
<glyph unicode="&#x1eca;" horiz-adv-x="468" d="M519 1248l-264 -1248h-238l265 1248h237zM238 -89l-44 -209h-238l44 209h238z" />
<glyph unicode="&#x1ecb;" horiz-adv-x="448" d="M510 1248l-45 -209h-235l44 209h236zM440 920l-196 -920h-235l196 920h235zM223 -89l-45 -209h-235l45 209h235z" />
<glyph unicode="&#x1ecc;" horiz-adv-x="1095" d="M150 804q18 87 43.5 154t68 126.5t99 98t138 60.5t185.5 22q97 0 176.5 -29.5t131 -80t79 -115.5t27.5 -139q0 -24 -6.5 -70.5t-18.5 -106.5t-21.5 -106.5t-23 -105.5t-14.5 -68q-19 -88 -44.5 -155t-67.5 -126.5t-99 -97.5t-138.5 -60t-185.5 -22q-97 0 -176.5 29 t-130.5 79.5t-78.5 115.5t-27.5 138q0 25 6.5 70.5t18.5 108.5t21 105t23 107t15 68zM391 809q-1 -4 -17 -75t-30 -136t-27 -130.5t-13 -81.5q0 -84 53 -128t153 -44q99 0 169.5 58.5t93.5 165.5q1 3 17 75.5t30 136t26.5 129.5t12.5 81q0 85 -53 129.5t-152 44.5 t-169.5 -59t-93.5 -166zM549 -89l-44 -209h-240l45 209h239z" />
<glyph unicode="&#x1ecd;" horiz-adv-x="977" d="M879 372q-23 -98 -57.5 -168.5t-87 -121t-128 -75t-176.5 -24.5q-166 0 -266.5 95.5t-100.5 251.5q0 62 37 224q23 99 57 169t87 121t128.5 75.5t176.5 24.5q165 0 266 -96t101 -251q0 -63 -37 -225zM337 566q-46 -210 -46 -236q0 -63 38 -102t118 -39q77 0 126.5 44.5 t67.5 126.5q47 214 47 237q0 24 -5.5 44.5t-17.5 38.5t-30 30.5t-44.5 20t-59.5 7.5q-77 0 -126 -44.5t-68 -127.5zM490 -89l-45 -209h-234l44 209h235z" />
<glyph unicode="&#x1ee4;" horiz-adv-x="1137" d="M325 386q0 -84 53 -128t153 -44q99 0 170 59t95 165q14 58 56.5 260.5t78.5 375.5l36 174h237q-142 -674 -169 -804q-18 -88 -43.5 -155t-67.5 -126.5t-99 -97.5t-139 -60t-186 -22q-97 0 -177 29t-131 79t-79 115.5t-28 138.5q0 19 3.5 48t13 79.5t18.5 96.5t27 132.5 t31.5 150.5t40 187t45.5 209h236q-17 -82 -41 -195t-38.5 -179.5t-32 -149.5t-27.5 -132t-19 -97t-13 -73.5t-4 -35.5zM568 -89l-44 -209h-239l45 209h238z" />
<glyph unicode="&#x1ee5;" horiz-adv-x="1011" d="M461 194q72 0 120.5 45t66.5 126l120 555h235l-196 -920h-235l21 95q-7 -15 -24.5 -32.5t-44 -36t-64.5 -31t-79 -12.5q-75 0 -134 29t-94.5 78t-54 107.5t-18.5 121.5q0 81 34 235l78 366h236l-77 -359q-43 -185 -43 -216q0 -69 36 -110t117 -41zM503 -89l-45 -209h-235 l44 209h236z" />
<glyph unicode="&#x1ef2;" horiz-adv-x="1077" d="M658 454l-97 -454h-238l95 454l-272 794h246l180 -542l409 542h287zM447 1522h301l93 -194h-207z" />
<glyph unicode="&#x1ef3;" horiz-adv-x="874" d="M218 7l-136 913h236l76 -580l324 580h269l-575 -1007q-10 -16 -25.5 -44.5t-24 -42.5t-22.5 -37t-24 -34.5t-26 -27.5t-31 -24t-34.5 -16.5t-42.5 -11.5t-50 -3h-173l41 207h98q50 0 72 41zM306 1248h298l59 -231h-194z" />
<glyph unicode="&#x2000;" horiz-adv-x="787" />
<glyph unicode="&#x2001;" horiz-adv-x="1575" />
<glyph unicode="&#x2002;" horiz-adv-x="787" />
<glyph unicode="&#x2003;" horiz-adv-x="1575" />
<glyph unicode="&#x2004;" horiz-adv-x="525" />
<glyph unicode="&#x2005;" horiz-adv-x="393" />
<glyph unicode="&#x2006;" horiz-adv-x="262" />
<glyph unicode="&#x2007;" horiz-adv-x="262" />
<glyph unicode="&#x2008;" horiz-adv-x="196" />
<glyph unicode="&#x2009;" horiz-adv-x="315" />
<glyph unicode="&#x200a;" horiz-adv-x="87" />
<glyph unicode="&#x2010;" horiz-adv-x="658" d="M98 597h517l-45 -214h-517z" />
<glyph unicode="&#x2011;" horiz-adv-x="658" d="M98 597h517l-45 -214h-517z" />
<glyph unicode="&#x2012;" horiz-adv-x="658" d="M98 597h517l-45 -214h-517z" />
<glyph unicode="&#x2013;" horiz-adv-x="961" d="M98 597h820l-45 -214h-820z" />
<glyph unicode="&#x2014;" horiz-adv-x="1525" d="M98 597h1383l-45 -214h-1383z" />
<glyph unicode="&#x2018;" horiz-adv-x="473" d="M503 1044l-61 -285h-285l61 285l120 204h168l-121 -204h118z" />
<glyph unicode="&#x2019;" horiz-adv-x="473" d="M199 962l61 286h285l-60 -286l-121 -203h-168l119 203h-116z" />
<glyph unicode="&#x201a;" horiz-adv-x="473" d="M-3 0l60 285h285l-60 -285l-122 -203h-167l119 203h-115z" />
<glyph unicode="&#x201c;" horiz-adv-x="901" d="M503 1044l-61 -285h-285l61 285l120 204h168l-121 -204h118zM930 1044l-61 -285h-284l60 285l121 204h168l-121 -204h117z" />
<glyph unicode="&#x201d;" horiz-adv-x="901" d="M627 962l61 286h285l-60 -286l-122 -203h-167l121 203h-118zM199 962l61 286h285l-60 -286l-121 -203h-168l122 203h-119z" />
<glyph unicode="&#x201e;" horiz-adv-x="901" d="M424 0l61 285h285l-61 -285l-121 -203h-168l120 203h-116zM-3 0l60 285h285l-60 -285l-122 -203h-167l119 203h-115z" />
<glyph unicode="&#x2020;" horiz-adv-x="1086" d="M231 920h301l70 328h218l-70 -328h301l-43 -209h-302l-184 -866h-218l184 866h-299z" />
<glyph unicode="&#x2021;" horiz-adv-x="1086" d="M231 920h301l70 328h218l-70 -328h301l-43 -209h-302l-70 -330h299l-42 -208h-301l-70 -328h-218l70 328h-301l43 208h302l70 330h-299z" />
<glyph unicode="&#x2022;" horiz-adv-x="1425" d="M445 531q0 124 88 211.5t212 87.5t211.5 -87.5t87.5 -211.5t-87.5 -212t-211.5 -88t-212 88t-88 212z" />
<glyph unicode="&#x2026;" horiz-adv-x="1528" d="M522 0l61 285h284l-60 -285h-285zM1032 0l60 285h285l-61 -285h-284zM12 0l61 285h285l-60 -285h-286z" />
<glyph unicode="&#x202f;" horiz-adv-x="315" />
<glyph unicode="&#x2030;" horiz-adv-x="2181" d="M1773 134q77 0 94 84q64 281 64 311q0 26 -18 43.5t-60 17.5q-77 0 -96 -84q-21 -90 -41.5 -192.5t-20.5 -119.5q0 -26 18 -43t60 -17zM1764 -10q-64 0 -116 23.5t-83 69.5t-31 106q0 17 8 66.5t18 98t19.5 94t9.5 49.5q26 120 87.5 178.5t185.5 58.5q98 0 163.5 -55 t65.5 -145q0 -17 -8 -65.5t-18 -100t-19 -92.5t-11 -50q-13 -59 -32.5 -100.5t-50.5 -73.5t-77.5 -47t-110.5 -15zM1156 1248h189l-857 -1248h-189zM396 658q77 0 94 83q64 282 64 312q0 16 -6.5 29t-24.5 22.5t-47 9.5q-77 0 -97 -84q-13 -56 -27 -123.5t-24 -122.5 t-10 -66q0 -26 18 -43t60 -17zM386 513q-64 0 -116 24t-82.5 70t-30.5 106q0 17 8 66.5t18 98t19.5 94.5t9.5 49q26 121 87 179t186 58q98 0 163.5 -54.5t65.5 -144.5q0 -23 -13 -96.5t-26.5 -136t-16.5 -76.5q-14 -59 -33 -100.5t-50.5 -73.5t-78 -47.5t-110.5 -15.5z M1165 134q78 0 95 84q64 281 64 311q0 17 -6.5 29.5t-24.5 22t-47 9.5q-77 0 -97 -84q-62 -274 -62 -312q0 -26 18 -43t60 -17zM1156 -10q-98 0 -163.5 54.5t-65.5 144.5q0 17 8 66.5t17.5 98t19 94t9.5 49.5q26 120 87.5 178.5t186.5 58.5q64 0 116 -24t82.5 -70t30.5 -106 q0 -32 -24.5 -153.5t-32.5 -154.5q-14 -59 -33 -100.5t-50 -73.5t-77.5 -47t-110.5 -15z" />
<glyph unicode="&#x2039;" horiz-adv-x="489" d="M313 109l-256 276l45 203l374 276l-68 -313l-123 -92l84 -90z" />
<glyph unicode="&#x203a;" horiz-adv-x="489" d="M185 864l257 -276l-44 -203l-375 -276l67 313l124 91l-84 91z" />
<glyph unicode="&#x2044;" horiz-adv-x="257" d="M499 1248h189l-858 -1248h-188z" />
<glyph unicode="&#x205f;" horiz-adv-x="393" />
<glyph unicode="&#x2070;" horiz-adv-x="598" d="M379 704q-64 0 -116 24t-82.5 69.5t-30.5 105.5q0 17 8 67t18 98.5t19.5 94t9.5 49.5q26 120 87.5 178.5t185.5 58.5q98 0 163.5 -55t65.5 -145q0 -31 -24 -154t-32 -155q-11 -46 -25 -81.5t-35.5 -65.5t-50.5 -49t-69 -29.5t-92 -10.5zM372 1221l-35 -160l208 172 q2 3 2 11q0 26 -18 43t-60 17q-77 0 -97 -83zM388 848q78 0 95 84l36 158l-209 -172v-10q0 -26 18 -43t60 -17z" />
<glyph unicode="&#x2074;" horiz-adv-x="549" d="M353 714l32 150h-303l30 141l394 433h166l-93 -433h73l-26 -141h-75l-32 -150h-166zM321 1005h92l32 139z" />
<glyph unicode="&#x2075;" horiz-adv-x="585" d="M379 704q-64 0 -116 24t-82.5 69.5t-30.5 105.5v18h161v-3.5t-0.5 -4t-0.5 -3v-2.5q0 -26 18 -43t60 -17q78 0 95 79l16 76q0 48 -62 48q-34 0 -60.5 -12.5t-38.5 -35.5h-167l93 435h467l-32 -143h-301l-24 -119q1 1 7.5 3.5t9.5 3.5t10 3.5t13 3.5l15 2.5t19 2t21 0.5 q43 0 86 -21.5t74.5 -66t31.5 -100.5q0 -20 -9 -67q-25 -118 -87 -177t-186 -59z" />
<glyph unicode="&#x2076;" horiz-adv-x="588" d="M379 704q-64 0 -116 24t-82.5 69.5t-30.5 105.5q0 18 5 54.5t13.5 78t16 78t14 67t6.5 31.5q14 59 33.5 100.5t51 73.5t78 47.5t110.5 15.5q98 0 163.5 -55t65.5 -145v-18h-160v13q0 26 -18 43t-60 17q-80 0 -97 -83l-10 -50q33 17 90 17q36 0 70 -13t62 -38.5t45 -67.5 t17 -95q0 -41 -7 -67q-12 -45 -28.5 -78t-45 -63t-75.5 -46t-111 -16zM388 848q78 0 95 84q9 33 9 46q0 66 -79 66q-78 0 -95 -84q-8 -40 -8 -52q0 -26 18 -43t60 -17z" />
<glyph unicode="&#x2077;" horiz-adv-x="501" d="M144 714l348 581h-315l28 143h499l-31 -143l-347 -581h-182z" />
<glyph unicode="&#x2078;" horiz-adv-x="575" d="M374 704q-62 0 -114 23t-85.5 72t-33.5 115q0 18 3 38.5t12.5 50t32 58t55.5 47.5q-30 47 -30 109q0 27 5 54t21 60.5t42 58t72.5 42t106.5 17.5q101 0 165 -57t64 -146q0 -23 -4.5 -47t-15 -52t-31.5 -54t-51 -44q36 -53 36 -117q0 -13 -1.5 -28t-8 -38t-16.5 -44 t-29.5 -43.5t-44.5 -38.5t-64 -26t-86 -10zM381 848q80 0 80 89q0 24 -9.5 42t-27 27t-41.5 9q-82 0 -82 -90q0 -36 21.5 -56.5t58.5 -20.5zM449 1146q44 0 62 25t18 62q0 32 -18.5 51.5t-56.5 19.5q-29 0 -47.5 -14t-24.5 -32t-6 -41q0 -71 73 -71z" />
<glyph unicode="&#x2079;" horiz-adv-x="588" d="M467 1449q99 0 164.5 -55t65.5 -145q0 -18 -5.5 -54t-13.5 -78t-15.5 -78t-14.5 -66.5t-7 -32.5q-14 -59 -33.5 -100.5t-50.5 -73t-77.5 -47t-110.5 -15.5q-98 0 -164 54.5t-66 144.5v18h160v-13q0 -26 18 -43t61 -17q79 0 96 84l11 49q-34 -17 -91 -17q-36 0 -69.5 13 t-62 38.5t-46 67.5t-17.5 95q0 38 8 68q10 35 21.5 62.5t32 55t47 45t67.5 29t92 11.5zM458 1304q-77 0 -94 -83q-9 -34 -9 -47q0 -66 78 -66q79 0 96 84q7 36 7 52q0 26 -18 43t-60 17z" />
<glyph unicode="&#x207a;" horiz-adv-x="587" d="M153 920v153h175v176h153v-176h178v-153h-178v-175h-153v175h-175z" />
<glyph unicode="&#x207b;" horiz-adv-x="587" d="M153 920v153h506v-153h-506z" />
<glyph unicode="&#x207c;" horiz-adv-x="587" d="M153 789v153h506v-153h-506zM153 1054v154h506v-154h-506z" />
<glyph unicode="&#x207d;" horiz-adv-x="330" d="M325 506h-26q-84 0 -124.5 44t-40.5 111q0 16 1 32t4 37.5t5.5 40t9.5 52.5t12.5 60.5t17 77t20 90.5t25 112.5t29.5 131.5q17 75 53 109t119 34h90l-32 -151h-44q-20 0 -28 -10.5t-11 -28.5q-118 -549 -118 -558t3 -16t8.5 -11t12.5 -4h46z" />
<glyph unicode="&#x207e;" horiz-adv-x="332" d="M119 506h-90l32 153h44q14 0 22.5 6.5t12 13t6.5 18.5q27 125 63 298q53 250 53 261q0 13 -7 22t-18 9h-45l32 151h26q84 0 124.5 -43.5t40.5 -109.5q0 -24 -3 -52t-7.5 -56t-16.5 -84.5t-22.5 -103.5t-33.5 -149.5t-41 -188.5q-9 -39 -20 -63.5t-30 -44t-48.5 -28.5 t-73.5 -9z" />
<glyph unicode="&#x207f;" horiz-adv-x="615" d="M114 714l112 534h166l-11 -51q8 20 37.5 42.5t75 22.5t79.5 -15t53.5 -37.5t31 -54t15.5 -59.5t4 -59q0 -57 -14 -114l-44 -209h-167l47 220q3 18 7 34.5t6.5 26t4.5 17.5t2.5 12t0.5 6q0 19 -2.5 31.5t-10 25.5t-25 20t-44.5 7q-72 0 -89 -80l-69 -320h-166z" />
<glyph unicode="&#x2080;" horiz-adv-x="598" d="M191 -184q-99 0 -164.5 55t-65.5 145q0 17 8 66.5t17.5 98t19 94.5t10.5 50q25 120 87 178t186 58q98 0 164 -54.5t66 -144.5q0 -32 -24.5 -154t-33.5 -155q-13 -59 -32.5 -100.5t-50.5 -73.5t-77.5 -47.5t-109.5 -15.5zM184 333l-36 -160l209 172q1 4 1 12q0 26 -18 43 t-60 17q-77 0 -96 -84zM199 -39q78 0 95 83l36 159l-209 -173v-8q0 -27 18 -44t60 -17z" />
<glyph unicode="&#x2081;" horiz-adv-x="401" d="M30 -173l109 513l-164 -121l45 211l164 121h165l-153 -724h-166z" />
<glyph unicode="&#x2082;" horiz-adv-x="571" d="M-107 -173l30 143l335 261q42 33 62 62.5t20 63.5q0 26 -18 43t-60 17q-87 0 -100 -98h-164q12 59 31.5 101.5t50.5 75.5t78.5 49t112 16t116.5 -24t82.5 -69.5t30.5 -105.5q0 -149 -138 -255l-182 -137h245l-27 -143h-505z" />
<glyph unicode="&#x2083;" horiz-adv-x="578" d="M175 -184q-105 0 -167.5 54t-62.5 146v18h162q0 -1 -1 -6t-1 -6q0 -27 18.5 -44t60.5 -17q43 0 69.5 27.5t26.5 61.5q0 29 -22 46.5t-59 17.5h-63l32 144h63q51 0 81 25.5t30 73.5q0 26 -18 43t-60 17q-73 0 -93 -68h-164q15 53 34.5 90t50.5 65.5t75.5 42.5t104.5 14 q99 0 165 -54.5t66 -144.5q0 -65 -32 -116t-85 -73q22 -19 34 -51t12 -67q0 -116 -69.5 -177.5t-187.5 -61.5z" />
<glyph unicode="&#x2084;" horiz-adv-x="549" d="M164 -173l32 150h-303l30 140l395 434h165l-92 -434h72l-26 -140h-75l-32 -150h-166zM132 117h92l33 140z" />
<glyph unicode="&#x2085;" horiz-adv-x="585" d="M191 -184q-99 0 -164.5 55t-65.5 145v18h162q0 -3 -1 -7.5l-1 -4.5q0 -27 18 -44t60 -17q78 0 95 78q16 76 16 77q0 48 -62 48q-34 0 -60.5 -12.5t-37.5 -35.5h-167l92 435h467l-32 -143h-301l-24 -119q2 0 8 3t9 4t10 3.5t13.5 3.5t15 2.5t18.5 2t21 0.5q25 0 51.5 -8 t51.5 -24.5t45 -38.5t32 -52.5t12 -65.5q0 -15 -9 -66q-13 -58 -32.5 -99.5t-51 -73.5t-78.5 -48t-110 -16z" />
<glyph unicode="&#x2086;" horiz-adv-x="588" d="M191 -184q-99 0 -164.5 55t-65.5 145q0 18 5 54t13 78t15.5 78t14.5 67t7 32q14 59 33.5 100.5t51 73t78 47t110.5 15.5q98 0 164 -54.5t66 -144.5v-18h-161v13q0 26 -18 43t-60 17q-79 0 -96 -84l-11 -49q33 17 91 17q35 0 69 -13t62 -38.5t45.5 -67.5t17.5 -95 q0 -40 -7 -67q-12 -45 -28.5 -78t-45.5 -63.5t-76 -46.5t-110 -16zM199 -39q78 0 95 83q9 34 9 46q0 67 -79 67t-96 -84q-7 -36 -7 -51q0 -27 18 -44t60 -17z" />
<glyph unicode="&#x2087;" horiz-adv-x="501" d="M-44 -173l347 581h-315l28 143h499l-30 -143l-348 -581h-181z" />
<glyph unicode="&#x2088;" horiz-adv-x="575" d="M185 -184q-62 0 -114 23t-85.5 72t-33.5 116q0 18 3 38t12.5 50t32 58.5t55.5 47.5q-30 45 -30 109q0 26 5 53.5t21.5 60.5t42 58t72 42t106.5 17q101 0 164.5 -56.5t63.5 -146.5q0 -22 -4 -46t-14.5 -52.5t-31.5 -54.5t-51 -43q36 -53 36 -118q0 -13 -1.5 -27.5t-8 -38 t-16.5 -44.5t-29 -43t-44.5 -38t-64.5 -26.5t-86 -10.5zM192 -39q80 0 80 89q0 36 -21 57t-57 21q-82 0 -82 -91q0 -35 21.5 -55.5t58.5 -20.5zM260 258q44 0 62 25.5t18 61.5q0 22 -7.5 37.5t-24.5 25t-43 9.5q-42 0 -60 -25.5t-18 -61.5q0 -72 73 -72z" />
<glyph unicode="&#x2089;" horiz-adv-x="588" d="M278 561q98 0 164 -54.5t66 -144.5q0 -18 -5.5 -54.5t-13.5 -78t-15.5 -78t-14 -67t-7.5 -31.5q-14 -59 -33.5 -100.5t-50.5 -73.5t-77.5 -47.5t-110.5 -15.5t-116 24t-83 70t-31 106v18h160v-12q0 -27 18.5 -44t60.5 -17q79 0 96 83l11 51q-35 -18 -91 -18q-35 0 -69 13 t-62.5 38.5t-46 67.5t-17.5 95q0 41 7 67q10 36 21.5 63t32 54.5t47.5 45.5t67.5 29t92.5 11zM269 417q-77 0 -94 -84q-10 -36 -10 -46q0 -30 19.5 -48t59.5 -18q79 0 96 83q7 36 7 53q0 16 -6.5 29t-24.5 22t-47 9z" />
<glyph unicode="&#x208d;" horiz-adv-x="330" d="M136 -381h-26q-83 0 -124 44t-41 111q0 16 1 31.5t4 37.5t6 40.5t9.5 52t12 60t17 77.5t20.5 90.5t25 112.5t30 132q10 50 26.5 79t51.5 46.5t92 17.5h91l-32 -152h-44q-20 0 -28 -10t-11 -29q-118 -548 -118 -557q0 -14 6.5 -22.5t18.5 -8.5h45z" />
<glyph unicode="&#x208e;" horiz-adv-x="332" d="M-70 -381h-90l32 153h44q14 0 23 6.5t12 13t6 17.5q27 126 63 299q53 249 53 261t-7 21t-18 9h-45l33 152h25q84 0 124.5 -43.5t40.5 -109.5q0 -24 -3 -52.5t-7.5 -56t-16.5 -84.5t-22.5 -103.5t-33 -149.5t-41.5 -189q-9 -38 -20 -62.5t-30 -44.5t-48.5 -28.5 t-73.5 -8.5z" />
<glyph unicode="&#x20ac;" horiz-adv-x="1095" d="M780 424h-331q-5 -31 -5 -53q0 -101 45.5 -141.5t144.5 -40.5q37 0 74 10.5t70 30t60 46.5l136 -162q-151 -131 -367 -131q-114 0 -201.5 40.5t-138.5 124.5t-51 201q0 46 3 75h-148l68 142h105q11 63 23 116h-144l68 143h107q1 2 1 3q17 77 40.5 138.5t62 119t90 95.5 t126 61t168.5 23q68 0 129.5 -17t104.5 -44.5t72 -55.5t47 -56l-172 -135q-25 44 -75.5 73t-119.5 29q-96 0 -154 -54.5t-82 -168.5l-4 -11h439l-68 -143h-400q-5 -28 -15 -72l-10 -44h370z" />
<glyph unicode="&#x2113;" horiz-adv-x="634" d="M221 980q32 150 101 217.5t195 67.5q102 0 154 -51t52 -141q0 -82 -32.5 -171.5t-86 -170t-121 -151.5t-139.5 -124q-39 -185 -46 -222.5t-7 -62.5q0 -52 24 -75t73 -23q11 0 26 2.5t27.5 5t31.5 7t32 7.5l5 -56q-93 -56 -226 -56q-97 0 -162 52.5t-65 142.5q0 30 11 86 l-97 -67l-28 56l142 98zM445 928l-80 -377q65 58 125 129t105.5 155t45.5 146q0 42 -17.5 69.5t-57.5 27.5q-45 0 -74.5 -34.5t-46.5 -115.5z" />
<glyph unicode="&#x2116;" horiz-adv-x="1712" d="M1202 651h503l-34 -161h-503zM1509 848q72 0 89 80q24 92 24 114q0 34 -17.5 55.5t-65.5 21.5q-69 0 -89 -82q-6 -25 -14.5 -65t-8.5 -47q0 -16 3 -28t11 -24t25.5 -18.5t42.5 -6.5zM1498 704q-107 0 -168.5 63t-61.5 163q0 47 15 97q14 58 32.5 98.5t49 72.5t76.5 48 t109 16q108 0 169 -62.5t61 -164.5q0 -46 -14 -96q-8 -33 -17 -59t-21.5 -51t-28 -43.5t-35.5 -34.5t-44 -26t-55 -15.5t-67 -5.5zM1222 1248l-265 -1248h-239l-283 847l-180 -847h-238l265 1248h238l284 -847l179 847h239z" />
<glyph unicode="&#x2117;" horiz-adv-x="1389" d="M508 308v622h288q65 0 113 -21t74.5 -56.5t39 -75t12.5 -84.5q0 -28 -5 -55.5t-16.5 -55t-30.5 -50.5t-44.5 -41t-62 -28.5t-80.5 -10.5h-123v-144h-165zM673 619h123q22 0 37.5 8t22.5 20.5t10 24t3 21.5t-3 21t-10 23.5t-22.5 20.5t-37.5 8h-123v-147zM87 624 q0 105 32.5 202.5t91.5 176.5t138 138t177 91.5t203 32.5q131 0 249.5 -50.5t204.5 -136.5t136.5 -204.5t50.5 -249.5t-50.5 -250t-136.5 -204.5t-204.5 -136t-249.5 -50.5t-250 50.5t-204.5 136t-136.5 204.5t-51 250zM280 624q0 -91 35.5 -173.5t95.5 -142.5t143.5 -95.5 t174.5 -35.5t174 35.5t142 95.5t94 142.5t35 173.5q0 121 -59 224t-161.5 163t-224.5 60q-91 0 -174.5 -35.5t-143.5 -95.5t-95.5 -142.5t-35.5 -173.5z" />
<glyph unicode="&#x2122;" horiz-adv-x="1358" d="M319 524v564h-205v160h576v-160h-205v-564h-166zM755 524v724h159l169 -348l168 348h160v-724h-160v416l-107 -222h-123l-107 222v-416h-159z" />
<glyph unicode="&#x212e;" horiz-adv-x="1396" d="M310 517v-308q0 -27 21 -45q61 -50 140 -82q102 -39 248 -39q148 0 250 39q103 42 175 114h89q-96 -115 -233 -169q-112 -44 -281 -44q-167 0 -279 44q-162 65 -263.5 208t-101.5 329.5t101.5 330t263.5 208.5q112 45 279 45q169 0 281 -45q162 -65 263.5 -208.5 t101.5 -329.5v-31h-1037q-8 0 -13 -4.5t-5 -12.5zM1129 613v308q0 27 -21 45q-60 50 -139 81q-102 40 -250 40q-146 0 -248 -40q-79 -31 -140 -81q-21 -19 -21 -45v-308q0 -7 5 -12.5t13 -5.5h784q5 0 9 2.5t6 6.5t2 9z" />
<glyph unicode="&#x2153;" horiz-adv-x="1382" d="M214 524l109 513l-165 -121l45 210l164 122h165l-153 -724h-165zM971 1248h189l-857 -1248h-189zM980 -10q-105 0 -167.5 53.5t-62.5 145.5v18h163q0 -1 -1 -6.5t-1 -6.5q0 -26 18 -43t60 -17q43 0 69.5 27.5t26.5 61.5q0 29 -21.5 46.5t-58.5 17.5h-65l33 145h64 q50 0 80.5 24.5t30.5 72.5q0 26 -18.5 43.5t-60.5 17.5q-73 0 -93 -68h-163q11 42 25.5 73.5t36.5 58.5t50 44t66.5 26.5t86.5 9.5q64 0 116 -24t83 -70t31 -106q0 -65 -32 -116t-84 -73q44 -39 44 -117t-32.5 -132t-89.5 -80t-134 -26z" />
<glyph unicode="&#x2154;" horiz-adv-x="1562" d="M78 524l31 142l335 262q27 22 44 40.5t27 39.5t10 45q0 16 -6 29t-24.5 22.5t-47.5 9.5q-87 0 -100 -99h-163q12 59 31 101.5t50.5 75.5t79 49.5t111.5 16.5q98 0 164 -54.5t66 -144.5q0 -149 -139 -255l-182 -138h246l-28 -142h-505zM1153 1248h189l-857 -1248h-189z M1160 -10q-69 0 -121 24t-80.5 69t-28.5 106v18h162q0 -1 -1 -6.5t-1 -6.5q0 -26 18 -43t60 -17q43 0 70 27.5t27 61.5q0 29 -21.5 46.5t-58.5 17.5h-64l32 145h64q50 0 80.5 24.5t30.5 72.5q0 26 -18.5 43.5t-60.5 17.5q-73 0 -93 -68h-163q14 53 34 90t50.5 66t75.5 42.5 t105 13.5q98 0 164 -55t66 -145q0 -43 -14.5 -81t-40.5 -65.5t-61 -42.5q44 -39 44 -117q0 -116 -69 -177t-187 -61z" />
<glyph unicode="&#x2155;" horiz-adv-x="1384" d="M214 524l109 513l-165 -121l45 210l164 122h165l-153 -724h-165zM971 1248h189l-857 -1248h-189zM998 -10q-64 0 -116 23.5t-83 69.5t-31 106v18h162q0 -3 -1 -8l-1 -5q0 -26 18 -43t61 -17q77 0 94 78q16 76 16 77q0 48 -63 48q-16 0 -31 -3t-27.5 -9t-22.5 -15t-16 -21 h-168l93 434h466l-32 -142h-301l-22 -120l10 4.5t15 6t16 4.5t24 4t29 1q42 0 85.5 -21.5t75 -66t31.5 -101.5q0 -20 -9 -66q-12 -58 -31.5 -99.5t-51 -73.5t-78.5 -47.5t-111 -15.5z" />
<glyph unicode="&#x2156;" horiz-adv-x="1564" d="M78 524l31 142l335 262q27 22 44 40.5t27 39.5t10 45q0 16 -6 29t-24.5 22.5t-47.5 9.5q-87 0 -100 -99h-163q12 59 31 101.5t50.5 75.5t79 49.5t111.5 16.5q98 0 164 -54.5t66 -144.5q0 -149 -139 -255l-182 -138h246l-28 -142h-505zM1153 1248h189l-857 -1248h-189z M1178 -10q-98 0 -164 54.5t-66 144.5v18h162q0 -3 -1 -8l-1 -5q0 -26 18.5 -43t60.5 -17q77 0 95 78q15 76 15 77q0 48 -62 48q-34 0 -60.5 -12.5t-37.5 -35.5h-168l93 434h467l-33 -142h-301l-22 -120l10 4.5t15 6t16 4.5t24 4t29 1q42 0 85.5 -21.5t75 -66t31.5 -101.5 q0 -20 -9 -66q-12 -58 -31.5 -99.5t-51 -73.5t-78.5 -47.5t-111 -15.5z" />
<glyph unicode="&#x2157;" horiz-adv-x="1559" d="M360 513q-69 0 -121 24t-80.5 69.5t-28.5 106.5v18h162q0 -1 -0.5 -6.5t-0.5 -6.5q0 -26 18 -43t60 -17q43 0 69.5 27.5t26.5 60.5q0 20 -9.5 34.5t-28 22.5t-42.5 8h-64l32 144h64q50 0 80 25t30 73q0 26 -18 43.5t-60 17.5q-73 0 -92 -68h-165q15 53 35 90t50.5 65.5 t75 42.5t105.5 14q98 0 164 -54.5t66 -144.5q0 -65 -32 -116.5t-84 -73.5q45 -40 45 -117q0 -116 -69.5 -177.5t-187.5 -61.5zM1148 1248h188l-857 -1248h-188zM1173 -10q-99 0 -165 54.5t-66 144.5v18h163q0 -3 -1 -8l-1 -5q0 -26 18 -43t60 -17q77 0 94 78q6 25 10 44.5 t5.5 25t1.5 7.5q0 48 -63 48q-21 0 -40.5 -5.5t-34.5 -16.5t-23 -26h-167l92 434h467l-32 -142h-301l-23 -120q1 1 8.5 4t11.5 4.5t13 4t16.5 4t19.5 2.5t26 1q31 0 64 -13t62 -36t47.5 -60t18.5 -80q0 -20 -9 -66q-13 -58 -32 -99.5t-50.5 -73.5t-79 -47.5t-110.5 -15.5z " />
<glyph unicode="&#x2158;" horiz-adv-x="1478" d="M296 524l32 149h-303l30 141l394 434h166l-93 -434h73l-27 -141h-75l-32 -149h-165zM264 814h93l31 140zM1067 1248h189l-857 -1248h-188zM1092 -10q-99 0 -164.5 54.5t-65.5 144.5v18h163q0 -3 -1 -8l-1 -5q0 -26 18 -43t60 -17q77 0 94 78q6 25 10 44.5t5.5 25t1.5 7.5 q0 48 -63 48q-33 0 -60 -12.5t-38 -35.5h-167l92 434h467l-32 -142h-301l-23 -120q1 1 8.5 4t11.5 4.5t13 4t16.5 4t19.5 2.5t25 1q43 0 86.5 -21.5t75 -66t31.5 -101.5q0 -20 -9 -66q-26 -118 -88 -177t-185 -59z" />
<glyph unicode="&#x2159;" horiz-adv-x="1375" d="M214 524l109 513l-165 -121l45 210l164 122h165l-153 -724h-165zM971 1248h189l-857 -1248h-189zM987 -10q-98 0 -164 54.5t-66 144.5q0 18 5.5 54t13.5 77.5t15.5 78t14 66.5t7.5 32q14 59 33.5 100.5t50.5 73.5t77.5 47.5t110.5 15.5t116 -24t83 -70t31 -106v-17h-161 v12q0 26 -18 43.5t-60 17.5q-79 0 -96 -84l-11 -50q35 18 92 18q35 0 69 -13t62 -38.5t45.5 -67.5t17.5 -95q0 -41 -7 -68q-12 -45 -29 -77.5t-45.5 -63t-75.5 -46t-111 -15.5zM996 134q77 0 94 84q10 36 10 46q0 66 -79 66t-96 -84q-7 -36 -7 -52q0 -17 6.5 -29.5 t24.5 -21.5t47 -9z" />
<glyph unicode="&#x215a;" horiz-adv-x="1551" d="M376 513q-99 0 -164.5 55t-65.5 145v18h162q0 -3 -1 -8l-1 -5q0 -12 4 -22.5t12.5 -19t24.5 -13.5t38 -5q77 0 94 78q16 76 16 77q0 47 -62 47q-33 0 -60 -12t-38 -35h-167l92 435h467l-32 -143h-301l-23 -119q1 0 7.5 3t9.5 4t10 3t13 3.5t14.5 3t18.5 2t21 0.5 q43 0 86.5 -21.5t75 -66.5t31.5 -101q0 -15 -10 -66q-13 -58 -32 -100t-50.5 -73.5t-78.5 -47.5t-111 -16zM1149 1248h189l-857 -1248h-189zM1163 -10q-98 0 -163.5 54.5t-65.5 144.5q0 18 5 54t13 77.5t15.5 78t14.5 66.5t7 32q14 59 33.5 100.5t51 73.5t78 47.5 t110.5 15.5t116 -24t82.5 -70t30.5 -106v-17h-160v12q0 17 -6.5 29.5t-24.5 22t-47 9.5q-80 0 -97 -84l-10 -50q35 18 90 18q36 0 70 -13t62.5 -38.5t45.5 -67.5t17 -95q0 -38 -8 -68q-12 -45 -28.5 -77.5t-45 -63t-75.5 -46t-111 -15.5zM1173 134q77 0 94 84q8 33 8 46 q0 66 -78 66q-79 0 -96 -84q-7 -40 -7 -52q0 -26 18.5 -43t60.5 -17z" />
<glyph unicode="&#x215b;" horiz-adv-x="1325" d="M214 524l109 513l-165 -121l45 210l164 122h165l-153 -724h-165zM971 1248h189l-857 -1248h-189zM966 -10q-46 0 -87.5 13t-74.5 38.5t-52 66.5t-19 91q0 14 1.5 28.5t7.5 39t16.5 45.5t30.5 44t47 38q-30 46 -30 109q0 27 5 54t21 60t41.5 58t72 42t107.5 17 q49 0 91.5 -15t72.5 -41.5t47.5 -64.5t17.5 -82q0 -23 -4.5 -47t-15 -52t-32 -53.5t-50.5 -43.5q35 -53 35 -117q0 -13 -1.5 -28t-7.5 -38.5t-16.5 -44t-29.5 -43t-44 -38.5t-64 -26t-86 -10zM973 134q80 0 80 89q0 37 -21 57.5t-58 20.5q-81 0 -81 -90q0 -36 21 -56.5 t59 -20.5zM1041 432q43 0 61.5 25t18.5 62q0 32 -18.5 51.5t-56.5 19.5q-43 0 -61 -25t-18 -62q0 -71 74 -71z" />
<glyph unicode="&#x215c;" horiz-adv-x="1501" d="M360 513q-69 0 -121 24t-80.5 69.5t-28.5 106.5v18h162q0 -1 -0.5 -6.5t-0.5 -6.5q0 -26 18 -43t60 -17q43 0 69.5 27.5t26.5 60.5q0 20 -9.5 34.5t-28 22.5t-42.5 8h-64l32 144h64q50 0 80 25t30 73q0 26 -18 43.5t-60 17.5q-73 0 -92 -68h-165q15 53 35 90t50.5 65.5 t75 42.5t105.5 14q98 0 164 -54.5t66 -144.5q0 -65 -32 -116.5t-84 -73.5q45 -40 45 -117q0 -116 -69.5 -177.5t-187.5 -61.5zM1148 1248h188l-857 -1248h-188zM1141 -10q-63 0 -115 22.5t-85.5 71t-33.5 115.5q0 14 1.5 28.5t7.5 39t16.5 45.5t30.5 44t47 38 q-30 46 -30 109q0 16 2 32t6.5 36t13.5 38.5t22 37.5t32 34.5t43 27.5t57 18.5t72 6.5q100 0 164 -57t64 -146q0 -23 -4.5 -47t-15 -52t-32 -53.5t-50.5 -43.5q35 -53 35 -117q0 -14 -1.5 -28.5t-7.5 -38t-16 -44t-29 -43t-44.5 -38.5t-64 -26t-85.5 -10zM1148 134 q80 0 80 89q0 37 -21.5 57.5t-57.5 20.5q-82 0 -82 -90q0 -24 10 -41.5t28 -26.5t43 -9zM1215 432q44 0 62 25t18 62q0 32 -18 51.5t-56 19.5q-43 0 -61 -25t-18 -62q0 -71 73 -71z" />
<glyph unicode="&#x215d;" horiz-adv-x="1503" d="M376 513q-99 0 -164.5 55t-65.5 145v18h162q0 -3 -1 -8l-1 -5q0 -12 4 -22.5t12.5 -19t24.5 -13.5t38 -5q77 0 94 78q16 76 16 77q0 47 -62 47q-33 0 -60 -12t-38 -35h-167l92 435h467l-32 -143h-301l-23 -119q1 0 7.5 3t9.5 4t10 3t13 3.5t14.5 3t18.5 2t21 0.5 q43 0 86.5 -21.5t75 -66.5t31.5 -101q0 -15 -10 -66q-13 -58 -32 -100t-50.5 -73.5t-78.5 -47.5t-111 -16zM1149 1248h189l-857 -1248h-189zM1142 -10q-62 0 -114 22.5t-86 71t-34 115.5q0 14 1.5 28.5t8 39t17 45.5t30.5 44t47 38q-31 46 -31 109q0 27 5.5 54t21.5 60 t42 58t72.5 42t106.5 17q101 0 164.5 -57t63.5 -146q0 -23 -4 -47t-14.5 -52t-31.5 -53.5t-51 -43.5q35 -52 35 -117q0 -14 -1.5 -28.5t-7.5 -38t-16 -44t-29.5 -43t-44.5 -38.5t-64 -26t-86 -10zM1149 134q80 0 80 89q0 37 -21 57.5t-57 20.5q-82 0 -82 -90 q0 -36 21.5 -56.5t58.5 -20.5zM1217 432q44 0 62 25t18 62q0 32 -18.5 51.5t-56.5 19.5q-42 0 -60 -25t-18 -62q0 -71 73 -71z" />
<glyph unicode="&#x215e;" horiz-adv-x="1371" d="M141 524l347 581h-315l28 143h499l-30 -143l-347 -581h-182zM1019 1248h189l-857 -1248h-189zM1012 -10q-63 0 -114.5 22.5t-85 71t-33.5 115.5q0 14 1.5 28.5t7.5 39t16.5 45.5t30.5 44t47 38q-30 46 -30 109q0 27 5 54t21.5 60t42 58t72 42t107.5 17q100 0 164 -57 t64 -146q0 -23 -4.5 -47t-15 -52t-32 -53.5t-50.5 -43.5q36 -53 36 -117q0 -13 -2 -28t-8 -38.5t-16 -44t-29.5 -43t-44.5 -38.5t-64 -26t-86 -10zM1019 134q81 0 81 89q0 37 -21 57.5t-58 20.5q-82 0 -82 -90q0 -36 21 -56.5t59 -20.5zM1087 432q44 0 62 25t18 62 q0 32 -18.5 51.5t-56.5 19.5q-43 0 -60.5 -25t-17.5 -62q0 -71 73 -71z" />
<glyph unicode="&#x215f;" horiz-adv-x="731" d="M214 524l109 513l-165 -121l45 210l164 122h165l-153 -724h-165zM971 1248h189l-857 -1248h-189z" />
<glyph unicode="&#x2190;" horiz-adv-x="1425" d="M488 422l287 -286l-149 -153l-546 544l546 546l149 -153l-285 -286h855v-212h-857z" />
<glyph unicode="&#x2191;" horiz-adv-x="1425" d="M607 857l-286 -287l-153 149l545 546l545 -546l-153 -149l-285 285v-855h-213v857z" />
<glyph unicode="&#x2192;" horiz-adv-x="1425" d="M651 136l286 286h-857v212h855l-284 286l149 153l545 -546l-545 -544z" />
<glyph unicode="&#x2193;" horiz-adv-x="1425" d="M321 677l286 -286v857h213v-856l285 285l153 -150l-545 -544l-545 544z" />
<glyph unicode="&#x2196;" horiz-adv-x="1425" d="M447 656v-408h-214v771h772v-215h-406l664 -663l-149 -150z" />
<glyph unicode="&#x2197;" horiz-adv-x="1425" d="M978 248v408l-667 -665l-149 150l664 663h-406v215h772v-771h-214z" />
<glyph unicode="&#x2198;" horiz-adv-x="1425" d="M978 364v408h214v-772h-772v216h406l-664 663l149 149z" />
<glyph unicode="&#x2199;" horiz-adv-x="1425" d="M447 772v-408l667 664l149 -149l-664 -663h406v-216h-772v772h214z" />
<glyph unicode="&#x21b0;" horiz-adv-x="1425" d="M488 422l287 -286l-149 -153l-546 544l546 546l149 -153l-285 -286h855v-962h-211v750h-646z" />
<glyph unicode="&#x21b1;" horiz-adv-x="1425" d="M651 136l286 286h-645v-750h-212v962h855l-284 286l149 153l545 -546l-545 -544z" />
<glyph unicode="&#x21b2;" horiz-adv-x="1425" d="M1345 1248v-826h-857l287 -286l-149 -153l-546 544l546 546l149 -153l-285 -286h644v614h211z" />
<glyph unicode="&#x21b3;" horiz-adv-x="1425" d="M80 422v826h212v-614h643l-284 286l149 153l545 -546l-545 -544l-149 153l286 286h-857z" />
<glyph unicode="&#x2202;" horiz-adv-x="1047" d="M677 357q4 12 10 43.5t6 41.5q0 45 -19.5 78t-55 49.5t-82.5 16.5q-85 0 -136.5 -39.5t-76.5 -116.5q-3 -8 -7 -26t-7 -36t-3 -24q0 -69 42.5 -107t114.5 -38q162 0 214 158zM755 734l25 123q6 23 6 46q0 68 -42.5 106t-114.5 38q-173 0 -214 -156h-224q23 91 60 158 t93 116.5t134.5 74.5t179.5 25q79 0 145.5 -26.5t110.5 -72.5t68.5 -108t24.5 -133q0 -40 -13 -109l-93 -459q-75 -374 -466 -374q-53 0 -101 12t-86.5 34t-69 53t-51 68.5t-31.5 81.5t-11 91q0 37 13 107q73 374 467 374q57 0 108 -19t82 -51z" />
<glyph unicode="&#x220f;" horiz-adv-x="1144" d="M150 0v1248h914v-1248h-241v1008h-432v-1008h-241z" />
<glyph unicode="&#x2211;" horiz-adv-x="1232" d="M866 459l-454 -569h678v-218h-966v218l455 569l-455 571v218h966v-218h-678z" />
<glyph unicode="&#x2212;" d="M92 597h821v-214h-821v214z" />
<glyph unicode="&#x221a;" horiz-adv-x="1017" d="M996 1248l-372 -1248h-321l-96 318h-122v216h280l98 -327l310 1041h223z" />
<glyph unicode="&#x221e;" d="M130 599q0 93 65 158.5t158 65.5q51 0 96 -21.5t76 -58.5q32 37 76.5 58.5t95.5 21.5q93 0 158.5 -65.5t65.5 -159t-65.5 -158t-158.5 -64.5q-26 0 -50.5 5.5t-46 15.5t-40.5 24.5t-35 32.5q-31 -36 -76 -57t-96 -21q-61 0 -112 29.5t-81 80.5t-30 113zM287 599 q0 -27 19.5 -47t46.5 -20t47 19.5t20 47.5t-19.5 47.5t-47.5 19.5q-27 0 -46.5 -20t-19.5 -47zM631 599q0 -27 19.5 -47t46.5 -20t47.5 19.5t20.5 47.5t-20 47.5t-48 19.5t-47 -20t-19 -47z" />
<glyph unicode="&#x222b;" horiz-adv-x="512" d="M399 957v-1049q0 -114 -58 -175t-177 -61h-50v218q40 0 54 18t14 55v1049q0 236 235 236h50v-218q-40 0 -54 -18.5t-14 -54.5z" />
<glyph unicode="&#x2248;" d="M230 556l-138 151q131 145 282 145q26 0 51.5 -6t44.5 -15.5t39.5 -20t37.5 -19.5t36.5 -15t36.5 -6q38 0 73 18.5t82 63.5l138 -152q-131 -144 -282 -144q-37 0 -74 12.5t-62 28t-55 28.5t-55 13q-26 0 -49.5 -8.5t-48.5 -26t-57 -47.5zM230 128l-138 152 q130 144 282 144q26 0 51.5 -6t44.5 -15.5t39.5 -20t37.5 -19.5t36.5 -15t36.5 -6q38 0 73 18.5t82 63.5l138 -152q-131 -144 -282 -144q-37 0 -74 13t-62 28.5t-55 28.5t-55 13q-26 0 -50 -9t-48.5 -26.5t-56.5 -47.5z" />
<glyph unicode="&#x2260;" d="M92 383h218l135 214h-353v214h489l155 242l177 -113l-85 -129h85v-214h-220l-135 -214h355v-213h-491l-153 -241l-177 112l83 129h-83v213z" />
<glyph unicode="&#x2264;" d="M913 269l-821 212v238l821 213v-223l-423 -109l423 -108v-223zM92 214h821v-214h-821v214z" />
<glyph unicode="&#x2265;" d="M913 481l-821 -212v223l423 108l-423 109v223l821 -213v-238zM92 214h821v-214h-821v214z" />
<glyph unicode="&#x25a0;" horiz-adv-x="1425" d="M253 0v920h920v-920h-920z" />
<glyph unicode="&#x25a1;" horiz-adv-x="1425" d="M253 0v920h920v-920h-920zM465 707v-495h495v495h-495z" />
<glyph unicode="&#x25ca;" horiz-adv-x="1011" d="M993 624l-362 -624h-182l-362 624l362 624h182zM338 624l202 -348l201 348l-201 347z" />
<glyph unicode="&#x25cb;" horiz-adv-x="1425" d="M231 463q0 98 38.5 187t103 153.5t153.5 102.5t187 38q78 0 151.5 -24.5t132.5 -69t103.5 -103.5t69 -132.5t24.5 -151.5q0 -65 -17.5 -127.5t-48.5 -115t-75.5 -97t-97 -75.5t-115 -48t-127.5 -17q-98 0 -187 38t-153.5 102t-103 153t-38.5 187zM444 463q0 -111 79 -190 t189.5 -79t189.5 79t79 190t-79 190.5t-189 79.5q-73 0 -135 -36.5t-98 -98.5t-36 -135z" />
<glyph unicode="&#x25cf;" horiz-adv-x="1425" d="M231 463q0 98 38.5 187t103 153.5t153.5 102.5t187 38q78 0 151.5 -24.5t132.5 -69t103.5 -103.5t69 -132.5t24.5 -151.5q0 -65 -17.5 -127.5t-48.5 -115t-75.5 -97t-97 -75.5t-115 -48t-127.5 -17q-98 0 -187 38t-153.5 102t-103 153t-38.5 187z" />
<glyph unicode="&#x25fc;" horiz-adv-x="916" d="M0 918h918v-918h-918v918z" />
<glyph unicode="&#xfb00;" horiz-adv-x="1225" d="M820 713h-378l-151 -713h-236l152 713h-130l44 207h129l19 92q23 106 102 171t190 65h221l-42 -207h-159q-72 0 -88 -79l-8 -42h377l20 92q23 106 102.5 171t189.5 65h221l-43 -207h-158q-71 0 -87 -79l-9 -42h228l-44 -207h-228l-151 -713h-235z" />
<glyph unicode="&#xfb01;" horiz-adv-x="1061" d="M740 1041h-159q-72 0 -88 -79l-8 -42h228l-45 -207h-226l-151 -713h-236l152 713h-130l44 207h129l19 92q23 106 102 171t190 65h221zM1122 1248l-44 -209h-235l44 209h235zM1053 920l-196 -920h-235l196 920h235z" />
<glyph unicode="&#xfb02;" horiz-adv-x="1061" d="M740 1041h-159q-72 0 -88 -79l-8 -42h228l-45 -207h-226l-151 -713h-236l152 713h-130l44 207h129l19 92q23 106 102 171t190 65h221zM857 0h-235l265 1248h235z" />
<glyph unicode="&#xfb03;" horiz-adv-x="1674" d="M820 713h-378l-151 -713h-236l152 713h-130l44 207h129l19 92q23 106 102 171t190 65h221l-42 -207h-159q-72 0 -88 -79l-8 -42h377l20 92q23 106 102.5 171t189.5 65h221l-43 -207h-158q-71 0 -87 -79l-9 -42h228l-44 -207h-228l-151 -713h-235zM1736 1248l-45 -209 h-235l44 209h236zM1666 920l-196 -920h-235l196 920h235z" />
<glyph unicode="&#xfb04;" horiz-adv-x="1674" d="M820 713h-378l-151 -713h-236l152 713h-130l44 207h129l19 92q23 106 102 171t190 65h221l-42 -207h-159q-72 0 -88 -79l-8 -42h377l20 92q23 106 102.5 171t189.5 65h221l-43 -207h-158q-71 0 -87 -79l-9 -42h228l-44 -207h-228l-151 -713h-235zM1470 0h-235l265 1248 h236z" />
<glyph horiz-adv-x="0" />
<glyph horiz-adv-x="1064" d="M298 46q-49 10 -68 43t-19 96v456q-50 0 -67 43q-42 16 -42 66q0 31 19 50q-30 16 -47 43.5t-17 61.5q0 33 17.5 61.5t46.5 43.5q-19 19 -19 51q0 27 15.5 46.5t40.5 23.5q11 37 42.5 61.5t70.5 24.5q40 0 78 -30q8 22 24 39.5t38 28t47 10.5q29 0 55 -15t43 -40 q24 12 51 12q33 0 61.5 -18t44.5 -48q21 22 50 22q22 0 39.5 -11.5t25.5 -31.5q26 -6 46.5 -22.5t33 -41t12.5 -50.5q0 -32 -17 -59t-44 -42v-68h7q81 0 111.5 -32.5t30.5 -110.5v-383q0 -78 -30.5 -110t-111.5 -32h-7q0 -64 -19.5 -96t-67.5 -42v-46h-474v46zM772 185v723 q-30 8 -53 31h-147q-34 -34 -82 -34q-59 0 -94 49q-13 -6 -29 -6q-33 0 -52 19q-13 -20 -17 -27v-755q0 -33 12.5 -47t44.5 -14h359q32 0 45 14t13 47zM173 823v-34q-17 0 -27 -11.5t-10 -27.5t10.5 -26.5t26.5 -10.5q0 -17 10.5 -27.5t27.5 -10.5v262q33 0 56.5 21.5 t26.5 53.5v7h34q0 -12 5.5 -20.5t14 -13t19.5 -4.5q16 0 27 10.5t11 27.5h33q0 -23 -16 -46q22 -34 68 -34q34 0 58.5 24t24.5 58h146q0 -34 24.5 -58t59 -24t59 24t24.5 58.5t-24.5 59t-59.5 24.5q0 16 -11.5 27.5t-27.5 11.5t-26.5 -10.5t-10.5 -28.5h-34q0 34 -25 58.5 t-60 24.5q-17 0 -33 -6.5t-27 -18.5t-16 -28q14 -4 25.5 -14t18 -24t6.5 -30h-34q0 17 -11 27.5t-27.5 10.5t-27 -10.5t-10.5 -27.5h-34q0 27 16.5 46.5t41.5 23.5q10 32 34 53q-10 19 -30 30t-41 11q-34 0 -57.5 -23.5t-24.5 -56.5q12 -27 12 -51h-33q0 34 -25 58.5 t-59 24.5q-27 0 -48 -15t-29 -39q23 -6 37.5 -24.5t14.5 -43.5h-34q0 16 -11.5 27.5t-27.5 11.5t-26.5 -11.5t-10.5 -27.5t8 -26.5t21 -11.5h8v-34h-8q-15 -1 -29 -8t-24 -18.5t-16 -26.5t-6 -31q0 -34 21.5 -57.5t53.5 -24.5h8zM921 326v383q0 23 -5.5 36t-17.5 19t-32 6 h-7v-505h7q30 0 42.5 14t12.5 47zM371 184v668h27v-668h-27zM670 184v668h27v-668h-27zM570 184v668h27v-668h-27zM471 184v668h26v-668h-26z" />
<glyph horiz-adv-x="515" d="M-36 -357l56 268h267l-56 -268l-97 -185h-168l98 185h-100z" />
<glyph d="M884 372q-23 -98 -57 -168.5t-87 -121t-128.5 -75t-176.5 -24.5q-163 0 -265 92t-102 233q0 88 105 567q23 99 57 169t87 121t128.5 75.5t176.5 24.5q163 0 265 -93t102 -233q0 -87 -105 -567zM410 887q-8 -37 -33.5 -153.5t-38.5 -179.5l421 347q1 11 1 26 q0 27 -8.5 50.5t-27 42t-49 29t-71.5 10.5q-77 0 -126.5 -44.5t-67.5 -127.5zM646 360q6 27 15.5 70.5t17.5 82.5t18.5 88t18.5 87l-418 -346q-2 -9 -2 -21q0 -22 5.5 -41t17.5 -36t30 -29t44.5 -19t58.5 -7q77 0 127 44.5t67 126.5z" />
<glyph d="M365 207l155 737l-282 -206l65 303l282 207h235l-220 -1041h294l-44 -207h-818l43 207h290z" />
<glyph d="M983 939q0 -133 -63 -241t-180 -203l-355 -288h458l-43 -207h-817l42 207l568 463q78 64 120 124.5t42 132.5q0 27 -9 50.5t-27 42t-49 29t-71 10.5q-48 0 -85 -17t-60.5 -46.5t-37 -64.5t-18.5 -76h-234q20 102 53.5 176t87 127.5t131 80t181.5 26.5q81 0 149.5 -25 t116 -68.5t74 -103.5t26.5 -129z" />
<glyph d="M420 -17q-168 0 -267.5 91.5t-99.5 233.5q0 23 4 49h228q-3 -21 -3 -36q0 -28 9 -51t27 -41.5t49 -29t71 -10.5q86 0 142 60t56 134q0 60 -41.5 98t-111.5 38h-104l45 207h103q63 0 113 25t78 71t28 105q0 27 -8.5 50.5t-27 42t-49 29t-71.5 10.5q-76 0 -126 -44 t-68 -124h-234q23 95 57.5 162t87.5 116t127 72.5t173 23.5q163 0 265 -93t102 -233q0 -119 -57.5 -209t-151.5 -130q42 -32 65 -87.5t23 -118.5q0 -192 -115.5 -301.5t-317.5 -109.5z" />
<glyph d="M887 285h-128l-60 -285h-236l61 285h-538l43 201l698 762h235l-162 -762h128zM325 486h240l76 346z" />
<glyph d="M673 360q27 125 27 137q0 49 -33.5 80.5t-105.5 31.5q-60 0 -110 -26.5t-75 -74.5h-239l157 740h755l-44 -207h-520l-57 -275q67 50 178 50q82 0 156.5 -40t121 -113.5t46.5 -162.5q0 -30 -19 -128q-27 -130 -79.5 -214t-144.5 -129.5t-226 -45.5q-162 0 -264 92 t-102 233q0 5 3 49h228q-3 -32 -3 -36q0 -28 9 -51t27 -41.5t49 -29t71 -10.5q77 0 126 44t68 127z" />
<glyph d="M392 753q63 51 178 51q65 0 125 -23.5t106.5 -66.5t74 -108t27.5 -143q0 -50 -9 -91q-23 -98 -57 -168t-87 -121t-128.5 -75.5t-176.5 -24.5q-107 0 -191 42.5t-129 116.5t-45 166q0 107 104 567q22 99 56.5 169t87.5 121t128 75.5t176 24.5q163 0 265.5 -93t102.5 -233 q0 -5 -4 -48h-228q4 31 4 36q0 27 -9 50.5t-27 42t-49 29t-72 10.5q-76 0 -125 -44.5t-70 -127.5q-3 -14 -28 -134zM323 425q-17 -81 -17 -104q0 -28 9 -51t27 -41.5t49 -29t72 -10.5q77 0 127 44.5t68 126.5q15 77 15 105q0 58 -38.5 95t-117.5 37q-77 0 -126.5 -44.5 t-67.5 -127.5z" />
<glyph d="M1008 1041l-610 -1041h-264l611 1041h-546l44 207h808z" />
<glyph d="M207 860q0 38 5.5 75t19.5 77.5t35 76.5t54.5 68.5t76 56t101 37.5t127.5 14q79 0 146.5 -26t114 -70t73 -104t26.5 -128q0 -47 -9.5 -93.5t-30 -94t-58 -90t-88.5 -71.5q71 -91 71 -209q0 -31 -4.5 -64t-16.5 -73t-31.5 -75.5t-52 -70t-75 -59t-103.5 -39.5t-134 -15 q-107 0 -193 42.5t-135 121t-49 179.5q0 41 8 84.5t27.5 93t58.5 95t94 74.5q-58 80 -58 187zM304 344q0 -71 43.5 -113t121.5 -42q47 0 82 17.5t54 46t28.5 60.5t9.5 66q0 71 -43 113t-121 42q-46 0 -81.5 -17.5t-55 -46t-29 -60.5t-9.5 -66zM757 916q0 65 -38.5 104 t-109.5 39q-58 0 -98.5 -29t-58 -71t-17.5 -92q0 -64 38.5 -102.5t109.5 -38.5q44 0 78 16t54.5 43.5t31 60.5t10.5 70z" />
<glyph d="M675 493q-28 -22 -74.5 -35.5t-103.5 -13.5q-66 0 -125.5 23.5t-106 66t-74 107.5t-27.5 143q0 47 9 91q23 98 57 168.5t87 121t128.5 75.5t176.5 25q162 0 263.5 -92.5t101.5 -233.5q0 -107 -103 -567q-23 -98 -57 -168.5t-87 -121t-128.5 -75t-176.5 -24.5 q-163 0 -265 92t-102 233q0 5 3 49h228q-3 -32 -3 -36q0 -22 5.5 -41t17.5 -36t30 -29t44.5 -19t58.5 -7q152 0 194 171q10 41 29 133zM745 821q15 77 15 106q0 27 -8.5 50.5t-27 42t-49 29t-71.5 10.5q-77 0 -126.5 -44.5t-67.5 -127.5q-16 -77 -16 -105q0 -58 38.5 -94.5 t118.5 -36.5q77 0 126.5 44t67.5 126z" />
<glyph d="M886 372q-23 -98 -57.5 -168.5t-87 -121t-128 -75t-176.5 -24.5q-163 0 -265 92t-102 233q0 88 105 567q23 99 57 169t87 121t128.5 75.5t176.5 24.5q162 0 264.5 -93t102.5 -233q0 -87 -105 -567zM412 887q-8 -34 -25.5 -116t-31 -143.5t-28 -131.5t-22 -115.5 t-7.5 -59.5q0 -28 8.5 -51t27 -41.5t49 -29t71.5 -10.5q77 0 126.5 44.5t67.5 126.5q8 37 25.5 116.5t31 143t28 132.5t22.5 115t8 60q0 58 -39 95t-118 37q-52 0 -91.5 -20.5t-65.5 -58.5t-37 -93z" />
<glyph d="M884 372q-23 -98 -57 -168.5t-87 -121t-128.5 -75t-176.5 -24.5q-163 0 -265 92t-102 233q0 88 105 567q23 99 57 169t87 121t128.5 75.5t176.5 24.5q163 0 265 -93t102 -233q0 -87 -105 -567zM410 887q-8 -37 -33.5 -153.5t-38.5 -179.5l421 347q1 11 1 26 q0 27 -8.5 50.5t-27 42t-49 29t-71.5 10.5q-77 0 -126.5 -44.5t-67.5 -127.5zM646 360q6 27 15.5 70.5t17.5 82.5t18.5 88t18.5 87l-418 -346q-2 -9 -2 -21q0 -22 5.5 -41t17.5 -36t30 -29t44.5 -19t58.5 -7q77 0 127 44.5t67 126.5z" />
<glyph horiz-adv-x="673" d="M203 0l200 908l-282 -206l64 339l282 207h239l-264 -1248h-239z" />
<glyph horiz-adv-x="965" d="M-34 0l44 231l569 455q31 24 52.5 43.5t43 43.5t35 46t22 48t8.5 53q0 49 -38.5 81.5t-116.5 32.5q-48 0 -85 -17t-60 -45t-36.5 -58.5t-18.5 -63.5h-237q16 81 40.5 144t61.5 115t86 85.5t116 52t150 18.5q109 0 192.5 -42t130 -118.5t46.5 -176.5q0 -65 -16.5 -126.5 t-47.5 -117t-76 -105t-104 -91.5l-351 -257h456l-45 -231h-821z" />
<glyph horiz-adv-x="974" d="M418 -17q-171 0 -269.5 92t-98.5 244q0 5 0.5 19.5t0.5 18.5h233q0 -3 -1 -14t-1 -15q0 -49 38 -81.5t117 -32.5q42 0 79 15t62 39.5t39 54.5t14 60q0 55 -40.5 88.5t-111.5 33.5h-103l44 231h104q97 0 157 48.5t60 135.5q0 49 -38 81.5t-117 32.5q-74 0 -124 -36 t-66 -102h-239q24 92 58.5 157.5t87 114.5t127.5 73t174 24q164 0 266.5 -93t102.5 -244q0 -114 -57.5 -203t-150.5 -128q27 -22 46.5 -55t30 -71t10.5 -77q0 -198 -115 -304.5t-319 -106.5z" />
<glyph horiz-adv-x="945" d="M447 0l59 269h-536l44 226l697 753h239l-163 -753h129l-41 -226h-129l-60 -269h-239zM313 495h241l73 338z" />
<glyph horiz-adv-x="984" d="M447 -17q-108 0 -192 42t-130.5 118.5t-46.5 175.5q0 18 2 38h231q0 -7 -0.5 -16.5t-0.5 -12.5q0 -49 38.5 -81.5t116.5 -32.5q51 0 90 17.5t64.5 51t36.5 81.5q26 120 26 133q0 41 -32.5 68t-102.5 27q-61 0 -110.5 -23t-74.5 -66h-243l157 745h759l-44 -233h-520 l-56 -231q76 39 177 39q61 0 119.5 -23t104 -63.5t73 -101.5t27.5 -132q0 -23 -18 -120q-20 -98 -54 -170.5t-87.5 -125t-130.5 -78.5t-179 -26z" />
<glyph horiz-adv-x="991" d="M445 -17q-108 0 -191.5 42t-129.5 118.5t-46 175.5q0 71 42.5 279.5t59.5 265.5q23 100 57.5 171.5t87 124.5t128.5 79t178 26q108 0 192 -42t130.5 -118.5t46.5 -176.5q0 -2 -4 -37h-231q3 24 3 29q0 49 -38 81.5t-117 32.5q-51 0 -90 -18.5t-64.5 -52.5t-38.5 -83 l-26 -107q61 38 176 38q43 0 84 -10t78.5 -29.5t68.5 -49.5t54 -68.5t35.5 -89t12.5 -108.5q0 -44 -7 -73q-19 -79 -44 -140t-62 -111t-85 -82t-113 -49.5t-147 -17.5zM463 214q50 0 89.5 18t65 52.5t36.5 82.5q16 64 16 92q0 54 -37.5 87t-117.5 33q-75 0 -124.5 -40 t-67.5 -114q-15 -84 -15 -97q0 -23 8.5 -43t26.5 -36t48.5 -25.5t71.5 -9.5z" />
<glyph horiz-adv-x="847" d="M71 0l609 1015h-544l42 233h813l-43 -233l-610 -1015h-267z" />
<glyph horiz-adv-x="967" d="M437 -17q-81 0 -150.5 24t-120.5 68.5t-80 111.5t-29 150q0 25 4.5 55t17 70t31.5 76.5t53 73.5t77 63q-53 79 -53 187q0 33 5.5 68.5t19.5 75.5t35 76.5t54.5 70t75.5 58t101 39.5t128 15q161 0 261 -96t100 -244q0 -41 -8.5 -85t-28 -91t-55.5 -90.5t-84 -73.5 q62 -88 62 -207q0 -26 -4 -55.5t-16 -68.5t-31 -75.5t-52 -73t-74.5 -63t-103.5 -43t-135 -16.5zM451 214q46 0 81 17t53.5 43.5t27.5 54t9 54.5q0 66 -42.5 103.5t-120.5 37.5q-46 0 -81 -17t-53.5 -44t-27 -54t-8.5 -54q0 -44 18.5 -75.5t55 -48.5t88.5 -17zM565 738 q83 0 127 49t44 116q0 28 -9.5 52t-27.5 41.5t-46 27.5t-63 10q-57 0 -97 -26t-57.5 -63t-17.5 -79q0 -58 38 -93t109 -35z" />
<glyph horiz-adv-x="991" d="M613 1265q109 0 192 -42t129 -118.5t46 -176.5q0 -49 -23 -176.5t-46.5 -234t-31.5 -134.5q-23 -100 -57.5 -171.5t-87.5 -124.5t-129 -78.5t-177 -25.5q-165 0 -267 93t-102 243q0 3 4 38h231q-3 -25 -3 -29q0 -49 38 -81.5t116 -32.5q77 0 125 39.5t68 113.5l27 107 q-62 -37 -177 -37q-65 0 -124.5 22.5t-106.5 65t-74.5 111.5t-27.5 155q0 46 9 82q23 100 57 170t87 121.5t128.5 76t176.5 24.5zM595 1034q-76 0 -125 -40.5t-65 -113.5q-17 -67 -17 -93q0 -53 38 -86t118 -33q75 0 124.5 40t67.5 113q14 80 14 99q0 49 -38 81.5t-117 32.5 z" />
<glyph horiz-adv-x="1010" d="M896 383q-27 -101 -61 -171t-86.5 -124t-127.5 -79.5t-176 -25.5q-164 0 -266 93t-102 243q0 55 42.5 263.5t60.5 281.5q27 101 61 171t86.5 124t127.5 80t176 26q108 0 192 -42t130.5 -118.5t46.5 -176.5q0 -54 -42.5 -263.5t-61.5 -281.5zM420 880q-24 -105 -67 -312 l413 343q0 1 0.5 2.5l1 3t0.5 3.5q0 49 -38 81.5t-117 32.5q-51 0 -91 -18.5t-65.5 -52.5t-36.5 -83zM654 367q19 91 67 308l-413 -340v-7q0 -23 8.5 -43t26.5 -36t48.5 -25.5t71.5 -9.5q77 0 126 40t65 113z" />
<glyph horiz-adv-x="1010" d="M896 383q-27 -101 -61 -171t-86.5 -124t-127.5 -79.5t-176 -25.5q-164 0 -266 93t-102 243q0 55 42.5 263.5t60.5 281.5q27 101 61 171t86.5 124t127.5 80t176 26q108 0 192 -42t130.5 -118.5t46.5 -176.5q0 -54 -42.5 -263.5t-61.5 -281.5zM420 880q-24 -105 -67 -312 l413 343q0 1 0.5 2.5l1 3t0.5 3.5q0 49 -38 81.5t-117 32.5q-51 0 -91 -18.5t-65.5 -52.5t-36.5 -83zM654 367q19 91 67 308l-413 -340v-7q0 -23 8.5 -43t26.5 -36t48.5 -25.5t71.5 -9.5q77 0 126 40t65 113z" />
<glyph horiz-adv-x="598" d="M315 704q-77 0 -128 46t-51 112q0 59 30 102.5t78 62.5q30 10 58.5 16.5t64.5 10.5t61 6t77 4q-10 55 -83 55q-48 0 -75 -41h-167q30 92 87.5 138t165.5 46q72 0 124.5 -29.5t79 -80t26.5 -117.5q0 -20 -15 -96l-48 -225h-165l12 54q-50 -64 -132 -64zM349 843 q49 0 87 27t47 69q-47 0 -97 -5t-63 -11q-31 -12 -31 -43q0 -14 12.5 -25.5t44.5 -11.5z" />
<glyph horiz-adv-x="605" d="M408 852q24 0 43 10t30.5 28t17.5 44q20 92 20 94q0 20 -2.5 33t-10.5 26t-25 20t-44 7q-73 0 -90 -80q-19 -94 -19 -106q0 -34 16 -55t64 -21zM440 704q-105 0 -146 76l-14 -66h-166l151 724h167l-51 -241q8 20 37 42.5t74 22.5q41 0 73.5 -15t52.5 -38t33.5 -53.5 t18.5 -59.5t5 -59q0 -37 -14 -114q-23 -111 -75.5 -165t-145.5 -54z" />
<glyph horiz-adv-x="580" d="M379 704q-107 0 -168 63t-61 163q0 50 14 97q13 58 32 98.5t49.5 72.5t77 48t109.5 16q108 0 168.5 -63t60.5 -153h-156q-2 14 -5 22.5t-10.5 22.5t-25.5 21t-44 7q-71 0 -89 -82q-3 -18 -8 -40.5t-8 -35t-5 -24t-2 -16.5q0 -73 83 -73q65 0 85 72h167q-15 -53 -34.5 -91 t-50 -67t-75 -43.5t-104.5 -14.5z" />
<glyph horiz-adv-x="603" d="M388 852q36 0 59 21.5t31 60.5q19 86 19 94q0 20 -2.5 33t-10 26.5t-25 20t-44.5 6.5q-35 0 -58 -21.5t-31 -58.5q-20 -93 -20 -104q0 -15 2.5 -26.5t10 -24.5t25.5 -20t44 -7zM333 704q-34 0 -62.5 10t-48 27.5t-34 39.5t-23 48t-12 50.5t-3.5 48.5q0 42 14 114 q23 112 75.5 166t145.5 54q105 0 146 -77l54 253h165l-151 -724h-166l11 54q-9 -20 -38 -42t-73 -22z" />
<glyph horiz-adv-x="587" d="M379.5 704q-107.5 0 -168.5 63t-61 163q0 50 14 97q13 58 32 98.5t49.5 72.5t77 48t109.5 16q71 0 123.5 -29.5t79 -80t26.5 -117.5q0 -38 -18 -114h-335q0 -73 83 -73q45 0 74 39h167q-30 -90 -87.5 -136.5t-165 -46.5zM333 1051h167q0 68 -80 68q-21 0 -38.5 -8.5 t-29.5 -23.5t-19 -36z" />
<glyph horiz-adv-x="379" d="M139 714l84 391h-75l30 143h73l11 49q13 56 67.5 98.5t110.5 42.5h152l-31 -143h-98q-14 0 -24 -7.5t-14 -14.5t-5 -13l-2 -12h133l-31 -143h-132l-84 -391h-165z" />
<glyph horiz-adv-x="602" d="M399 900q39 0 58 20t31 60q9 30 9 54q0 39 -15.5 59.5t-64.5 20.5q-37 0 -60 -21t-31 -59q-8 -44 -8 -56q0 -37 17.5 -57.5t63.5 -20.5zM337 513q-103 0 -167.5 59.5t-64.5 145.5h160q0 -8 3 -16.5t11 -19.5t25.5 -17.5t42.5 -6.5q35 0 58.5 21.5t31.5 60.5l15 76 q-7 -20 -38.5 -42t-76.5 -22q-35 0 -63.5 10t-47.5 27.5t-33.5 39.5t-22.5 48t-11.5 50.5t-3.5 48.5q0 26 9 66q24 113 76.5 166.5t145.5 53.5q53 0 89.5 -21t55.5 -56l13 63h165l-105 -500q-10 -46 -23.5 -81t-34.5 -64.5t-50 -48.5t-69 -30t-90 -11z" />
<glyph horiz-adv-x="615" d="M114 714l153 724h166l-52 -241q8 20 37.5 42.5t75 22.5t79.5 -15t53.5 -37.5t31 -54t15.5 -59.5t4 -59q0 -57 -14 -114l-44 -209h-167l47 220l20 94q0 21 -2.5 33.5t-10 26t-24.5 20t-44 6.5q-72 0 -89 -80l-69 -320h-166z" />
<glyph horiz-adv-x="284" d="M114 714l112 534h166l-112 -534h-166zM238 1306l29 132h166l-28 -132h-167z" />
<glyph horiz-adv-x="282" d="M7 524l30 144h29q39 0 46 45l112 535h168l-123 -583q-13 -62 -57.5 -101.5t-121.5 -39.5h-83zM238 1306l27 132h167l-27 -132h-167z" />
<glyph horiz-adv-x="583" d="M433 1438l-68 -319l145 129h221l-239 -211l153 -323h-174l-102 214l-56 -51l-33 -163h-166l153 724h166z" />
<glyph horiz-adv-x="313" d="M344 714h-45q-76 0 -112 39t-36 104q0 20 5.5 56.5t18 97.5t24 115.5t32 149.5t34.5 162h167q-117 -540 -117 -556q0 -7 3 -12.5t9 -9t13 -3.5h32z" />
<glyph horiz-adv-x="950" d="M114 714l112 534h166l-11 -51q5 10 18.5 23.5t42.5 27.5t63 14q19 0 36 -4t29 -10.5t22.5 -15t17 -17t10.5 -18.5q65 65 160 65q50 0 89 -10.5t63 -28.5t41 -39t25 -47t11 -47t3 -44q0 -50 -11 -107l-47 -225h-167l46 220q4 17 10 40.5t9 36.5t3 17q0 19 -2.5 32 t-10 26.5t-24.5 20.5t-43 7q-33 0 -57.5 -19.5t-31.5 -53.5l-69 -327h-166l46 220q4 17 10 41t9 36.5t3 16.5q0 19 -2.5 32t-10 26.5t-24.5 20.5t-44 7q-33 0 -57.5 -19.5t-31.5 -53.5l-69 -327h-166z" />
<glyph horiz-adv-x="588" d="M391 848q72 0 88 80q24 92 24 114q0 34 -17.5 55.5t-65.5 21.5q-68 0 -89 -82q-6 -25 -14.5 -65t-8.5 -47q0 -35 17 -56t66 -21zM379 704q-107 0 -168 63t-61 163q0 50 14 97q13 58 32 98.5t49.5 72.5t77 48t109.5 16q71 0 123.5 -29.5t79 -80t26.5 -117.5q0 -43 -15 -96 q-14 -58 -32.5 -98.5t-49 -73t-76.5 -48t-109 -15.5z" />
<glyph horiz-adv-x="607" d="M410 852q36 0 59 21.5t31 60.5q20 95 20 103q0 15 -2.5 26t-10 24t-25 20t-44.5 7q-69 0 -89 -80q-21 -92 -21 -104q0 -15 2.5 -27t10 -24.5t25 -19.5t44.5 -7zM75 524l151 724h166l-9 -51q8 21 36.5 43t73.5 22q41 0 74 -15t53 -38t33 -53.5t18.5 -59.5t5.5 -59 q0 -37 -14 -114q-23 -111 -76 -165t-147 -54q-35 0 -64 10t-48.5 27t-31.5 39l-56 -256h-165z" />
<glyph horiz-adv-x="602" d="M388 852q36 0 59 21.5t31 60.5q19 95 19 96q0 19 -2.5 31.5t-10 26t-25 20t-44.5 6.5q-35 0 -58 -21.5t-31 -58.5q-4 -19 -9.5 -43t-8 -36t-2.5 -16q0 -20 2.5 -33t10.5 -27t25 -20.5t44 -6.5zM392 524l52 244q-9 -20 -38 -42t-73 -22q-34 0 -62.5 10t-48 27.5t-34 39.5 t-23 48t-12 50.5t-3.5 48.5q0 42 14 114q23 112 75.5 166t145.5 54q105 0 146 -77l14 63h166l-153 -724h-166z" />
<glyph horiz-adv-x="405" d="M280 714h-166l112 534h166l-13 -54q7 18 37 41t76 23h69l-34 -157h-92q-37 0 -60 -21.5t-31 -60.5z" />
<glyph horiz-adv-x="505" d="M330 704q-94 0 -157.5 53t-63.5 123v7h160q0 -17 23 -29.5t55 -12.5q25 0 44 6t19 20q0 6 -2.5 10t-7 6.5t-8 4t-10 3t-8.5 1.5l-76 18q-59 15 -100 56t-41 104q0 50 18.5 87.5t51 58.5t72 31.5t86.5 10.5q45 0 91.5 -20t80 -59t33.5 -87v-8h-160q0 14 -20 24t-46 10 q-24 0 -36.5 -6.5t-12.5 -17.5q0 -5 1.5 -9t4 -6.5t5 -4.5t6 -3t6 -2t5 -1.5l2.5 -0.5l90 -22q61 -16 99 -56t38 -100q0 -102 -61 -145.5t-181 -43.5z" />
<glyph horiz-adv-x="401" d="M435 714h-109q-76 0 -112 39t-36 104q0 59 43 248h-75l29 143h75l26 121h166l-27 -121h132l-28 -143h-133q-44 -205 -44 -223q0 -10 7.5 -17.5t17.5 -7.5h96z" />
<glyph horiz-adv-x="610" d="M338 704q-40 0 -71.5 13.5t-51 35.5t-32.5 51t-18 58t-5 59q0 55 13 106l46 221h166l-45 -214q-19 -73 -19 -95q0 -19 2.5 -32t10 -27t24.5 -21t43 -7q32 0 54 22t30 60l69 314h165l-113 -534h-166l12 52q-8 -17 -40 -39.5t-74 -22.5z" />
<glyph horiz-adv-x="528" d="M235 714l-80 534h168l34 -293l167 293h183l-304 -534h-168z" />
<glyph horiz-adv-x="748" d="M191 714l-29 534h166l9 -300l126 300h148l4 -282l125 282h181l-255 -534h-154l-6 345l-148 -345h-167z" />
<glyph horiz-adv-x="549" d="M55 714l237 277l-117 257h172l52 -124l107 124h208l-238 -274l117 -260h-175l-49 122l-105 -122h-209z" />
<glyph horiz-adv-x="530" d="M84 524l28 144h66q26 0 34 20l21 38l-76 522h166l35 -284l157 284h192l-308 -542q-10 -18 -22 -41.5t-19.5 -39t-18.5 -33.5t-21.5 -28.5t-25 -20.5t-32.5 -14.5t-41 -4.5h-135z" />
<glyph horiz-adv-x="454" d="M563 1105l-238 -248h192l-29 -143h-410l31 143l236 248h-177l28 143h397z" />
<glyph horiz-adv-x="598" d="M379 704q-64 0 -116 24t-82.5 69.5t-30.5 105.5q0 17 8 67t18 98.5t19.5 94t9.5 49.5q26 120 87.5 178.5t185.5 58.5q98 0 163.5 -55t65.5 -145q0 -31 -24 -154t-32 -155q-11 -46 -25 -81.5t-35.5 -65.5t-50.5 -49t-69 -29.5t-92 -10.5zM372 1221l-35 -160l208 172 q2 3 2 11q0 26 -18 43t-60 17q-77 0 -97 -83zM388 848q78 0 95 84l36 158l-209 -172v-10q0 -26 18 -43t60 -17z" />
<glyph horiz-adv-x="332" d="M123 714l41 194h194l-40 -194h-195z" />
<glyph horiz-adv-x="377" d="M136 920l32 153h299l-32 -153h-299z" />
<glyph horiz-adv-x="332" d="M123 714l41 194h194l-40 -194l-78 -128h-112l77 128h-82z" />
<glyph horiz-adv-x="598" d="M126 -184q-77 0 -128 46.5t-51 112.5q0 58 30 102t78 62q39 14 83 21.5t77 10t100 6.5q-10 54 -82 54q-47 0 -75 -40h-167q30 91 88 137t165 46q108 0 169 -62.5t61 -163.5q0 -20 -15 -97l-47 -224h-166l12 54q-50 -65 -132 -65zM160 -44q49 0 87 27t47 68 q-47 0 -96.5 -5t-63.5 -10q-30 -13 -30 -43q0 -14 12 -25.5t44 -11.5z" />
<glyph horiz-adv-x="605" d="M219 -36q37 0 60 22t31 60q20 93 20 95q0 20 -2.5 32.5t-10.5 26t-25 20t-44 6.5q-73 0 -90 -80q-19 -93 -19 -105q0 -34 16 -55.5t64 -21.5zM251 -184q-105 0 -146 77l-15 -66h-165l152 724h166l-51 -241q8 20 37 42t74 22q29 0 54.5 -7.5t44 -20.5t33.5 -31t24.5 -38 t15.5 -42.5t8.5 -43.5t2.5 -41q0 -38 -14 -114q-23 -111 -75.5 -165.5t-145.5 -54.5z" />
<glyph horiz-adv-x="580" d="M191 -184q-108 0 -169 63t-61 164q0 49 14 96q13 58 32 99t50 73t77 47.5t109 15.5q108 0 168.5 -63t60.5 -153h-157q-1 10 -2 15t-4.5 15.5t-9 16.5t-14 13t-22.5 10t-32 3q-71 0 -88 -81q-5 -22 -11.5 -51.5t-9.5 -44t-3 -20.5q0 -13 2.5 -24t10 -23t25.5 -19t44 -7 q67 0 86 71h167q-15 -53 -34.5 -90.5t-50 -67t-75 -44t-103.5 -14.5z" />
<glyph horiz-adv-x="603" d="M199 -36q25 0 43.5 10.5t30 28.5t16.5 43q19 86 19 95q0 20 -2 32.5t-10 26t-25 20t-45 6.5q-35 0 -58 -21t-31 -59q-10 -50 -15 -73.5t-5 -29.5q0 -15 2.5 -26.5t10.5 -24.5t25.5 -20.5t43.5 -7.5zM144 -184q-41 0 -73.5 15t-52.5 38t-33.5 53.5t-18.5 59.5t-5 59 q0 42 14 114q23 112 75.5 165.5t145.5 53.5q105 0 146 -76l54 253h165l-151 -724h-166l11 54q-9 -20 -38 -42.5t-73 -22.5z" />
<glyph horiz-adv-x="587" d="M190.5 -184q-107.5 0 -168.5 63t-61 164q0 49 14 96q13 58 32 99t50 73t77 47.5t109 15.5q107 0 168 -62.5t61 -163.5q0 -39 -18 -114h-335q0 -73 82 -73q46 0 75 39h168q-31 -91 -88.5 -137.5t-165 -46.5zM144 164h167q0 67 -80 67q-31 0 -53.5 -18t-33.5 -49z" />
<glyph horiz-adv-x="379" d="M-50 -173l84 391h-75l31 142h73l10 50q13 55 67.5 98t110.5 43h152l-31 -143h-98q-14 0 -24 -7.5t-13.5 -14.5t-5.5 -14l-1 -12h132l-31 -142h-132l-83 -391h-166z" />
<glyph horiz-adv-x="602" d="M211 12q38 0 57.5 20t30.5 60q9 31 9 54q0 40 -15.5 60t-64.5 20q-37 0 -60 -21t-31 -59q-9 -48 -9 -56q0 -37 18 -57.5t65 -20.5zM148 -374q-103 0 -167.5 59.5t-64.5 144.5h161q0 -4 0.5 -8t3 -10t6 -11.5t10 -11.5t14.5 -10t20.5 -6.5t26.5 -2.5q36 0 59 22t31 60 l16 77q-8 -20 -39 -42.5t-77 -22.5q-41 0 -73.5 15t-52.5 37.5t-33 53.5t-18 60t-5 59q0 26 9 66q25 112 77 165.5t145 53.5q53 0 89.5 -20.5t55.5 -55.5l13 62h165l-105 -499q-12 -58 -31 -99t-49.5 -73t-77 -47.5t-109.5 -15.5z" />
<glyph horiz-adv-x="615" d="M-75 -173l153 724h166l-52 -241q8 20 37.5 42t75 22t79.5 -15t53.5 -37t31.5 -53.5t15.5 -59.5t3.5 -59q0 -57 -14 -114l-44 -209h-166l46 219q20 94 20 95q0 21 -2.5 33.5t-9.5 26t-24 19.5t-44 6q-73 0 -90 -80l-70 -319h-165z" />
<glyph horiz-adv-x="284" d="M-75 -173l112 533h166l-113 -533h-165zM50 418l28 133h166l-28 -133h-166z" />
<glyph horiz-adv-x="282" d="M-182 -364l31 145h28q39 0 46 44l113 535h167l-123 -583q-13 -61 -57.5 -101t-120.5 -40h-84zM50 418l27 133h166l-27 -133h-166z" />
<glyph horiz-adv-x="583" d="M244 551l-67 -320l144 129h221l-239 -210l153 -323h-174l-102 214l-56 -51l-34 -163h-165l153 724h166z" />
<glyph horiz-adv-x="313" d="M155 -173h-45q-76 0 -111.5 39t-35.5 104q0 20 5.5 56.5t17.5 97t23.5 115t32.5 150t35 162.5h166q-33 -151 -53 -243.5t-35.5 -166.5t-22 -107.5t-6.5 -38.5q0 -11 7 -18t18 -7h33z" />
<glyph horiz-adv-x="950" d="M-75 -173l112 533h166l-11 -50q9 18 42.5 41t80.5 23q45 0 74.5 -19t42.5 -45q64 64 160 64q49 0 88 -10t63 -28.5t41 -39t25 -47t11 -47.5t3 -44q0 -49 -10 -107l-48 -224h-166l46 219q3 15 7.5 32.5t7 28.5t4.5 20.5t2 13.5q0 19 -2 32t-10 26.5t-24.5 20t-43.5 6.5 q-21 0 -39.5 -8t-31.5 -25t-18 -40l-69 -326h-166l46 219q4 18 10 42t9 36.5t3 16.5q0 19 -2.5 32t-10 26.5t-24.5 20t-43 6.5q-33 0 -57.5 -19t-32.5 -54l-70 -326h-165z" />
<glyph horiz-adv-x="615" d="M-75 -173l112 533h166l-11 -50q8 20 37.5 42t75 22t79.5 -15t53.5 -37t31.5 -53.5t15.5 -59.5t3.5 -59q0 -57 -14 -114l-44 -209h-166l46 219q3 15 6 29.5t5.5 23.5t4.5 17.5t3 13t1.5 8t0.5 5.5q0 19 -2 31.5t-10 25.5t-25 19.5t-44 6.5q-73 0 -90 -80l-70 -319h-165z " />
<glyph horiz-adv-x="588" d="M201 -39q73 0 90 80q22 88 22 114q0 34 -16.5 55t-65.5 21q-68 0 -88 -81q-7 -25 -15.5 -65t-8.5 -48q0 -34 17 -55t65 -21zM191 -184q-108 0 -169 63t-61 164q0 49 14 96q13 58 32 99t50 73t77 47.5t109 15.5q107 0 168 -62.5t61 -163.5q0 -43 -14 -97 q-15 -58 -33.5 -98t-49 -72.5t-76.5 -48.5t-108 -16z" />
<glyph horiz-adv-x="607" d="M221 -36q36 0 59 22t31 60q20 95 20 104q0 14 -2.5 25.5t-10 24t-25 19.5t-43.5 7q-70 0 -90 -80q-11 -49 -16 -72.5t-5 -30.5q0 -16 2.5 -27.5t10 -24.5t25 -20t44.5 -7zM-114 -364l151 724h166l-9 -50q5 11 16 24.5t37 26.5t57 13q41 0 74 -14.5t53 -37.5t33.5 -53.5 t18.5 -60t5 -58.5q0 -38 -14 -114q-11 -56 -29.5 -96t-45 -68t-63.5 -42t-85 -14q-35 0 -64 10.5t-48.5 27t-31.5 39.5l-56 -257h-165z" />
<glyph horiz-adv-x="602" d="M199 -36q25 0 43.5 10.5t30 28.5t16.5 43q19 96 19 97q0 19 -2 31.5t-10 25.5t-25 19.5t-45 6.5q-35 0 -58 -21t-31 -59q-3 -15 -7 -33.5t-6.5 -29t-4.5 -19.5t-2 -13q0 -15 1.5 -26t6.5 -23.5t13.5 -20t24 -12.5t36.5 -5zM203 -364l52 245q-9 -20 -38 -42.5t-73 -22.5 q-41 0 -73.5 15t-52.5 38t-33.5 53.5t-18.5 59.5t-5 59q0 42 14 114q23 112 75.5 165.5t145.5 53.5q105 0 146 -76l15 62h165l-153 -724h-166z" />
<glyph horiz-adv-x="405" d="M90 -173h-165l112 533h166l-12 -54q6 19 36 42t76 23h69l-34 -157h-92q-36 0 -59.5 -21.5t-31.5 -60.5z" />
<glyph horiz-adv-x="505" d="M141 -184q-94 0 -157.5 53t-63.5 124v7h160q0 -18 23 -30.5t55 -12.5q24 0 43.5 7t19.5 20q0 7 -4.5 12t-8 6.5t-13 3.5t-10.5 3l-76 18q-59 15 -100 55.5t-41 104.5q0 50 18.5 87t51 58.5t72 31.5t86.5 10q46 0 92.5 -20t79.5 -59t33 -86v-8h-161q0 13 -19.5 23.5 t-45.5 10.5q-16 0 -27 -3.5t-16.5 -8.5t-5.5 -12t2.5 -12t7 -7.5t8 -4t8 -2.5t5.5 -1l89 -22q61 -16 99 -56.5t38 -100.5q0 -102 -61 -145.5t-181 -43.5z" />
<glyph horiz-adv-x="401" d="M246 -173h-109q-76 0 -111.5 39t-35.5 104q0 58 42 248h-75l29 142h75l26 121h166l-27 -121h132l-28 -142h-133q-44 -205 -44 -223q0 -11 7.5 -18t17.5 -7h96z" />
<glyph horiz-adv-x="610" d="M150 -184q-40 0 -72 14t-51.5 35.5t-32.5 51t-18 58.5t-5 59q0 55 13 105l46 221h166l-45 -214q-19 -72 -19 -95q0 -19 2.5 -32t10 -26.5t24.5 -21t43 -7.5q32 0 54 22t30 60l69 314h166l-114 -533h-166l13 52q-9 -18 -41 -40.5t-73 -22.5z" />
<glyph horiz-adv-x="528" d="M46 -173l-80 533h168l34 -292l167 292h184l-305 -533h-168z" />
<glyph horiz-adv-x="748" d="M2 -173l-29 533h166l9 -299l126 299h148l3 -282l126 282h182l-255 -533h-155l-5 344l-148 -344h-168z" />
<glyph horiz-adv-x="549" d="M-134 -173l238 277l-118 256h172l53 -123l107 123h207l-238 -273l118 -260h-175l-50 122l-105 -122h-209z" />
<glyph horiz-adv-x="530" d="M-105 -364l28 145h67q25 0 33 20l21 37l-76 522h166l36 -283l156 283h193l-308 -542q-11 -19 -25.5 -47.5t-23 -44.5t-22.5 -35.5t-27.5 -29.5t-34.5 -17.5t-48 -7.5h-135z" />
<glyph horiz-adv-x="454" d="M374 218l-238 -248h192l-29 -143h-409l30 143l237 248h-179l29 142h398z" />
<glyph horiz-adv-x="598" d="M191 -184q-99 0 -164.5 55t-65.5 145q0 17 8 66.5t17.5 98t19 94.5t10.5 50q25 120 87 178t186 58q98 0 164 -54.5t66 -144.5q0 -32 -24.5 -154t-33.5 -155q-13 -59 -32.5 -100.5t-50.5 -73.5t-77.5 -47.5t-109.5 -15.5zM184 333l-36 -160l209 172q1 4 1 12q0 26 -18 43 t-60 17q-77 0 -96 -84zM199 -39q78 0 95 83l36 159l-209 -173v-8q0 -27 18 -44t60 -17z" />
<glyph horiz-adv-x="332" d="M-66 -173l41 195h195l-42 -195h-194z" />
<glyph horiz-adv-x="377" d="M-53 32l31 153h300l-32 -153h-299z" />
<glyph horiz-adv-x="332" d="M-66 -173l41 195h195l-42 -195l-77 -128h-112l77 128h-82z" />
<glyph horiz-adv-x="587" d="M-36 -98v153h507v-153h-507zM-36 168v153h507v-153h-507z" />
<glyph horiz-adv-x="587" d="M-36 32v153h175v177h153v-177h179v-153h-179v-175h-153v175h-175z" />
<glyph horiz-adv-x="587" d="M-36 32v153h507v-153h-507z" />
<glyph horiz-adv-x="473" d="M214 524l109 513l-165 -121l45 210l164 122h165l-153 -724h-165z" />
<glyph horiz-adv-x="653" d="M78 524l31 142l335 262q27 22 44 40.5t27 39.5t10 45q0 16 -6 29t-24.5 22.5t-47.5 9.5q-87 0 -100 -99h-163q12 59 31 101.5t50.5 75.5t79 49.5t111.5 16.5q98 0 164 -54.5t66 -144.5q0 -149 -139 -255l-182 -138h246l-28 -142h-505z" />
<glyph horiz-adv-x="649" d="M360 513q-69 0 -121 24t-80.5 69.5t-28.5 106.5v18h162q0 -1 -0.5 -6.5t-0.5 -6.5q0 -26 18 -43t60 -17q43 0 69.5 27.5t26.5 60.5q0 20 -9.5 34.5t-28 22.5t-42.5 8h-64l32 144h64q50 0 80 25t30 73q0 26 -18 43.5t-60 17.5q-73 0 -92 -68h-165q15 53 35 90t50.5 65.5 t75 42.5t105.5 14q98 0 164 -54.5t66 -144.5q0 -65 -32 -116.5t-84 -73.5q45 -40 45 -117q0 -116 -69.5 -177.5t-187.5 -61.5z" />
<glyph horiz-adv-x="568" d="M296 524l32 149h-303l30 141l394 434h166l-93 -434h73l-27 -141h-75l-32 -149h-165zM264 814h93l31 140z" />
<glyph horiz-adv-x="651" d="M376 513q-99 0 -164.5 55t-65.5 145v18h162q0 -3 -1 -8l-1 -5q0 -12 4 -22.5t12.5 -19t24.5 -13.5t38 -5q77 0 94 78q16 76 16 77q0 47 -62 47q-33 0 -60 -12t-38 -35h-167l92 435h467l-32 -143h-301l-23 -119q1 0 7.5 3t9.5 4t10 3t13 3.5t14.5 3t18.5 2t21 0.5 q43 0 86.5 -21.5t75 -66.5t31.5 -101q0 -15 -10 -66q-13 -58 -32 -100t-50.5 -73.5t-78.5 -47.5t-111 -16z" />
<glyph horiz-adv-x="642" d="M367 513q-98 0 -164 55t-66 145q0 18 5.5 54t13.5 78t15.5 78t14 67l6.5 31q14 60 34 101t51 73t78 47.5t110 15.5q65 0 116.5 -24t82.5 -69.5t31 -105.5v-18h-161v12q0 26 -18 43.5t-60 17.5q-79 0 -96 -84l-11 -50q35 18 91 18q36 0 69.5 -13.5t62 -38.5t45.5 -67.5 t17 -94.5q0 -41 -7 -68q-12 -45 -28.5 -77.5t-45.5 -63t-75.5 -46.5t-110.5 -16zM376 658q78 0 95 83q8 34 8 46q0 66 -78 66q-80 0 -97 -83q-6 -36 -6 -52q0 -26 18 -43t60 -17z" />
<glyph horiz-adv-x="520" d="M141 524l347 581h-315l28 143h499l-30 -143l-347 -581h-182z" />
<glyph horiz-adv-x="592" d="M344 513q-63 0 -114.5 23t-85.5 71.5t-34 115.5q0 18 3.5 38t13 50.5t32 59t55.5 47.5q-30 46 -30 109q0 26 5 53.5t21 60.5t42 58t72.5 42t107.5 17q100 0 163.5 -57t63.5 -147q0 -22 -4 -46t-14.5 -52t-32 -54t-50.5 -43q35 -53 35 -118q0 -13 -1.5 -28t-7.5 -38 t-16.5 -44t-29.5 -43t-44.5 -38t-64 -26.5t-85.5 -10.5zM351 658q81 0 81 88q0 25 -10 42.5t-27.5 27t-41.5 9.5q-82 0 -82 -91q0 -18 5.5 -32t15.5 -24t25 -15t34 -5zM418 955q44 0 62.5 25.5t18.5 61.5q0 21 -7.5 37t-25 25.5t-42.5 9.5q-43 0 -61 -25.5t-18 -61.5 q0 -72 73 -72z" />
<glyph horiz-adv-x="642" d="M454 1258q99 0 164.5 -54.5t65.5 -144.5q0 -18 -5.5 -54.5t-13.5 -78.5t-15 -77.5t-14 -67l-7 -31.5q-14 -59 -33.5 -100.5t-51 -73.5t-78 -47.5t-109.5 -15.5q-99 0 -165 55t-66 145v18h161v-13q0 -26 18 -43t60 -17q79 0 96 83l11 50q-33 -18 -91 -18q-36 0 -69.5 13.5 t-62 39t-45.5 67.5t-17 94q0 41 7 67q9 36 21 63t32.5 55t47 45.5t67.5 29t92 11.5zM445 1114q-77 0 -94 -84q-9 -33 -9 -47q0 -65 78 -65q80 0 97 83q7 36 7 52q0 26 -18.5 43.5t-60.5 17.5z" />
<glyph horiz-adv-x="651" d="M367 513q-98 0 -164 55t-66 145q0 10 3 31t7.5 48t10 56.5t11.5 58.5t11 53t8.5 41t3.5 20q26 121 87.5 179t185.5 58q65 0 116.5 -24t82.5 -69.5t31 -105.5q0 -32 -24.5 -154t-32.5 -155q-14 -59 -33 -100.5t-50 -73.5t-77.5 -47.5t-110.5 -15.5zM360 1030l-35 -161 l207 173q2 4 2 11q0 26 -18 43.5t-60 17.5q-41 0 -63.5 -21.5t-32.5 -62.5zM376 658q78 0 95 83l35 159l-208 -173v-9q0 -26 18 -43t60 -17z" />
<glyph horiz-adv-x="651" d="M367 513q-98 0 -164 55t-66 145q0 10 3 31t7.5 48t10 56.5t11.5 58.5t11 53t8.5 41t3.5 20q26 121 87.5 179t185.5 58q65 0 116.5 -24t82.5 -69.5t31 -105.5q0 -32 -24.5 -154t-32.5 -155q-14 -59 -33 -100.5t-50 -73.5t-77.5 -47.5t-110.5 -15.5zM360 1030l-35 -161 l207 173q2 4 2 11q0 26 -18 43.5t-60 17.5q-41 0 -63.5 -21.5t-32.5 -62.5zM376 658q78 0 95 83l35 159l-208 -173v-9q0 -26 18 -43t60 -17z" />
<glyph horiz-adv-x="473" d="M104 0l108 513l-164 -121l44 210l165 121h165l-153 -723h-165z" />
<glyph horiz-adv-x="653" d="M-32 0l30 143l335 262q42 33 62 61.5t20 62.5q0 26 -18 43.5t-60 17.5q-87 0 -100 -98h-164q12 58 31 101t50.5 75.5t79 49t111.5 16.5q99 0 165 -55t66 -145q0 -147 -139 -254l-182 -137h245l-28 -143h-504z" />
<glyph horiz-adv-x="649" d="M248 -10q-105 0 -168 53.5t-63 145.5v18h163q0 -1 -1 -6.5t-1 -6.5q0 -26 18.5 -43t60.5 -17q29 0 51.5 14t33.5 34t11 41q0 29 -22 46.5t-59 17.5h-63l31 145h64q51 0 81 24.5t30 72.5q0 26 -18 43.5t-60 17.5q-73 0 -93 -68h-164q15 53 34.5 90t50.5 66t75.5 42.5 t104.5 13.5q99 0 165 -55t66 -145q0 -65 -32 -116t-85 -73q46 -40 46 -117q0 -116 -69.5 -177t-187.5 -61z" />
<glyph horiz-adv-x="568" d="M185 0l33 150h-303l30 141l393 432h167l-93 -432h73l-27 -141h-75l-32 -150h-166zM153 291h93l32 139z" />
<glyph horiz-adv-x="651" d="M265 -10q-98 0 -163.5 54.5t-65.5 144.5v18h161q0 -3 -0.5 -8l-0.5 -5q0 -26 18 -43t60 -17q78 0 95 78q16 76 16 77q0 48 -62 48q-34 0 -60.5 -12.5t-38.5 -35.5h-167l93 434h467l-32 -142h-301l-24 -120q2 1 6.5 3t8 3.5t9 3t10 3t11.5 3t14.5 2.5t16.5 1.5t19 0.5 q43 0 86 -21.5t74.5 -66t31.5 -101.5q0 -15 -9 -66q-13 -58 -32.5 -99.5t-51 -73.5t-78.5 -47.5t-111 -15.5z" />
<glyph horiz-adv-x="642" d="M255 -10q-98 0 -164 54.5t-66 144.5q0 18 5.5 54t13.5 78t15 77.5t14 66.5t7 32q14 59 33.5 100.5t51 73.5t78.5 47.5t110 15.5q98 0 164 -55t66 -145v-17h-161v12q0 26 -18 43.5t-60 17.5q-79 0 -96 -84l-11 -50q35 18 91 18q20 0 40 -4t39 -12.5t36 -21.5t31.5 -30.5 t25 -39t16.5 -48.5t6 -58q0 -41 -7 -68q-12 -45 -28.5 -77.5t-45.5 -63t-75.5 -46t-110.5 -15.5zM264 134q77 0 94 84q9 33 9 46q0 66 -78 66q-80 0 -97 -84q-7 -36 -7 -52q0 -26 18 -43t61 -17z" />
<glyph horiz-adv-x="520" d="M29 0l347 581h-315l28 142h499l-30 -142l-347 -581h-182z" />
<glyph horiz-adv-x="592" d="M233 -10q-62 0 -114 22.5t-85.5 71t-33.5 115.5q0 14 1.5 28.5t8 39t16.5 45.5t30.5 44t47.5 38q-31 46 -31 109q0 27 5 54t21.5 60t42.5 58t72.5 42t106.5 17q100 0 164 -57t64 -146q0 -23 -4.5 -47t-15 -52t-31.5 -53.5t-51 -43.5q36 -53 36 -117q0 -13 -1.5 -28 t-8 -38.5t-16.5 -44t-29 -43t-44.5 -38.5t-64.5 -26t-86 -10zM240 134q81 0 81 89q0 37 -21 57.5t-57 20.5q-83 0 -83 -90q0 -36 21.5 -56.5t58.5 -20.5zM308 432q44 0 62 25t18 62q0 32 -18.5 51.5t-56.5 19.5q-43 0 -60.5 -25t-17.5 -62q0 -71 73 -71z" />
<glyph horiz-adv-x="642" d="M342 734q64 0 116 -24t83 -70t31 -106q0 -18 -5.5 -54t-13.5 -78t-15.5 -77.5t-14 -66.5t-6.5 -32q-14 -59 -33.5 -100.5t-51 -73.5t-78 -47t-110.5 -15q-98 0 -164 54.5t-66 144.5v18h161v-13q0 -26 18 -43t60 -17q79 0 96 84l11 49q-33 -17 -91 -17q-36 0 -69.5 13 t-62 38t-45.5 67t-17 95q0 41 7 68q12 45 28.5 77.5t45.5 63t75.5 46.5t110.5 16zM333 590q-78 0 -95 -84q-8 -33 -8 -47q0 -65 78 -65q80 0 97 84q7 36 7 51q0 17 -6.5 29.5t-25 22t-47.5 9.5z" />
<glyph horiz-adv-x="651" d="M255 -10q-98 0 -164 54.5t-66 144.5q0 17 8.5 66.5t18 98t18.5 94t10 49.5q26 120 87.5 178.5t185.5 58.5q98 0 164 -55t66 -145q0 -32 -24.5 -153.5t-33.5 -154.5q-13 -59 -32 -100.5t-50 -73.5t-77.5 -47t-110.5 -15zM248 506l-36 -161l208 174q2 3 2 10q0 26 -18 43.5 t-60 17.5q-21 0 -37.5 -6t-28 -17t-18.5 -26t-12 -35zM264 134q77 0 94 84l36 158l-209 -173v-9q0 -26 18 -43t61 -17z" />
<glyph horiz-adv-x="651" d="M255 -10q-98 0 -164 54.5t-66 144.5q0 17 8.5 66.5t18 98t18.5 94t10 49.5q26 120 87.5 178.5t185.5 58.5q98 0 164 -55t66 -145q0 -32 -24.5 -153.5t-33.5 -154.5q-13 -59 -32 -100.5t-50 -73.5t-77.5 -47t-110.5 -15zM248 506l-36 -161l208 174q2 3 2 10q0 26 -18 43.5 t-60 17.5q-21 0 -37.5 -6t-28 -17t-18.5 -26t-12 -35zM264 134q77 0 94 84l36 158l-209 -173v-9q0 -26 18 -43t61 -17z" />
<glyph horiz-adv-x="1110" d="M405 0q-80 0 -149 29t-114.5 76.5t-71.5 106.5t-26 119q0 235 209 344q-28 24 -49.5 59.5t-32.5 74.5t-11 77q0 176 123 269t348 93h195l-44 -233h-180q-210 0 -210 -138q0 -54 41.5 -96.5t113.5 -42.5h169l30 142h241l-30 -142h214l-45 -233h-219l-105 -505h-397z M410 231h197l59 274h-173q-40 0 -76 -7.5t-69 -22.5t-52.5 -44.5t-19.5 -68.5q0 -56 36 -93.5t98 -37.5z" />
<glyph horiz-adv-x="675" d="M130 699h516l-44 -214h-517z" />
<glyph horiz-adv-x="977" d="M130 699h820l-45 -214h-820z" />
<glyph horiz-adv-x="1540" d="M130 699h1383l-44 -214h-1384z" />
<glyph horiz-adv-x="959" d="M379 891h-236q23 92 57.5 158.5t87 116.5t128 74.5t174.5 24.5q108 0 192 -42t130.5 -118.5t46.5 -176.5q0 -122 -44 -206.5t-143 -169.5l-111 -81q-13 -10 -35 -25t-30.5 -21.5t-18 -20t-14.5 -30.5h-238l8 39q18 77 49 125.5t108 104.5l110 83q76 65 101.5 99.5 t25.5 79.5q0 58 -37.5 93.5t-117.5 35.5q-158 0 -193 -143zM219 0l61 285h285l-60 -285h-286z" />
<glyph horiz-adv-x="959" d="M636 357h237q-18 -74 -43.5 -130.5t-62.5 -103.5t-85 -77t-112.5 -46.5t-144.5 -16.5q-164 0 -266 93t-102 243q0 122 44 207t143 169l111 82q13 9 35.5 24.5t30 22t17 19.5t14.5 30h240l-10 -40q-17 -77 -48.5 -125t-108.5 -104l-110 -82q-75 -64 -100.5 -99.5 t-25.5 -80.5q0 -59 37.5 -93.5t117.5 -34.5q157 0 192 143zM796 1248l-60 -286h-285l61 286h284z" />
<glyph horiz-adv-x="551" d="M563 1248l-185 -874h-239l186 874h238zM34 0l63 285h284l-62 -285h-285z" />
<glyph horiz-adv-x="551" d="M59 0l185 873h239l-185 -873h-239zM588 1248l-63 -286h-285l63 286h285z" />
<glyph horiz-adv-x="496" d="M344 211l-257 275l45 204l374 276l-68 -314l-123 -91l84 -90z" />
<glyph horiz-adv-x="496" d="M205 966l256 -276l-44 -204l-374 -275l67 313l123 91l-83 91z" />
<glyph horiz-adv-x="883" d="M344 211l-257 275l45 204l374 276l-68 -314l-123 -91l84 -90zM731 211l-257 275l45 204l374 276l-68 -314l-123 -91l84 -90z" />
<glyph horiz-adv-x="883" d="M205 966l256 -276l-44 -204l-374 -275l67 313l123 91l-83 91zM592 966l256 -276l-44 -204l-374 -275l67 313l123 91l-84 91z" />
<glyph horiz-adv-x="549" d="M479 962q-17 -82 -56.5 -264.5t-64.5 -300.5t-25 -130q0 -26 14.5 -40.5t40.5 -14.5h64l-46 -212h-37q-64 0 -113 18t-78.5 50.5t-44 73.5t-14.5 89q0 54 23.5 170t65 300.5t64.5 310.5q13 66 30.5 108t49.5 72t81.5 43t124.5 13h114l-46 -213h-65q-40 0 -57 -18t-25 -55 z" />
<glyph horiz-adv-x="548" d="M143 285q17 83 56.5 265t64.5 300t25 130q0 25 -14.5 40t-41.5 15h-63l46 213h37q64 0 113 -18.5t78.5 -51t44 -73.5t14.5 -90q0 -53 -23.5 -169t-65 -300t-65.5 -311q-13 -67 -30.5 -108.5t-49.5 -71.5t-81 -42.5t-124 -12.5h-114l47 212h64q14 0 25.5 2.5t19.5 7.5 t14 11t10.5 14.5t7 17.5t5.5 20z" />
<glyph horiz-adv-x="549" d="M492 1035l-173 -823h132l-46 -212h-348l264 1248h349l-46 -213h-132z" />
<glyph horiz-adv-x="551" d="M128 212l173 823h-131l46 213h347l-264 -1248h-349l47 212h131z" />
<glyph horiz-adv-x="609" d="M177 231q0 68 17.5 148.5t17.5 92.5q0 22 -12.5 32.5t-42.5 10.5h-65l45 218h64q27 0 45 9.5t26.5 24.5t12.5 39q25 109 45 206q13 66 30.5 107t49.5 72t81.5 44t123.5 13h114l-47 -213h-63q-40 0 -58 -18.5t-25 -54.5q-15 -74 -24.5 -117t-19.5 -95q-12 -60 -32 -90 t-61 -51q38 -30 38 -89q0 -28 -23 -131t-23 -122q0 -26 14 -40.5t40 -14.5h65l-47 -212h-38q-64 0 -112.5 18t-78 50.5t-43.5 73.5t-14 89z" />
<glyph horiz-adv-x="610" d="M503 1015q0 -68 -18 -148t-18 -92q0 -21 12 -31.5t43 -10.5h64l-44 -218h-64q-40 0 -58.5 -18.5t-25.5 -54.5q-33 -150 -45 -207q-14 -66 -31 -107t-49 -71.5t-81 -43.5t-124 -13h-114l47 212h64q14 0 25.5 2.5t19.5 7.5t14 11t10.5 14.5t7 17.5t5.5 20q15 75 24.5 117.5 t19.5 94.5q12 60 32 90t61 51q-37 30 -37 89q0 28 23 131t23 122q0 25 -14.5 40t-41.5 15h-63l46 213h37q64 0 113 -18.5t78.5 -51t44 -73.5t14.5 -90z" />
<glyph horiz-adv-x="466" d="M376 1248v-1248h-218v1248h218z" />
<glyph horiz-adv-x="466" d="M158 0v515h218v-515h-218zM158 733v515h218v-515h-218z" />
<glyph horiz-adv-x="568" d="M143 467l62 285h285l-62 -285h-285z" />
<glyph horiz-adv-x="1685" d="M1241 1083v-661q0 -30 22.5 -45t49.5 -15t50 15t23 45v291q0 239 -135 370t-384 131q-165 0 -281.5 -59t-176.5 -171.5t-60 -270.5v-179q0 -239 134.5 -369.5t383.5 -130.5q192 0 320 80l107 -196q-174 -100 -427 -100q-124 0 -231 24.5t-201 80t-160.5 138t-104.5 205 t-38 274.5v167q0 153 38 275.5t104.5 205t160.5 137.5t201 79.5t231 24.5t231.5 -24.5t201.5 -79.5t160.5 -137.5t104.5 -205t38 -275.5v-319q0 -104 -83 -173t-207 -69q-108 0 -186 28t-120 77q-31 -46 -92.5 -75.5t-123.5 -29.5q-72 0 -137 25t-117.5 72.5t-83.5 126 t-31 175.5v164q0 98 31 176t83.5 125.5t117.5 72.5t137 25q41 0 83 -13t77.5 -37t55.5 -55v80h234zM658 700v-146q0 -59 25.5 -100.5t63.5 -59.5t85 -18q73 0 124 45.5t51 132.5v146q0 88 -51 133.5t-124 45.5q-47 0 -85 -18t-63.5 -59.5t-25.5 -101.5z" />
<glyph d="M631 1001v-302h303v-214h-303v-303h-214v303h-303v214h303v302h214z" />
<glyph d="M114 699h820v-214h-820v214z" />
<glyph d="M394 901.5q0 53.5 38 91t91.5 37.5t91 -37.5t37.5 -91t-37.5 -91.5t-91 -38t-91.5 38t-38 91.5zM394 284q0 53 38 90.5t91.5 37.5t91 -37.5t37.5 -90.5q0 -54 -37.5 -92.5t-91 -38.5t-91.5 38.5t-38 92.5zM114 699h820v-214h-820v214z" />
<glyph d="M932 848l-257 -256l257 -255l-152 -152l-256 255l-255 -255l-152 152l255 255l-255 256l152 152l255 -257l256 257z" />
<glyph d="M934 699h-820v214h820v-214zM114 485h820v-214h-820v214z" />
<glyph d="M417 600h-303v214h303v207h214v-207h303v-214h-303v-206h-214v206zM114 315h820v-213h-820v213z" />
<glyph d="M379 563l555 -237v-234l-820 352v238l820 352v-234z" />
<glyph d="M114 326l554 237l-554 237v234l820 -352v-238l-820 -352v234z" />
<glyph d="M934 371l-820 212v238l820 213v-223l-422 -109l422 -109v-222zM114 315h820v-213h-820v213z" />
<glyph d="M934 583l-820 -212v222l422 109l-422 109v223l820 -213v-238zM114 315h820v-213h-820v213z" />
<glyph d="M114 485h217l136 214h-353v214h488l155 241l177 -112l-84 -129h84v-214h-220l-135 -214h355v-214h-490l-153 -241l-177 113l82 128h-82v214z" />
<glyph horiz-adv-x="602" d="M430 1522h310l-228 -194h-216z" />
<glyph horiz-adv-x="748" d="M680 1479q18 0 33.5 12.5t19.5 30.5h180q-18 -82 -87 -138t-151 -56h-235q-82 0 -127 56t-28 138h159q-4 -18 6 -30.5t28 -12.5h202z" />
<glyph horiz-adv-x="815" d="M536 1522l66 -63l91 63h271l-274 -194h-197l-192 194h235z" />
<glyph horiz-adv-x="484" d="M-80 -282l92 282h211l-68 -282h-235z" />
<glyph horiz-adv-x="815" d="M688 1328l-66 61l-91 -61h-271l274 194h197l192 -194h-235z" />
<glyph horiz-adv-x="772" d="M558 1529l-45 -208h-239l45 208h239zM907 1529l-45 -208h-238l44 208h239z" />
<glyph horiz-adv-x="377" d="M534 1529l-44 -208h-239l45 208h238z" />
<glyph horiz-adv-x="602" d="M301 1522h301l93 -194h-207z" />
<glyph horiz-adv-x="918" d="M413 1522h301l-209 -194h-207zM755 1522h301l-209 -194h-208z" />
<glyph horiz-adv-x="782" d="M311 1520h609l-41 -189h-608z" />
<glyph horiz-adv-x="482" d="M90 0h233q-13 -8 -32 -19t-30 -17.5t-26.5 -16t-24.5 -16t-20 -14.5t-17.5 -14.5t-12 -14t-8 -15t-2.5 -14.5q0 -27 41 -27t101 27l-35 -163q-63 -33 -152 -33q-51 0 -97 16.5t-78 53.5t-32 87q0 60 51.5 106t140.5 74z" />
<glyph horiz-adv-x="382" d="M264 1423q0 55 38.5 94.5t93.5 39.5t94 -39.5t39 -94.5q0 -54 -39 -92.5t-94 -38.5t-93.5 38.5t-38.5 92.5zM364 1423q0 -13 9.5 -22.5t22.5 -9.5t22.5 9.5t9.5 22.5t-9.5 23t-22.5 10t-22.5 -10t-9.5 -23z" />
<glyph horiz-adv-x="806" d="M745 1539h185q-19 -101 -73 -166t-139 -65q-60 0 -109 25l-48 23q-16 7 -32 7q-38 0 -57 -52h-185q19 102 72.5 167t139.5 65q59 0 108 -25l49 -23q16 -7 32 -7q38 0 57 51z" />
<glyph horiz-adv-x="1685" d="M1241 1083v-661q0 -30 22.5 -45t49.5 -15t50 15t23 45v291q0 239 -135 370t-384 131q-165 0 -281.5 -59t-176.5 -171.5t-60 -270.5v-179q0 -239 134.5 -369.5t383.5 -130.5q192 0 320 80l107 -196q-174 -100 -427 -100q-124 0 -231 24.5t-201 80t-160.5 138t-104.5 205 t-38 274.5v167q0 153 38 275.5t104.5 205t160.5 137.5t201 79.5t231 24.5t231.5 -24.5t201.5 -79.5t160.5 -137.5t104.5 -205t38 -275.5v-319q0 -104 -83 -173t-207 -69q-108 0 -186 28t-120 77q-31 -46 -92.5 -75.5t-123.5 -29.5q-72 0 -137 25t-117.5 72.5t-83.5 126 t-31 175.5v164q0 98 31 176t83.5 125.5t117.5 72.5t137 25q41 0 83 -13t77.5 -37t55.5 -55v80h234zM658 700v-146q0 -59 25.5 -100.5t63.5 -59.5t85 -18q73 0 124 45.5t51 132.5v146q0 88 -51 133.5t-124 45.5q-47 0 -85 -18t-63.5 -59.5t-25.5 -101.5z" />
<glyph horiz-adv-x="1000" d="M563 0l20 95q-9 -17 -26 -34.5t-42.5 -36t-63 -30t-79.5 -11.5q-51 0 -96 14t-78.5 39t-59.5 58.5t-42.5 72t-24.5 79.5t-8 82q0 52 37 244q40 191 135 281.5t257 90.5q87 0 149.5 -35.5t92.5 -95.5l23 107h236l-194 -920h-236zM639 365q43 199 43 216q0 152 -157 152 q-51 0 -90.5 -20.5t-65.5 -58.5t-38 -93q-42 -199 -42 -216q0 -151 156 -151q52 0 91.5 20t65.5 58.5t37 92.5z" />
<glyph horiz-adv-x="1000" d="M563 0l20 95q-9 -17 -26 -34.5t-42.5 -36t-63 -30t-79.5 -11.5q-51 0 -96 14t-78.5 39t-59.5 58.5t-42.5 72t-24.5 79.5t-8 82q0 52 37 244q40 191 135 281.5t257 90.5q87 0 149.5 -35.5t92.5 -95.5l23 107h236l-194 -920h-236zM639 365q43 199 43 216q0 152 -157 152 q-51 0 -90.5 -20.5t-65.5 -58.5t-38 -93q-42 -199 -42 -216q0 -151 156 -151q52 0 91.5 20t65.5 58.5t37 92.5zM573 1248h307l-210 -231h-203z" />
<glyph horiz-adv-x="1000" d="M563 0l20 95q-9 -17 -26 -34.5t-42.5 -36t-63 -30t-79.5 -11.5q-51 0 -96 14t-78.5 39t-59.5 58.5t-42.5 72t-24.5 79.5t-8 82q0 52 37 244q40 191 135 281.5t257 90.5q87 0 149.5 -35.5t92.5 -95.5l23 107h236l-194 -920h-236zM639 365q43 199 43 216q0 152 -157 152 q-51 0 -90.5 -20.5t-65.5 -58.5t-38 -93q-42 -199 -42 -216q0 -151 156 -151q52 0 91.5 20t65.5 58.5t37 92.5zM547 1017q-82 0 -134.5 52.5t-52.5 131.5q0 23 5 47h155q-1 -7 -1 -19q0 -19 14.5 -32.5t38.5 -13.5h168q26 0 48.5 19t27.5 46h177q-14 -62 -56 -115.5 t-101.5 -84.5t-121.5 -31h-167z" />
<glyph horiz-adv-x="1000" d="M563 0l20 95q-9 -17 -26 -34.5t-42.5 -36t-63 -30t-79.5 -11.5q-51 0 -96 14t-78.5 39t-59.5 58.5t-42.5 72t-24.5 79.5t-8 82q0 52 37 244q40 191 135 281.5t257 90.5q87 0 149.5 -35.5t92.5 -95.5l23 107h236l-194 -920h-236zM639 365q43 199 43 216q0 152 -157 152 q-51 0 -90.5 -20.5t-65.5 -58.5t-38 -93q-42 -199 -42 -216q0 -151 156 -151q52 0 91.5 20t65.5 58.5t37 92.5zM759 1248l176 -231h-228l-69 81l-104 -81h-262l273 231h214z" />
<glyph horiz-adv-x="1000" d="M563 0l20 95q-9 -17 -26 -34.5t-42.5 -36t-63 -30t-79.5 -11.5q-51 0 -96 14t-78.5 39t-59.5 58.5t-42.5 72t-24.5 79.5t-8 82q0 52 37 244q40 191 135 281.5t257 90.5q87 0 149.5 -35.5t92.5 -95.5l23 107h236l-194 -920h-236zM639 365q43 199 43 216q0 152 -157 152 q-51 0 -90.5 -20.5t-65.5 -58.5t-38 -93q-42 -199 -42 -216q0 -151 156 -151q52 0 91.5 20t65.5 58.5t37 92.5zM593 1236l-44 -208h-236l45 208h235zM942 1236l-44 -208h-235l44 208h235z" />
<glyph horiz-adv-x="1000" d="M563 0l20 95q-9 -17 -26 -34.5t-42.5 -36t-63 -30t-79.5 -11.5q-51 0 -96 14t-78.5 39t-59.5 58.5t-42.5 72t-24.5 79.5t-8 82q0 52 37 244q40 191 135 281.5t257 90.5q87 0 149.5 -35.5t92.5 -95.5l23 107h236l-194 -920h-236zM639 365q43 199 43 216q0 152 -157 152 q-51 0 -90.5 -20.5t-65.5 -58.5t-38 -93q-42 -199 -42 -216q0 -151 156 -151q52 0 91.5 20t65.5 58.5t37 92.5zM355 1248h297l59 -231h-194z" />
<glyph horiz-adv-x="1000" d="M563 0l20 95q-9 -17 -26 -34.5t-42.5 -36t-63 -30t-79.5 -11.5q-51 0 -96 14t-78.5 39t-59.5 58.5t-42.5 72t-24.5 79.5t-8 82q0 52 37 244q40 191 135 281.5t257 90.5q87 0 149.5 -35.5t92.5 -95.5l23 107h236l-194 -920h-236zM639 365q43 199 43 216q0 152 -157 152 q-51 0 -90.5 -20.5t-65.5 -58.5t-38 -93q-42 -199 -42 -216q0 -151 156 -151q52 0 91.5 20t65.5 58.5t37 92.5zM374 1226h607l-41 -185h-607z" />
<glyph horiz-adv-x="1000" d="M563 0l20 95q-9 -17 -26 -34.5t-42.5 -36t-63 -30t-79.5 -11.5q-51 0 -96 14t-78.5 39t-59.5 58.5t-42.5 72t-24.5 79.5t-8 82q0 52 37 244q40 191 135 281.5t257 90.5q87 0 149.5 -35.5t92.5 -95.5l23 107h236l-194 -920q-16 -9 -40.5 -23.5t-38 -22.5t-32 -20 t-28.5 -20t-20 -17.5t-14 -19t-4 -18.5q0 -30 44 -30q34 0 102 30l-35 -163q-63 -33 -152 -33q-51 0 -97 16.5t-78 53.5t-32 87q0 61 50 106.5t139 73.5zM639 365q43 199 43 216q0 152 -157 152q-51 0 -90.5 -20.5t-65.5 -58.5t-38 -93q-42 -199 -42 -216q0 -151 156 -151 q52 0 91.5 20t65.5 58.5t37 92.5z" />
<glyph horiz-adv-x="1000" d="M563 0l20 95q-9 -17 -26 -34.5t-42.5 -36t-63 -30t-79.5 -11.5q-51 0 -96 14t-78.5 39t-59.5 58.5t-42.5 72t-24.5 79.5t-8 82q0 52 37 244q40 191 135 281.5t257 90.5q87 0 149.5 -35.5t92.5 -95.5l23 107h236l-194 -920h-236zM639 365q43 199 43 216q0 152 -157 152 q-51 0 -90.5 -20.5t-65.5 -58.5t-38 -93q-42 -199 -42 -216q0 -151 156 -151q52 0 91.5 20t65.5 58.5t37 92.5zM495 1131q0 55 39 94.5t93 39.5q36 0 67 -18t48.5 -49t17.5 -67q0 -55 -39 -93t-94 -38t-93.5 38t-38.5 93zM592 1131q0 -15 10 -25t25 -10t25.5 10t10.5 25 t-10.5 25.5t-25.5 10.5t-25 -10.5t-10 -25.5z" />
<glyph horiz-adv-x="1000" d="M563 0l20 95q-9 -17 -26 -34.5t-42.5 -36t-63 -30t-79.5 -11.5q-51 0 -96 14t-78.5 39t-59.5 58.5t-42.5 72t-24.5 79.5t-8 82q0 52 37 244q40 191 135 281.5t257 90.5q87 0 149.5 -35.5t92.5 -95.5l23 107h236l-194 -920h-236zM639 365q43 199 43 216q0 152 -157 152 q-51 0 -90.5 -20.5t-65.5 -58.5t-38 -93q-42 -199 -42 -216q0 -151 156 -151q52 0 91.5 20t65.5 58.5t37 92.5zM479 1019h-173q19 101 73 166.5t140 65.5q56 0 108 -27l48 -23q20 -9 43 -9q15 0 32 14t25 42h175q-9 -49 -26.5 -89.5t-43 -73.5t-62 -51.5t-80.5 -18.5 q-56 0 -109 27l-48 24q-20 8 -43 8q-16 0 -32.5 -13.5t-26.5 -41.5z" />
<glyph horiz-adv-x="1666" d="M1208 920v-662q0 -30 22 -45.5t49 -15.5t50 15.5t23 45.5v291q0 239 -134.5 369.5t-384 130.5t-384 -130.5t-134.5 -369.5v-178q0 -239 134.5 -370t383.5 -131q191 0 320 80l107 -196q-173 -99 -427 -99q-124 0 -231 24.5t-201 79.5t-160.5 137t-104.5 204.5t-38 275.5 v168q0 152 38 274.5t104.5 205t160.5 137.5t201 79.5t231 24.5t231.5 -24.5t201.5 -79.5t160.5 -137.5t104.5 -205t38 -274.5v-320q0 -104 -83 -172.5t-207 -68.5q-73 0 -133 12.5t-103 35.5t-70 56q-30 -46 -92 -75t-124 -29q-72 0 -137 24.5t-117.5 72t-83.5 125.5 t-31 176v164q0 98 31 176t83.5 125.5t117.5 72.5t137 25q62 0 124 -29t92 -75v80h235zM624 536v-145q0 -88 51 -133.5t123.5 -45.5t123.5 45.5t51 133.5v145q0 88 -51 133t-123 45q-47 0 -85.5 -18t-64 -59.5t-25.5 -100.5z" />
<glyph horiz-adv-x="448" d="M244 0h-235l265 1248h236z" />
<glyph horiz-adv-x="448" d="M244 0h-235l265 1248h236zM378 1557h306l-210 -229h-203z" />
<glyph horiz-adv-x="448" d="M907 1248l-212 -282h-195l109 282h298zM244 0h-235l265 1248h236z" />
<glyph horiz-adv-x="448" d="M244 0h-235l265 1248h236zM-82 -357l55 268h267l-55 -268l-98 -185h-167l97 185h-99z" />
<glyph horiz-adv-x="648" d="M244 0h-235l265 1248h236zM721 731l-44 -209h-235l44 209h235z" />
<glyph horiz-adv-x="476" d="M258 0h-235l111 522l-129 -64l39 174l127 65l118 551h235l-89 -420l126 65l-39 -175l-124 -62z" />
<glyph horiz-adv-x="1061" d="M740 1041h-159q-72 0 -88 -79l-8 -42h228l-45 -207h-226l-151 -713h-236l152 713h-130l44 207h129l19 92q23 106 102 171t190 65h221zM857 0h-235l265 1248h235z" />
<glyph horiz-adv-x="1674" d="M820 713h-378l-151 -713h-236l152 713h-130l44 207h129l19 92q23 106 102 171t190 65h221l-42 -207h-159q-72 0 -88 -79l-8 -42h377l20 92q23 106 102.5 171t189.5 65h221l-43 -207h-158q-71 0 -87 -79l-9 -42h228l-44 -207h-228l-151 -713h-235zM1470 0h-235l265 1248 h236z" />
</font>
</defs>
</svg>
